<svg width="518" height="518" viewBox="0 0 518 518" fill="none" xmlns="http://www.w3.org/2000/svg">
<path d="M201.539 433.661C201.438 433.647 201.327 433.633 201.226 433.611C200.813 433.521 199.562 433.155 197.503 431.756C197.35 431.562 197.232 431.355 197.145 431.139C194.795 425.312 205.067 420.993 209.784 423.657V423.657C215.717 427.008 212.468 429.009 207.041 433.096C206.156 433.762 204.479 434.071 201.539 433.661Z" fill="white"/>
<path d="M305.688 88.0418C305.789 88.061 305.899 88.0808 305.999 88.1079C306.405 88.2182 307.634 88.6466 309.632 90.1539C309.74 90.3038 309.829 90.4596 309.901 90.62C312.475 96.3929 301.761 100.675 297.162 97.6876V97.6876C291.498 94.0084 294.832 92.7322 300.109 88.4457C300.969 87.7471 302.655 87.4643 305.688 88.0418Z" fill="white"/>
<path d="M121.602 313.003C121.67 312.887 121.746 312.76 121.809 312.641C122.059 312.171 122.762 310.715 123.633 307.76V307.76C124.188 302.929 115.014 307.378 113.103 311.913C112.476 313.401 111.993 314.975 111.736 316.352C110.834 321.193 116.216 308.867 116.077 313.757C116 316.475 116.371 321.867 121.602 313.003Z" fill="white"/>
<path d="M388.307 203.63C388.236 203.744 388.158 203.868 388.092 203.985C387.832 204.448 387.098 205.885 386.157 208.826V208.826C385.485 213.636 394.676 209.604 396.677 205.153C397.353 203.649 397.883 202.048 398.173 200.647C399.161 195.862 393.502 208.093 393.788 203.229C393.947 200.526 393.788 194.82 388.307 203.63Z" fill="white"/>
<path d="M251.42 100.342C251.347 100.448 251.269 100.564 251.192 100.666C250.886 101.072 249.909 102.263 247.788 104.01V104.01C243.06 106.335 245.094 93.7876 249.139 89.7656C249.471 89.4355 249.809 89.1238 250.147 88.8356C254.945 84.7507 248.385 91.7373 253.426 93.1427C254.668 93.4888 254.963 95.1573 251.42 100.342Z" fill="white"/>
<path d="M247.241 421.888C247.315 421.785 247.395 421.672 247.474 421.573C247.787 421.178 248.786 420.022 250.932 418.357V418.357C255.774 416.186 253.365 428.793 249.165 432.718C248.889 432.976 248.609 433.221 248.329 433.45C243.376 437.516 249.552 431.421 244.855 428.973C243.828 428.438 243.814 426.652 247.241 421.888Z" fill="white"/>
<path d="M131.189 329.513C129.844 329.335 129.641 328.611 130.403 325.864C132.172 323.87 133.178 322.925 133.696 322.62C135.627 321.487 134.2 327.631 133.148 329.525C133.068 329.668 133.015 329.753 133.015 329.753C131.055 329.817 132.535 329.69 131.189 329.513Z" fill="white"/>
<path d="M379.06 186.6C380.53 186.868 380.763 187.582 379.978 190.182C378.311 191.763 377.274 192.604 376.667 192.959C374.727 194.094 375.776 188.166 376.996 186.337C377.039 186.272 377.065 186.236 377.065 186.236C379.202 186.315 377.59 186.331 379.06 186.6Z" fill="white"/>
<path d="M266.587 108.293C266.084 106.542 265.479 106.398 263.602 107.881C262.837 109.879 262.396 111.219 262.184 112.078C261.596 114.458 267.27 110.67 267.27 110.67V110.67C266.781 108.063 267.09 110.045 266.587 108.293Z" fill="white"/>
<path d="M232.443 413.153C232.894 414.944 233.489 415.118 235.386 413.709C236.19 411.745 236.66 410.42 236.895 409.562C237.54 407.208 231.831 410.722 231.831 410.722V410.722C232.245 413.376 231.992 411.361 232.443 413.153Z" fill="white"/>
<path d="M114.634 167.793C115.591 166.186 115.521 165.419 114.104 164.188C112.766 164.49 111.853 164.769 111.257 165.025C109.765 165.663 113.335 169.975 113.335 169.975V169.975C114.829 167.875 113.677 169.401 114.634 167.793Z" fill="white"/>
<path d="M415.595 339.027C414.605 340.604 414.653 341.382 416.023 342.691C417.36 342.448 418.272 342.208 418.87 341.977C420.371 341.398 416.938 336.887 416.938 336.887V336.887C415.404 338.936 416.585 337.449 415.595 339.027Z" fill="white"/>
<path d="M148.32 123.256C147.283 124.786 146.665 124.88 145.368 123.459C145.292 121.76 145.299 120.588 145.362 119.809C145.521 117.833 149.728 121.181 149.728 121.181V121.181C148.43 123.472 149.358 121.727 148.32 123.256Z" fill="white"/>
<path d="M362.197 401.503C363.263 400.007 363.877 399.94 365.123 401.435C365.154 403.162 365.116 404.348 365.032 405.132C364.82 407.132 360.75 403.532 360.75 403.532V403.532C362.095 401.28 361.131 402.999 362.197 401.503Z" fill="white"/>
<path d="M151.14 355.544C151.96 353.507 154.304 356.799 156.046 357.49C156.745 359.992 156.771 361.27 156.445 361.812C155.272 363.759 150.391 362.307 148.46 361.113C148.092 360.885 147.858 360.676 147.858 360.676C148.802 357.76 150.321 357.581 151.14 355.544Z" fill="white"/>
<path d="M360.211 159.309C359.346 161.327 357.114 157.894 355.409 157.115C354.783 154.553 354.792 153.262 355.131 152.732C356.351 150.825 361.132 152.519 363.01 153.813C363.37 154.061 363.597 154.283 363.597 154.283C362.584 157.182 361.077 157.291 360.211 159.309Z" fill="white"/>
<path d="M298.423 116.055C297.017 117.52 300.147 119.575 301.096 121.514C304.395 121.914 305.003 121.048 304.63 119.937C303.903 117.77 303.506 113.897 302.471 112.024C302.093 111.338 301.679 110.897 301.679 110.897C299.614 112.718 299.829 114.591 298.423 116.055Z" fill="white"/>
<path d="M208.074 394.11C209.505 392.698 206.462 390.476 205.575 388.475C202.233 387.902 201.665 388.809 202.066 389.994C202.785 392.122 202.995 396.028 203.94 397.945C204.301 398.679 204.715 399.163 204.715 399.163C206.807 397.423 206.644 395.522 208.074 394.11Z" fill="white"/>
<path d="M110.522 205.561C109.245 204.841 108.852 209.483 107.933 211.642C108.718 216.25 109.548 215.64 110.17 213.955C110.887 212.013 113.284 209.756 114.048 207.838C114.386 206.987 114.554 206.219 114.554 206.219C112.88 204.972 111.799 206.281 110.522 205.561Z" fill="white"/>
<path d="M420.671 301.102C421.916 301.889 422.428 297.222 423.396 295.086C422.743 290.404 421.906 290.974 421.246 292.641C420.482 294.569 418.052 296.736 417.243 298.639C416.885 299.481 416.699 300.249 416.699 300.249C418.323 301.586 419.427 300.316 420.671 301.102Z" fill="white"/>
<path d="M176.972 109.464C176.109 108.093 179.657 106.534 181.135 104.92C184.608 104.799 184.666 105.746 183.751 106.784C182.355 108.368 180.928 111.857 179.453 113.313C178.915 113.844 178.432 114.171 178.432 114.171C177.062 112.444 177.836 110.835 176.972 109.464Z" fill="white"/>
<path d="M333.478 414.08C334.295 415.504 330.743 416.912 329.237 418.471C325.85 418.431 325.767 417.501 326.655 416.514C328.08 414.931 329.624 411.472 331.145 410.061C331.684 409.562 332.159 409.261 332.159 409.261C333.468 411.068 332.66 412.656 333.478 414.08Z" fill="white"/>
<path d="M122.439 361.094C123.258 359.057 125.602 362.349 127.344 363.04C128.043 365.542 128.069 366.82 127.743 367.362C126.57 369.31 121.689 367.857 119.759 366.663C119.39 366.435 119.156 366.226 119.156 366.226C120.1 363.31 121.619 363.132 122.439 361.094Z" fill="white"/>
<path d="M388.762 155.053C387.897 157.071 385.665 153.639 383.96 152.86C383.333 150.298 383.343 149.006 383.682 148.476C384.901 146.57 389.683 148.263 391.561 149.558C391.92 149.805 392.147 150.028 392.147 150.028C391.135 152.926 389.627 153.036 388.762 155.053Z" fill="white"/>
<path d="M289.327 90.0925C287.921 91.557 291.051 93.6128 292 95.551C295.299 95.9513 295.906 95.0855 295.533 93.9741C294.806 91.8077 294.41 87.9346 293.375 86.0611C292.996 85.3758 292.583 84.9343 292.583 84.9343C290.517 86.755 290.733 88.628 289.327 90.0925Z" fill="white"/>
<path d="M209.455 430.455C210.885 429.043 207.843 426.821 206.955 424.821C203.614 424.247 203.046 425.154 203.447 426.34C204.166 428.467 204.375 432.373 205.32 434.29C205.682 435.024 206.096 435.508 206.096 435.508C208.188 433.768 208.025 431.867 209.455 430.455Z" fill="white"/>
<path d="M131.724 182.421C130.447 181.701 130.054 186.343 129.135 188.502C129.92 193.11 130.75 192.5 131.372 190.815C132.089 188.873 134.486 186.616 135.25 184.698C135.588 183.847 135.756 183.079 135.756 183.079C134.082 181.832 133.001 183.141 131.724 182.421Z" fill="white"/>
<path d="M399.073 323.462C400.318 324.249 400.83 319.582 401.798 317.446C401.145 312.764 400.308 313.333 399.648 315C398.884 316.929 396.454 319.096 395.645 320.999C395.287 321.841 395.101 322.609 395.101 322.609C396.725 323.946 397.829 322.676 399.073 323.462Z" fill="white"/>
<path d="M163.789 140.438C162.926 139.067 166.474 137.508 167.952 135.894C171.425 135.774 171.483 136.72 170.568 137.758C169.171 139.343 167.745 142.831 166.27 144.287C165.732 144.818 165.249 145.146 165.249 145.146C163.879 143.419 164.653 141.809 163.789 140.438Z" fill="white"/>
<path d="M347.35 383.437C348.168 384.861 344.615 386.269 343.109 387.828C339.723 387.788 339.639 386.858 340.528 385.87C341.952 384.288 343.497 380.829 345.018 379.418C345.556 378.918 346.031 378.617 346.031 378.617C347.34 380.425 346.532 382.013 347.35 383.437Z" fill="white"/>
<path d="M185.558 397.283C184.001 397.078 186.963 392.22 187.736 389.432C192.228 384.851 191.882 387.125 190.847 389.754C190.09 391.673 190.718 394.777 190.278 396.747C189.961 398.167 189.334 399.525 189.334 399.525C187.077 399.554 187.116 397.489 185.558 397.283Z" fill="white"/>
<path d="M327.412 115.783C328.871 116.05 325.945 120.639 325.137 123.312C320.852 127.494 321.159 125.444 322.169 122.991C322.95 121.093 322.479 117.899 322.998 115.945C323.344 114.64 323.927 113.445 323.927 113.445C326.05 113.514 325.953 115.517 327.412 115.783Z" fill="white"/>
<path d="M102.317 268.664C103.286 267.036 99.6696 266.365 98.2123 265.099C95.5815 265.668 94.8088 266.344 94.9309 266.988C95.3747 269.328 98.0573 272.301 99.8519 273.472C100.247 273.73 100.555 273.862 100.555 273.862C102.071 271.738 101.347 270.292 102.317 268.664Z" fill="white"/>
<path d="M430.475 237.799C429.472 239.396 433.033 240.243 434.442 241.59C437.144 241.124 437.891 240.45 437.726 239.773C437.162 237.448 434.791 234.346 433.071 233.083C432.674 232.791 432.357 232.635 432.357 232.635C430.801 234.708 431.478 236.201 430.475 237.799Z" fill="white"/>
<path d="M218.881 77.5194C217.832 79.0693 216.459 74.8662 215.126 73.4054C214.942 69.8228 215.369 68.8431 215.978 69.0288C217.852 69.5996 220.696 71.5317 222.016 73.3412C222.345 73.7934 222.545 74.1797 222.545 74.1797C221.234 76.5036 219.931 75.9695 218.881 77.5194Z" fill="white"/>
<path d="M285.759 436.734C286.839 435.219 288.085 439.526 289.365 441.062C289.454 444.807 288.973 445.717 288.345 445.414C286.573 444.559 283.821 442.694 282.572 440.843C282.242 440.354 282.044 439.933 282.044 439.933C283.404 437.649 284.678 438.249 285.759 436.734Z" fill="white"/>
<path d="M137.87 166.696C138.476 168.068 141.194 163.424 143.024 161.622C144.951 156.068 143.715 156.733 142.214 158.455C140.83 160.042 138.06 160.949 136.594 162.365C135.773 163.158 135.118 164.048 135.118 164.048C135.754 166.162 137.265 165.325 137.87 166.696Z" fill="white"/>
<path d="M397.966 346.665C397.404 345.253 394.59 349.812 392.731 351.545C390.694 357.012 391.896 356.457 393.409 354.823C394.842 353.274 397.626 352.463 399.132 351.08C399.958 350.322 400.62 349.467 400.62 349.467C400.047 347.304 398.529 348.078 397.966 346.665Z" fill="white"/>
<path d="M145.862 146.423C147.079 146.832 144.074 151.196 143.089 153.824C138.932 157.68 139.465 155.565 140.619 153.152C141.489 151.332 141.442 147.965 142.106 146.069C142.544 144.821 143.142 143.724 143.142 143.724C144.948 143.996 144.645 146.014 145.862 146.423Z" fill="white"/>
<path d="M389.517 366.752C388.324 366.282 391.414 362.018 392.458 359.412C396.676 355.714 396.091 357.826 394.884 360.208C393.974 362.003 393.932 365.403 393.225 367.284C392.759 368.524 392.137 369.603 392.137 369.603C390.357 369.244 390.711 367.221 389.517 366.752Z" fill="white"/>
<path d="M141.64 386.03C141.64 386.03 141.579 386.25 141.248 387.441C141.248 387.441 140.447 389.011 141.244 389.116C142.042 389.222 142.51 387.379 142.84 386.188C142.84 386.188 142.587 385.522 141.64 386.03Z" fill="white"/>
<path d="M370.643 128.957C370.643 128.957 370.713 128.728 371.087 127.488C371.087 127.488 372.092 125.896 370.972 125.691C369.851 125.487 369.331 127.41 368.956 128.649C368.956 128.649 369.359 129.393 370.643 128.957Z" fill="white"/>
<path d="M118.36 338.505C118.36 338.505 118.299 338.725 117.969 339.916C117.969 339.916 117.167 341.486 117.965 341.591C118.763 341.696 119.231 339.854 119.561 338.663C119.561 338.663 119.307 337.997 118.36 338.505Z" fill="white"/>
<path d="M392.41 178.228C392.41 178.228 392.479 177.999 392.854 176.76C392.854 176.76 393.859 175.167 392.739 174.962C391.618 174.758 391.098 176.681 390.723 177.92C390.723 177.92 391.126 178.664 392.41 178.228Z" fill="white"/>
<path d="M270.474 90.2335C270.474 90.2335 270.639 90.1029 271.534 89.3958C271.534 89.3958 272.579 87.8443 272.963 89.1793C273.346 90.5143 271.946 91.5363 271.051 92.2434C271.051 92.2434 270.389 91.8976 270.474 90.2335Z" fill="white"/>
<path d="M228.115 431.197C228.115 431.197 227.948 431.321 227.044 431.993C227.044 431.993 225.968 433.51 225.624 432.145C225.28 430.779 226.693 429.813 227.598 429.142C227.598 429.142 228.244 429.522 228.115 431.197Z" fill="white"/>
<path d="M127.755 219.085C127.755 219.085 127.88 219.194 128.556 219.781C128.556 219.781 129.725 220.156 129.157 221.109C128.59 222.062 127.577 221.107 126.901 220.52C126.901 220.52 126.856 219.713 127.755 219.085Z" fill="white"/>
<path d="M403.979 286.644C403.979 286.644 403.858 286.529 403.205 285.905C403.205 285.905 402.058 285.471 402.645 284.536C403.232 283.601 404.21 284.612 404.863 285.236C404.863 285.236 404.886 286.052 403.979 286.644Z" fill="white"/>
<path d="M191.608 127.076C191.608 127.076 191.722 127.201 192.341 127.878C192.341 127.878 192.908 129.2 193.523 128.293C194.137 127.386 193.151 126.388 192.533 125.71C192.533 125.71 191.89 125.844 191.608 127.076Z" fill="white"/>
<path d="M319.465 395.618C319.465 395.618 319.355 395.487 318.761 394.774C318.761 394.774 318.235 393.413 317.602 394.3C316.97 395.187 317.919 396.24 318.513 396.953C318.513 396.953 319.153 396.848 319.465 395.618Z" fill="white"/>
<path d="M151.974 182.328C151.974 182.328 152.099 182.436 152.774 183.023C152.774 183.023 153.943 183.398 153.376 184.351C152.808 185.304 151.795 184.349 151.119 183.762C151.119 183.762 151.074 182.956 151.974 182.328Z" fill="white"/>
<path d="M384.427 330.227C384.427 330.227 384.306 330.112 383.653 329.488C383.653 329.488 382.506 329.054 383.093 328.119C383.68 327.184 384.658 328.195 385.311 328.819C385.311 328.819 385.334 329.636 384.427 330.227Z" fill="white"/>
<path d="M189.033 426.338C189.033 426.338 189.158 426.446 189.834 427.033C189.834 427.033 191.003 427.408 190.435 428.361C189.868 429.314 188.855 428.359 188.179 427.772C188.179 427.772 188.133 426.966 189.033 426.338Z" fill="white"/>
<path d="M324.603 86.081C324.603 86.081 324.482 85.9657 323.829 85.3415C323.829 85.3415 322.682 84.908 323.269 83.9729C323.856 83.0377 324.834 84.049 325.487 84.6732C325.487 84.6732 325.51 85.4894 324.603 86.081Z" fill="white"/>
<path d="M161.418 159.769C161.418 159.769 161.532 159.894 162.151 160.571C162.151 160.571 162.718 161.893 163.333 160.986C163.947 160.079 162.961 159.081 162.343 158.403C162.343 158.403 161.7 158.537 161.418 159.769Z" fill="white"/>
<path d="M374.48 352.552C374.48 352.552 374.37 352.421 373.776 351.708C373.776 351.708 373.25 350.347 372.617 351.234C371.985 352.121 372.934 353.174 373.528 353.887C373.528 353.887 374.168 353.782 374.48 352.552Z" fill="white"/>
<path d="M177.801 406.8C177.801 406.8 177.652 406.741 176.844 406.421C176.844 406.421 176.026 405.292 175.397 406.857C174.767 408.423 176.046 408.836 176.853 409.156C176.853 409.156 177.601 408.49 177.801 406.8Z" fill="white"/>
<path d="M335.196 106.327C335.196 106.327 335.342 106.394 336.133 106.755C336.133 106.755 336.913 107.932 337.577 106.382C338.242 104.832 336.988 104.355 336.197 103.993C336.197 103.993 335.439 104.63 335.196 106.327Z" fill="white"/>
<path d="M160.593 414.358C160.593 414.358 160.443 414.299 159.636 413.979C159.636 413.979 158.818 412.85 158.188 414.416C157.559 415.981 158.837 416.394 159.645 416.714C159.645 416.714 160.393 416.048 160.593 414.358Z" fill="white"/>
<path d="M352.427 99.5059C352.427 99.5059 352.573 99.5726 353.364 99.9338C353.364 99.9338 354.143 101.111 354.808 99.5608C355.472 98.0108 354.218 97.5335 353.428 97.1722C353.428 97.1722 352.67 97.8094 352.427 99.5059Z" fill="white"/>
<path d="M110.992 268.508C110.992 268.508 111.071 268.323 111.497 267.321C111.497 267.321 111.642 265.717 112.623 266.27C113.603 266.823 112.895 268.339 112.469 269.341C112.469 269.341 111.73 269.561 110.992 268.508Z" fill="white"/>
<path d="M421.886 237.55C421.886 237.55 421.803 237.733 421.354 238.723C421.354 238.723 421.169 240.336 420.213 239.732C419.257 239.127 419.998 237.63 420.447 236.64C420.447 236.64 421.184 236.452 421.886 237.55Z" fill="white"/>
<path d="M220.788 88.0154C220.788 88.0154 220.662 88.1536 219.976 88.9018C219.976 88.9018 218.752 89.4514 219.415 90.5045C220.078 91.5575 221.101 90.3489 221.787 89.6008C221.787 89.6008 221.786 88.6584 220.788 88.0154Z" fill="white"/>
<path d="M284.151 426.051C284.151 426.051 284.28 425.918 284.979 425.195C284.979 425.195 286.205 424.698 285.577 423.604C284.949 422.51 283.904 423.682 283.206 424.405C283.206 424.405 283.181 425.356 284.151 426.051Z" fill="white"/>
<path d="M172.735 393.737C172.735 393.737 172.776 393.506 172.999 392.258C172.999 392.258 173.828 390.532 172.641 390.602C171.455 390.672 171.172 392.594 170.949 393.842C170.949 393.842 171.464 394.445 172.735 393.737Z" fill="white"/>
<path d="M339.861 119.749C339.861 119.749 339.814 119.979 339.56 121.229C339.56 121.229 338.695 122.932 339.871 122.917C341.047 122.902 341.378 120.976 341.632 119.726C341.632 119.726 341.138 119.093 339.861 119.749Z" fill="white"/>
<path d="M109.715 254.104C109.715 254.104 109.605 253.974 109.01 253.268C109.01 253.268 107.838 252.785 108.657 251.711C109.477 250.638 110.353 251.782 110.949 252.488C110.949 252.488 110.819 253.419 109.715 254.104Z" fill="white"/>
<path d="M422.765 252.146C422.765 252.146 422.871 252.283 423.441 253.023C423.441 253.023 424.588 253.566 423.748 254.611C422.909 255.656 422.072 254.46 421.501 253.72C421.501 253.72 421.654 252.786 422.765 252.146Z" fill="white"/>
<path d="M209.197 89.8454C209.197 89.8454 209.069 89.7433 208.376 89.1903C208.376 89.1903 207.723 87.8907 207.073 89.1298C206.423 90.369 207.525 91.1581 208.218 91.711C208.218 91.711 208.918 91.337 209.197 89.8454Z" fill="white"/>
<path d="M295.671 424.748C295.671 424.748 295.795 424.857 296.466 425.448C296.466 425.448 297.077 426.79 297.754 425.57C298.43 424.35 297.36 423.502 296.69 422.911C296.69 422.911 295.987 423.256 295.671 424.748Z" fill="white"/>
<path d="M144.065 177.311C144.065 177.311 144.228 177.177 145.115 176.454C145.115 176.454 146.192 174.968 146.481 176.106C146.769 177.244 145.386 178.301 144.499 179.024C144.499 179.024 143.891 178.791 144.065 177.311Z" fill="white"/>
<path d="M392.12 335.662C392.12 335.662 391.954 335.789 391.057 336.477C391.057 336.477 389.952 337.926 389.697 336.764C389.442 335.602 390.839 334.6 391.736 333.912C391.736 333.912 392.331 334.176 392.12 335.662Z" fill="white"/>
<path d="M155.634 151.407C155.634 151.407 155.568 151.636 155.208 152.874C155.208 152.874 154.295 154.52 155.255 154.602C156.214 154.683 156.719 152.768 157.079 151.53C157.079 151.53 156.754 150.852 155.634 151.407Z" fill="white"/>
<path d="M379.98 361.263C379.98 361.263 380.052 361.035 380.441 359.802C380.441 359.802 381.389 358.184 380.441 358.057C379.493 357.929 378.942 359.838 378.554 361.071C378.554 361.071 378.857 361.771 379.98 361.263Z" fill="white"/>
<path d="M151.464 362.703C151.464 362.703 151.403 362.923 151.072 364.114C151.072 364.114 150.094 365.661 151.291 365.819C152.487 365.977 152.935 364.132 153.265 362.941C153.265 362.941 152.799 362.247 151.464 362.703Z" fill="white"/>
<path d="M359.783 152.342C359.783 152.342 359.852 152.113 360.227 150.873C360.227 150.873 361.232 149.281 360.111 149.076C358.991 148.872 358.471 150.795 358.096 152.034C358.096 152.034 358.498 152.778 359.783 152.342Z" fill="white"/>
<path d="M303.958 115.192C303.958 115.192 304.123 115.061 305.018 114.354C305.018 114.354 306.063 112.803 306.446 114.138C306.83 115.473 305.429 116.495 304.535 117.202C304.535 117.202 303.872 116.856 303.958 115.192Z" fill="white"/>
<path d="M202.575 394.721C202.575 394.721 202.408 394.845 201.503 395.517C201.503 395.517 200.428 397.034 200.084 395.669C199.74 394.303 201.153 393.337 202.057 392.666C202.057 392.666 202.704 393.046 202.575 394.721Z" fill="white"/>
<path d="M112.374 211.52C112.374 211.52 112.499 211.628 113.174 212.215C113.174 212.215 114.343 212.59 113.776 213.543C113.208 214.496 112.195 213.541 111.519 212.954C111.519 212.954 111.474 212.148 112.374 211.52Z" fill="white"/>
<path d="M418.998 295.001C418.998 295.001 418.878 294.886 418.224 294.262C418.224 294.262 417.078 293.828 417.665 292.893C418.252 291.958 419.229 292.969 419.882 293.593C419.882 293.593 419.905 294.41 418.998 295.001Z" fill="white"/>
<path d="M182.077 110.302C182.077 110.302 182.192 110.427 182.81 111.104C182.81 111.104 183.378 112.426 183.992 111.519C184.607 110.612 183.621 109.614 183.002 108.936C183.002 108.936 182.359 109.07 182.077 110.302Z" fill="white"/>
<path d="M328.448 412.995C328.448 412.995 328.338 412.863 327.744 412.15C327.744 412.15 327.218 410.79 326.586 411.677C325.954 412.563 326.902 413.617 327.496 414.33C327.496 414.33 328.136 414.225 328.448 412.995Z" fill="white"/>
<path d="M137.025 399.55C137.025 399.55 136.437 400.01 136.58 399.491C136.58 399.491 136.423 398.74 137.22 398.845C137.549 398.888 137.697 399.049 137.748 399.259C137.757 399.295 137.059 399.568 137.025 399.55V399.55Z" fill="white"/>
<path d="M375.546 115.593C375.546 115.593 376.167 114.993 375.962 115.669C375.962 115.669 376.016 116.646 375.269 116.51C374.892 116.441 374.795 116.143 374.818 115.777C374.82 115.746 375.522 115.574 375.546 115.593V115.593Z" fill="white"/>
<path d="M113.831 351.717C113.831 351.717 113.171 352.437 113.387 351.659C113.387 351.659 113.327 350.555 114.124 350.66C114.54 350.715 114.637 351.067 114.604 351.501C114.602 351.533 113.856 351.736 113.831 351.717V351.717Z" fill="white"/>
<path d="M397.313 164.864C397.313 164.864 397.933 164.264 397.729 164.94C397.729 164.94 397.783 165.917 397.036 165.781C396.658 165.712 396.562 165.414 396.585 165.048C396.587 165.017 397.289 164.845 397.313 164.864V164.864Z" fill="white"/>
<path d="M279.949 81.5497C279.949 81.5497 280.294 80.6687 279.807 81.0539C279.807 81.0539 279.031 81.1829 279.287 82.0729C279.393 82.4403 279.58 82.5469 279.799 82.5183C279.837 82.5134 279.973 81.5818 279.949 81.5497V81.5497Z" fill="white"/>
<path d="M218.507 439.517C218.507 439.517 218.142 440.39 218.635 440.024C218.635 440.024 219.405 439.93 219.176 439.02C219.084 438.653 218.906 438.533 218.695 438.546C218.657 438.548 218.484 439.483 218.507 439.517V439.517Z" fill="white"/>
<path d="M135.717 224.488C135.717 224.488 136.401 224.277 136.033 223.957C136.033 223.957 135.784 223.1 135.217 224.053C135.071 224.298 135.002 224.51 134.986 224.694C134.98 224.771 135.693 224.558 135.717 224.488V224.488Z" fill="white"/>
<path d="M396.245 280.818C396.245 280.818 395.562 280.999 395.918 281.339C395.918 281.339 396.141 282.215 396.728 281.28C396.882 281.035 396.956 280.821 396.974 280.633C396.982 280.557 396.27 280.749 396.245 280.818V280.818Z" fill="white"/>
<path d="M197.707 135.41C197.707 135.41 197.701 136.284 197.364 135.915C197.364 135.915 196.635 135.816 197.249 134.909C197.415 134.664 197.572 134.53 197.719 134.472C197.776 134.45 197.755 135.366 197.707 135.41V135.41Z" fill="white"/>
<path d="M313.652 386.921C313.652 386.921 313.681 386.039 314.004 386.427C314.004 386.427 314.724 386.562 314.091 387.448C313.917 387.693 313.755 387.821 313.605 387.87C313.549 387.889 313.604 386.962 313.652 386.921V386.921Z" fill="white"/>
<path d="M159.935 187.731C159.935 187.731 160.62 187.52 160.251 187.2C160.251 187.2 160.003 186.343 159.435 187.296C159.289 187.541 159.22 187.753 159.205 187.937C159.198 188.014 159.912 187.801 159.935 187.731V187.731Z" fill="white"/>
<path d="M376.693 324.401C376.693 324.401 376.01 324.582 376.366 324.922C376.366 324.922 376.589 325.798 377.176 324.863C377.33 324.618 377.404 324.404 377.423 324.217C377.43 324.141 376.718 324.332 376.693 324.401V324.401Z" fill="white"/>
<path d="M196.994 431.74C196.994 431.74 197.679 431.529 197.31 431.209C197.31 431.209 197.062 430.353 196.494 431.306C196.348 431.551 196.279 431.763 196.264 431.947C196.257 432.023 196.971 431.811 196.994 431.74V431.74Z" fill="white"/>
<path d="M316.869 80.2545C316.869 80.2545 316.186 80.4354 316.542 80.7755C316.542 80.7755 316.765 81.6514 317.352 80.7163C317.506 80.4714 317.579 80.2579 317.598 80.0701C317.606 79.9941 316.894 80.1852 316.869 80.2545V80.2545Z" fill="white"/>
<path d="M167.517 168.103C167.517 168.103 167.511 168.977 167.174 168.608C167.174 168.608 166.445 168.509 167.059 167.602C167.225 167.357 167.382 167.223 167.529 167.165C167.586 167.143 167.565 168.059 167.517 168.103V168.103Z" fill="white"/>
<path d="M368.667 343.855C368.667 343.855 368.696 342.973 369.019 343.361C369.019 343.361 369.739 343.496 369.106 344.382C368.932 344.627 368.77 344.755 368.62 344.804C368.564 344.823 368.619 343.896 368.667 343.855V343.855Z" fill="white"/>
<path d="M204.576 412.113C204.576 412.113 204.57 412.987 204.233 412.618C204.233 412.618 203.504 412.519 204.118 411.612C204.284 411.367 204.441 411.233 204.588 411.175C204.645 411.153 204.624 412.069 204.576 412.113V412.113Z" fill="white"/>
<path d="M308.843 99.7089C308.843 99.7089 308.871 98.8266 309.195 99.2149C309.195 99.2149 309.914 99.3494 309.282 100.236C309.107 100.481 308.945 100.609 308.796 100.658C308.739 100.676 308.794 99.7501 308.843 99.7089V99.7089Z" fill="white"/>
<path d="M168.265 429.894C168.265 429.894 168.059 429.139 168.499 429.313C168.499 429.313 169.282 429.088 168.863 430.131C168.761 430.385 168.645 430.557 168.522 430.671C168.467 430.722 168.223 429.956 168.265 429.894V429.894Z" fill="white"/>
<path d="M345.249 83.4657C345.249 83.4657 345.433 84.2382 345.002 84.0414C345.002 84.0414 344.221 84.2318 344.664 83.1985C344.771 82.9475 344.891 82.7785 345.016 82.6693C345.072 82.6207 345.292 83.4054 345.249 83.4657V83.4657Z" fill="white"/>
<path d="M125.632 276.435C125.632 276.435 125.5 275.684 125.268 276.23C125.268 276.23 124.663 276.807 125.317 277.176C125.62 277.347 125.852 277.254 126.038 277.05C126.06 277.025 125.665 276.439 125.632 276.435V276.435Z" fill="white"/>
<path d="M407.611 228.862C407.611 228.862 407.721 229.626 407.966 229.086C407.966 229.086 408.58 228.532 407.942 228.129C407.648 227.943 407.416 228.025 407.227 228.221C407.204 228.245 407.578 228.857 407.611 228.862V228.862Z" fill="white"/>
<path d="M230.429 103.81C230.429 103.81 229.809 103.826 230.183 103.419C230.183 103.419 230.494 102.554 230.936 103.256C231.118 103.545 231.124 103.814 231.042 104.06C231.028 104.103 230.441 103.853 230.429 103.81V103.81Z" fill="white"/>
<path d="M275.033 409.658C275.033 409.658 275.647 409.67 275.266 410.064C275.266 410.064 274.935 410.922 274.516 410.193C274.348 409.899 274.346 409.632 274.428 409.391C274.443 409.346 275.022 409.613 275.033 409.658V409.658Z" fill="white"/>
<path d="M168.246 370.931C168.246 370.931 168.04 370.176 168.48 370.35C168.48 370.35 169.263 370.125 168.843 371.168C168.742 371.422 168.626 371.594 168.502 371.708C168.447 371.759 168.204 370.993 168.246 370.931V370.931Z" fill="white"/>
<path d="M343.695 142.976C343.695 142.976 343.879 143.749 343.448 143.552C343.448 143.552 342.667 143.742 343.11 142.709C343.218 142.458 343.337 142.289 343.462 142.18C343.518 142.131 343.739 142.916 343.695 142.976V142.976Z" fill="white"/>
<path d="M104.569 233.089C104.569 233.089 104.437 232.338 104.205 232.883C104.205 232.883 103.6 233.461 104.254 233.83C104.557 234.001 104.79 233.907 104.975 233.703C104.997 233.679 104.602 233.092 104.569 233.089V233.089Z" fill="white"/>
<path d="M427.297 273.598C427.297 273.598 427.407 274.362 427.652 273.822C427.652 273.822 428.266 273.268 427.629 272.865C427.334 272.679 427.102 272.761 426.914 272.957C426.891 272.981 427.265 273.593 427.297 273.598V273.598Z" fill="white"/>
<path d="M191.515 88.5581C191.515 88.5581 190.895 88.5746 191.269 88.167C191.269 88.167 191.58 87.3025 192.022 88.0046C192.204 88.2927 192.21 88.5624 192.128 88.8084C192.114 88.8516 191.527 88.6011 191.515 88.5581V88.5581Z" fill="white"/>
<path d="M313.134 426.876C313.134 426.876 313.748 426.889 313.367 427.283C313.367 427.283 313.036 428.141 312.617 427.411C312.449 427.118 312.447 426.85 312.529 426.609C312.544 426.565 313.123 426.832 313.134 426.876V426.876Z" fill="white"/>
<path d="M159.824 398.523C159.824 398.523 156.198 401.622 157.782 395.913C157.782 395.913 158.173 387.929 162.144 388.452C164.906 388.816 164.467 393.174 163.41 397.714C163.156 398.809 160.523 399.309 159.824 398.523V398.523Z" fill="white"/>
<path d="M352.877 115.391C352.877 115.391 356.425 112.378 354.69 118.118C354.69 118.118 353.981 126.214 350.262 125.535C347.648 125.058 348.287 120.561 349.5 115.938C349.767 114.921 352.275 114.598 352.877 115.391V115.391Z" fill="white"/>
<path d="M199.808 403.794C199.808 403.794 196.449 406.928 198.032 401.219C198.032 401.219 198.6 393.258 202.174 393.729C204.697 394.062 204.129 398.538 203.02 403.15C202.787 404.119 200.384 404.525 199.808 403.794V403.794Z" fill="white"/>
<path d="M313.342 108.175C313.342 108.175 316.891 105.162 315.156 110.903C315.156 110.903 314.447 118.999 310.727 118.32C308.114 117.843 308.753 113.346 309.966 108.722C310.233 107.705 312.74 107.382 313.342 108.175V108.175Z" fill="white"/>
<path d="M130.893 246.818C130.893 246.818 132.512 238.453 127.174 233.815C127.174 233.815 127.782 239.244 123.826 245.887C121.844 249.215 122.512 250.586 124.343 251.709C126.332 252.929 130.571 249.361 130.893 246.818V246.818Z" fill="white"/>
<path d="M401.614 258.506C401.614 258.506 399.789 266.873 404.948 271.804C404.948 271.804 404.491 266.297 408.583 259.778C410.652 256.481 409.996 255.07 408.174 253.842C406.264 252.555 401.998 255.97 401.614 258.506V258.506Z" fill="white"/>
<path d="M214.087 124.37C214.087 124.37 214.161 131.853 209.276 126.502C209.276 126.502 200.745 122.036 205.028 115.713C207.714 111.747 211.593 113.644 215.317 116.93C217.036 118.447 215.975 123.403 214.087 124.37V124.37Z" fill="white"/>
<path d="M297.148 397.295C297.148 397.295 297.274 389.738 301.966 395.368C301.966 395.368 310.289 400.276 305.882 406.457C303.102 410.356 299.287 408.213 295.671 404.686C294.048 403.103 295.268 398.176 297.148 397.295V397.295Z" fill="white"/>
<path d="M173.281 157.1C173.281 157.1 170.7 159.781 171.304 150.108C171.304 150.108 180.646 138.463 174.99 139.965C170.992 141.027 169.501 148.753 168.757 156.608C168.602 158.242 172.031 158.479 173.281 157.1V157.1Z" fill="white"/>
<path d="M362.669 354.689C362.669 354.689 365.295 352.105 364.439 361.839C364.439 361.839 354.884 373.154 360.521 371.903C364.516 371.016 366.197 363.248 367.141 355.333C367.332 353.731 363.927 353.372 362.669 354.689V354.689Z" fill="white"/>
<path d="M141.633 395.323C141.633 395.323 140.744 393.749 140.964 392.955C140.964 392.955 142.273 391.988 143.071 392.093C143.868 392.198 143.487 393.417 143.267 394.211C143.267 394.211 142.562 395.161 141.633 395.323Z" fill="white"/>
<path d="M370.527 119.268C370.527 119.268 371.283 120.95 371.033 121.776C371.033 121.776 369.747 122.75 369 122.613C368.253 122.477 368.677 121.209 368.926 120.383C368.926 120.383 369.642 119.409 370.527 119.268Z" fill="white"/>
<path d="M118.354 347.798C118.354 347.798 117.465 346.224 117.685 345.43C117.685 345.43 118.994 344.463 119.791 344.568C120.589 344.673 120.208 345.892 119.988 346.686C119.988 346.686 119.283 347.636 118.354 347.798Z" fill="white"/>
<path d="M392.294 168.539C392.294 168.539 393.05 170.221 392.8 171.047C392.8 171.047 391.514 172.021 390.767 171.884C390.02 171.748 390.444 170.48 390.693 169.654C390.693 169.654 391.409 168.68 392.294 168.539Z" fill="white"/>
<path d="M278.075 88.4445C278.075 88.4445 276.609 87.8519 276.012 88.3233C276.012 88.3233 275.507 90.0965 275.763 90.9865C276.018 91.8765 276.925 91.1033 277.522 90.6319C277.522 90.6319 278.141 89.5593 278.075 88.4445Z" fill="white"/>
<path d="M220.546 432.646C220.546 432.646 221.981 433.313 222.584 432.865C222.584 432.865 223.13 431.099 222.901 430.189C222.672 429.279 221.754 430.016 221.151 430.464C221.151 430.464 220.509 431.518 220.546 432.646Z" fill="white"/>
<path d="M131.213 226.006C131.213 226.006 131.098 224.166 130.648 223.775C130.648 223.775 129.488 224.132 129.062 224.847C128.637 225.562 129.354 226.129 129.804 226.52C129.804 226.52 130.602 226.634 131.213 226.006Z" fill="white"/>
<path d="M400.742 279.498C400.742 279.498 400.807 281.359 401.242 281.775C401.242 281.775 402.399 281.469 402.84 280.768C403.28 280.067 402.585 279.461 402.15 279.045C402.15 279.045 401.363 278.892 400.742 279.498Z" fill="white"/>
<path d="M197.843 129.626C197.843 129.626 196.374 129.917 195.962 129.465C195.962 129.465 195.971 127.984 196.431 127.303C196.892 126.623 197.504 127.355 197.917 127.806C197.917 127.806 198.193 128.742 197.843 129.626Z" fill="white"/>
<path d="M313.363 392.753C313.363 392.753 314.824 392.527 315.22 393.002C315.22 393.002 315.172 394.498 314.698 395.163C314.224 395.828 313.637 395.06 313.241 394.585C313.241 394.585 312.993 393.628 313.363 392.753Z" fill="white"/>
<path d="M149.784 181.96C149.784 181.96 149.668 180.121 149.218 179.729C149.218 179.729 148.058 180.087 147.632 180.801C147.207 181.516 147.924 182.083 148.374 182.474C148.374 182.474 149.172 182.588 149.784 181.96Z" fill="white"/>
<path d="M381.19 323.08C381.19 323.08 381.255 324.942 381.69 325.358C381.69 325.358 382.847 325.052 383.288 324.351C383.728 323.649 383.034 323.044 382.598 322.627C382.598 322.627 381.811 322.475 381.19 323.08Z" fill="white"/>
<path d="M192.491 433.258C192.491 433.258 192.376 431.419 191.925 431.027C191.925 431.027 190.765 431.385 190.34 432.099C189.914 432.814 190.631 433.381 191.082 433.772C191.082 433.772 191.88 433.886 192.491 433.258Z" fill="white"/>
<path d="M321.366 78.9343C321.366 78.9343 321.43 80.7959 321.866 81.212C321.866 81.212 323.023 80.9059 323.463 80.2045C323.904 79.5032 323.209 78.8974 322.774 78.4812C322.774 78.4812 321.987 78.3286 321.366 78.9343Z" fill="white"/>
<path d="M167.653 162.319C167.653 162.319 166.184 162.61 165.772 162.158C165.772 162.158 165.78 160.677 166.241 159.996C166.702 159.316 167.314 160.048 167.727 160.499C167.727 160.499 168.003 161.435 167.653 162.319Z" fill="white"/>
<path d="M368.378 349.687C368.378 349.687 369.839 349.461 370.235 349.936C370.235 349.936 370.187 351.432 369.713 352.097C369.239 352.762 368.652 351.994 368.256 351.519C368.256 351.519 368.008 350.562 368.378 349.687Z" fill="white"/>
<path d="M174.745 434.266C174.745 434.266 176.371 432.971 176.909 433.185C176.909 433.185 177.127 434.794 176.708 435.838C176.289 436.881 175.48 436.497 174.941 436.284C174.941 436.284 174.483 435.455 174.745 434.266Z" fill="white"/>
<path d="M338.953 78.7486C338.953 78.7486 337.309 79.9793 336.782 79.7385C336.782 79.7385 336.609 78.1044 337.053 77.0711C337.496 76.0377 338.286 76.4626 338.813 76.7034C338.813 76.7034 339.244 77.5604 338.953 78.7486Z" fill="white"/>
<path d="M122.856 285.793C122.856 285.793 121.304 286.384 121.02 287.051C121.02 287.051 121.449 288.44 122.103 288.809C122.757 289.178 123.162 288.129 123.446 287.461C123.446 287.461 123.457 286.419 122.856 285.793Z" fill="white"/>
<path d="M410.607 219.547C410.607 219.547 412.159 219.024 412.458 218.364C412.458 218.364 412.07 216.942 411.433 216.539C410.795 216.136 410.367 217.176 410.068 217.836C410.068 217.836 410.03 218.888 410.607 219.547Z" fill="white"/>
<path d="M237.117 98.274C237.117 98.274 237.217 96.265 237.674 95.7662C237.674 95.7662 238.863 95.9587 239.305 96.6608C239.747 97.3628 239.02 98.0961 238.563 98.5949C238.563 98.5949 237.748 98.8518 237.117 98.274Z" fill="white"/>
<path d="M268.267 414.932C268.267 414.932 268.115 416.955 267.649 417.437C267.649 417.437 266.477 417.186 266.058 416.457C265.64 415.728 266.379 415.022 266.845 414.54C266.845 414.54 267.658 414.319 268.267 414.932Z" fill="white"/>
<path d="M172.48 372.495C172.48 372.495 173.486 373.894 173.337 374.726C173.337 374.726 172.135 375.938 171.344 375.984C170.553 376.031 170.824 374.745 170.972 373.912C170.972 373.912 171.583 372.833 172.48 372.495Z" fill="white"/>
<path d="M339.546 141.2C339.546 141.2 338.589 139.741 338.758 138.908C338.758 138.908 339.979 137.741 340.763 137.731C341.547 137.721 341.246 139.007 341.076 139.84C341.076 139.84 340.443 140.901 339.546 141.2Z" fill="white"/>
<path d="M102.293 238.254C102.293 238.254 102.12 240.235 102.517 240.705C102.517 240.705 103.754 240.456 104.301 239.74C104.847 239.025 104.206 238.336 103.809 237.865C103.809 237.865 103.014 237.651 102.293 238.254Z" fill="white"/>
<path d="M429.688 268.492C429.688 268.492 429.912 266.501 429.531 266.007C429.531 266.007 428.3 266.2 427.74 266.897C427.181 267.594 427.796 268.32 428.177 268.813C428.177 268.813 428.958 269.066 429.688 268.492Z" fill="white"/>
<path d="M195.032 84.6052C195.032 84.6052 196.545 83.9331 197.007 84.3017C197.007 84.3017 197.101 85.852 196.668 86.6781C196.234 87.5042 195.544 86.8929 195.082 86.5243C195.082 86.5243 194.729 85.616 195.032 84.6052Z" fill="white"/>
<path d="M309.548 430.701C309.548 430.701 308.033 431.309 307.586 430.915C307.586 430.915 307.534 429.346 307.985 428.532C308.436 427.719 309.103 428.368 309.55 428.762C309.55 428.762 309.876 429.695 309.548 430.701Z" fill="white"/>
<path d="M160.323 168.792C160.323 168.792 158.967 168.429 158.376 168.911C158.376 168.911 157.799 170.534 157.991 171.293C158.183 172.051 159.086 171.268 159.677 170.786C159.677 170.786 160.323 169.77 160.323 168.792Z" fill="white"/>
<path d="M375.804 343.497C375.804 343.497 377.136 343.927 377.734 343.468C377.734 343.468 378.348 341.857 378.178 341.082C378.008 340.308 377.094 341.056 376.496 341.514C376.496 341.514 375.829 342.509 375.804 343.497Z" fill="white"/>
<path d="M197.382 412.802C197.382 412.802 196.027 412.439 195.435 412.921C195.435 412.921 194.858 414.544 195.051 415.302C195.243 416.061 196.145 415.278 196.736 414.796C196.736 414.796 197.383 413.78 197.382 412.802Z" fill="white"/>
<path d="M315.98 99.3507C315.98 99.3507 317.312 99.7807 317.909 99.3218C317.909 99.3218 318.524 97.7112 318.354 96.9365C318.184 96.1618 317.27 96.9096 316.672 97.3685C316.672 97.3685 316.005 98.3635 315.98 99.3507Z" fill="white"/>
<path d="M152.758 173.001C152.758 173.001 152.157 171.452 152.396 170.626C152.396 170.626 153.533 169.551 154.173 169.605C154.813 169.66 154.41 170.93 154.171 171.756C154.171 171.756 153.525 172.773 152.758 173.001Z" fill="white"/>
<path d="M383.402 339.604C383.402 339.604 383.956 341.196 383.697 342.018C383.697 342.018 382.543 343.05 381.911 342.965C381.279 342.88 381.712 341.616 381.971 340.794C381.971 340.794 382.637 339.798 383.402 339.604Z" fill="white"/>
<path d="M189.818 417.011C189.818 417.011 189.216 415.462 189.455 414.636C189.455 414.636 190.593 413.561 191.233 413.615C191.872 413.669 191.47 414.94 191.23 415.766C191.23 415.766 190.585 416.783 189.818 417.011Z" fill="white"/>
<path d="M323.578 95.4576C323.578 95.4576 324.132 97.0493 323.873 97.8714C323.873 97.8714 322.719 98.9033 322.087 98.8185C321.455 98.7336 321.888 97.4697 322.147 96.6477C322.147 96.6477 322.813 95.6516 323.578 95.4576Z" fill="white"/>
<path d="M99.6213 355.588C99.6213 355.588 98.81 353.732 99.0742 352.78C99.0742 352.78 100.444 351.593 101.241 351.698C102.039 351.803 101.59 353.267 101.326 354.22C101.326 354.22 100.565 355.37 99.6213 355.588Z" fill="white"/>
<path d="M411.321 162.047C411.321 162.047 412.077 163.729 411.827 164.555C411.827 164.555 410.541 165.528 409.794 165.392C409.047 165.255 409.471 163.988 409.721 163.161C409.721 163.161 410.436 162.187 411.321 162.047Z" fill="white"/>
</svg>
