<svg width="4190" height="4190" viewBox="0 0 4190 4190" fill="none" xmlns="http://www.w3.org/2000/svg">
<path d="M1505.32 3549.05C1505.12 3549.04 1504.91 3549.03 1504.71 3549.02C1502.9 3548.88 1492.62 3547.66 1475.05 3536.63C1464.66 3522.8 1480.28 3497.89 1496.57 3483.77C1507.01 3474.71 1518.51 3465.59 1530.42 3459.85C1565.09 3443.17 1617.57 3475.71 1601.19 3502.91C1589.41 3522.47 1564.2 3512.04 1550.07 3494.25C1537.44 3478.33 1601.75 3554.43 1505.32 3549.05Z" fill="#EBEBEB"/>
<path d="M2599.19 680.322C2599.38 680.342 2599.58 680.361 2599.77 680.385C2601.55 680.609 2611.61 682.353 2628.56 694.436C2638.32 708.925 2622.46 733.279 2606.14 746.876C2595.47 755.762 2583.68 764.652 2571.6 769.856C2536.98 784.782 2486.53 749.054 2503.74 722.284C2516 703.217 2540.06 714.894 2553.2 733.235C2566.87 752.307 2503.56 669.994 2599.19 680.322Z" fill="#EBEBEB"/>
<path d="M948.394 2630.35C948.481 2630.21 948.574 2630.07 948.661 2629.93C949.699 2628.31 957.062 2616.34 967.722 2587.87C970.153 2575.85 966.298 2569.43 959.854 2567.05C939.634 2559.59 908.23 2583.77 894.107 2604.1C868.55 2640.89 848.907 2705.45 873.083 2696.42C887.052 2691.2 893.752 2675.13 896.949 2661.68C921.05 2560.3 867.442 2756.56 948.394 2630.35Z" fill="#EBEBEB"/>
<path d="M3181.43 1556.04C3181.34 1556.17 3181.25 1556.3 3181.16 1556.43C3180.11 1558.02 3172.52 1569.81 3161.2 1598.24C3158.57 1609.89 3161.81 1616.54 3167.65 1619.46C3187.14 1629.2 3219.91 1605.01 3234.36 1584.91C3260.51 1548.53 3281.48 1484.07 3257.03 1492.72C3243.32 1497.58 3236.49 1513.02 3233.06 1526.14C3206.05 1629.31 3264.82 1431.53 3181.43 1556.04Z" fill="#EBEBEB"/>
<path d="M2149.82 820.091C2149.69 820.259 2149.56 820.44 2149.44 820.606C2148.15 822.346 2139.72 833.281 2118.67 851.188C2105.83 858.341 2099.23 849.719 2097.52 837.111C2094.75 816.82 2101.33 788.444 2113.22 768.501C2135.44 731.265 2186.27 691.641 2189.08 714.77C2191.18 732.05 2173.26 749.047 2158.85 757.811C2095.47 796.356 2234.8 704.101 2149.82 820.091Z" fill="#EBEBEB"/>
<path d="M1885.08 3419.73C1885.21 3419.56 1885.35 3419.38 1885.48 3419.21C1886.81 3417.48 1895.42 3406.79 1916.59 3389.66C1929.78 3382.84 1935.99 3392.63 1937.08 3406.09C1938.7 3426.27 1932.04 3453.52 1920.11 3473.04C1897.62 3509.82 1846.21 3548.14 1843.48 3525.25C1841.4 3507.78 1860.31 3490.55 1875.31 3482.04C1936.45 3447.36 1798.62 3532.83 1885.08 3419.73Z" fill="#EBEBEB"/>
<path d="M1013.05 2758.22C1002.31 2757.76 1001.19 2752.06 1009.34 2729.3C1061.23 2671.95 1037.83 2712.74 1029.69 2726.19C1028.54 2728.09 1029.64 2729.91 1031.55 2730.38C1044.7 2733.6 1027.64 2758.85 1027.64 2758.85C1011.75 2760.78 1023.8 2758.68 1013.05 2758.22Z" fill="#EBEBEB"/>
<path d="M3119.93 1423.73C3131.61 1424.83 3132.98 1430.44 3124.75 1452.02C3070.26 1504.17 3093.95 1466.81 3102.57 1454.02C3103.82 1452.16 3102.83 1450.18 3100.86 1449.69C3085.99 1445.98 3104.06 1422.23 3104.06 1422.23C3121.28 1421.33 3108.24 1422.62 3119.93 1423.73Z" fill="#EBEBEB"/>
<path d="M2267.52 872.2C2264.72 858.406 2259.94 857.682 2243.69 871.027C2210.53 943.611 2235.93 911.174 2245.28 898.393C2246.74 896.392 2248.73 896.657 2249.31 898.671C2254.58 916.896 2271.32 890.915 2271.32 890.915C2269.26 870.196 2270.32 885.993 2267.52 872.2Z" fill="#EBEBEB"/>
<path d="M1770.92 3360.98C1773.27 3375.13 1777.95 3376.1 1794.31 3363.34C1828.93 3291.38 1803.21 3322.8 1793.6 3335.38C1792.08 3337.37 1790.1 3337.07 1789.6 3335.02C1784.97 3316.16 1767.74 3341.77 1767.74 3341.77C1769.16 3362.93 1768.57 3346.82 1770.92 3360.98Z" fill="#EBEBEB"/>
<path d="M996.28 1463.09C1005.18 1449.4 1005.17 1443.25 994.605 1434.33C946.648 1449.15 963.899 1454.72 974.237 1456.49C976.521 1456.88 977.757 1460.03 976.536 1462.17C965.426 1481.69 984.203 1481.65 984.203 1481.65C997.794 1463.6 987.38 1476.77 996.28 1463.09Z" fill="#EBEBEB"/>
<path d="M3304.91 2629.3C3295.77 2642.77 3295.6 2649.01 3305.72 2658.6C3353.38 2645.89 3336.43 2639.37 3326.33 2637.08C3324.11 2636.57 3323.02 2633.34 3324.28 2631.22C3335.78 2611.92 3317.32 2611.03 3317.32 2611.03C3303.44 2628.7 3314.06 2615.83 3304.91 2629.3Z" fill="#EBEBEB"/>
<path d="M1300.78 1078.73C1291.29 1091.84 1286.23 1093.05 1276.78 1082.51C1279.43 1023.28 1287.53 1042.83 1291.02 1054.52C1291.77 1057.05 1294.54 1057.77 1296.07 1055.91C1309.94 1038.99 1313.66 1060.94 1313.66 1060.94C1301.51 1080.39 1310.27 1065.62 1300.78 1078.73Z" fill="#EBEBEB"/>
<path d="M2828.11 3172.91C2837.81 3160.05 2842.82 3159.07 2851.8 3170.25C2847.48 3230.48 2840.05 3209.93 2836.98 3197.89C2836.32 3195.32 2833.65 3194.5 2832.1 3196.31C2817.97 3212.86 2814.94 3190.36 2814.94 3190.36C2827.44 3171.19 2818.4 3185.77 2828.11 3172.91Z" fill="#EBEBEB"/>
<path d="M1155.47 2954.18C1163.57 2937.12 1180.14 2962.04 1193.71 2966.36C1205.13 3024.95 1176.31 3000.48 1166.07 2990.35C1164.5 2988.79 1161.42 2989.49 1160.27 2991.54C1146.33 3016.45 1125.23 2998.04 1125.23 2998.04C1134.97 2973.79 1147.38 2971.24 1155.47 2954.18Z" fill="#EBEBEB"/>
<path d="M2987.33 1216.79C2978.88 1233.72 2963.32 1207.59 2950.1 1202.53C2940.59 1142.5 2968.14 1168.66 2977.94 1179.49C2979.45 1181.15 2982.52 1180.61 2983.71 1178.58C2998.13 1153.98 3018.33 1173.72 3018.33 1173.72C3008.05 1197.88 2995.78 1199.85 2987.33 1216.79Z" fill="#EBEBEB"/>
<path d="M2519.22 911.898C2506.8 924.753 2530.61 939.104 2536.88 954.082C2588.3 955.736 2560.5 925.885 2550.53 916.501C2549.14 915.192 2549.36 911.884 2550.85 910.113C2568.68 888.855 2549.27 867.85 2549.27 867.85C2531.26 884.06 2531.64 899.044 2519.22 911.898Z" fill="#EBEBEB"/>
<path d="M1587.74 3224.7C1600.32 3212.25 1577.34 3196.49 1571.62 3180.96C1520.98 3176.74 1547.73 3208.62 1557.18 3218.56C1558.48 3219.93 1558.13 3223.21 1556.61 3224.95C1538.46 3245.67 1556.93 3267.97 1556.93 3267.97C1575.1 3252.39 1575.16 3237.14 1587.74 3224.7Z" fill="#EBEBEB"/>
<path d="M935.713 1771.32C925.914 1766.42 919.38 1804.23 910.387 1822.35C915.482 1884.5 932.476 1825.46 936.814 1809.03C937.333 1807.07 939.637 1806.22 941.629 1806.61C956.963 1809.67 967.829 1773.72 967.829 1773.72C955.196 1764.85 945.512 1776.22 935.713 1771.32Z" fill="#EBEBEB"/>
<path d="M3373.39 2319.1C3382.88 2324.55 3390.4 2286.46 3399.76 2268.5C3396.56 2205.09 3378.14 2264.26 3373.4 2280.73C3372.84 2282.7 3370.55 2283.44 3368.6 2282.94C3353.62 2279.09 3341.9 2315.07 3341.9 2315.07C3354.06 2324.71 3363.9 2313.64 3373.39 2319.1Z" fill="#EBEBEB"/>
<path d="M1542.35 946.516C1536.36 936.061 1566.17 920.887 1579.28 906.777C1631.18 900.344 1586.71 931.61 1573.8 940.142C1572.2 941.199 1571.76 944 1572.47 946.059C1578.48 963.412 1550.74 983.509 1550.74 983.509C1540.92 970.54 1548.33 956.972 1542.35 946.516Z" fill="#EBEBEB"/>
<path d="M2586.88 3295.35C2592.46 3306.27 2562.72 3320.22 2549.43 3333.91C2498.29 3337.89 2542.76 3308.38 2555.74 3300.31C2557.36 3299.3 2557.92 3296.48 2557.28 3294.39C2551.8 3276.45 2579.71 3257.35 2579.71 3257.35C2588.98 3271.01 2581.3 3284.44 2586.88 3295.35Z" fill="#EBEBEB"/>
<path d="M919.472 3019.82C927.569 3002.75 944.133 3027.67 957.711 3031.99C969.13 3090.58 940.307 3066.12 930.063 3055.98C928.495 3054.43 925.412 3055.12 924.263 3057.18C910.331 3082.08 889.226 3063.67 889.226 3063.67C898.969 3039.42 911.375 3036.88 919.472 3019.82Z" fill="#EBEBEB"/>
<path d="M3221.17 1161.73C3212.72 1178.67 3197.16 1152.53 3183.95 1147.47C3174.44 1087.44 3201.98 1113.6 3211.78 1124.43C3213.29 1126.09 3216.36 1125.55 3217.55 1123.52C3231.97 1098.92 3252.17 1118.66 3252.17 1118.66C3241.89 1142.82 3229.62 1144.79 3221.17 1161.73Z" fill="#EBEBEB"/>
<path d="M2464.49 708.636C2452.06 721.491 2475.87 735.842 2482.14 750.821C2533.57 752.474 2505.76 722.623 2495.8 713.24C2494.41 711.931 2494.63 708.622 2496.11 706.851C2513.95 685.593 2494.53 664.588 2494.53 664.588C2476.52 680.799 2476.91 695.782 2464.49 708.636Z" fill="#EBEBEB"/>
<path d="M1572.6 3517.46C1585.18 3505.01 1562.2 3489.26 1556.47 3473.73C1505.84 3469.5 1532.58 3501.39 1542.04 3511.32C1543.34 3512.69 1542.98 3515.98 1541.46 3517.71C1523.32 3538.43 1541.79 3560.74 1541.79 3560.74C1559.96 3545.15 1560.02 3529.91 1572.6 3517.46Z" fill="#EBEBEB"/>
<path d="M1123.83 1568.95C1114.03 1564.05 1107.49 1601.85 1098.5 1619.97C1103.59 1682.12 1120.59 1623.08 1124.93 1606.66C1125.45 1604.69 1127.75 1603.84 1129.74 1604.24C1145.07 1607.29 1155.94 1571.35 1155.94 1571.35C1143.31 1562.48 1133.62 1573.84 1123.83 1568.95Z" fill="#EBEBEB"/>
<path d="M3182.64 2515.45C3192.13 2520.91 3199.65 2482.82 3209.01 2464.85C3205.81 2401.45 3187.39 2460.62 3182.65 2477.09C3182.09 2479.05 3179.8 2479.8 3177.85 2479.3C3162.87 2475.44 3151.15 2511.43 3151.15 2511.43C3163.31 2521.06 3173.15 2510 3182.64 2515.45Z" fill="#EBEBEB"/>
<path d="M1413.38 1206.41C1407.39 1195.96 1437.2 1180.78 1450.31 1166.67C1502.21 1160.24 1457.74 1191.5 1444.83 1200.04C1443.23 1201.09 1442.79 1203.89 1443.5 1205.95C1449.51 1223.31 1421.77 1243.4 1421.77 1243.4C1411.95 1230.43 1419.36 1216.87 1413.38 1206.41Z" fill="#EBEBEB"/>
<path d="M2721.18 3037.64C2726.76 3048.56 2697.02 3062.5 2683.72 3076.2C2632.59 3080.17 2677.06 3050.66 2690.04 3042.59C2691.66 3041.58 2692.22 3038.77 2691.58 3036.67C2686.1 3018.73 2714.01 2999.64 2714.01 2999.64C2723.28 3013.3 2715.6 3026.72 2721.18 3037.64Z" fill="#EBEBEB"/>
<path d="M1403.46 3266.64C1391.02 3266.11 1418.47 3224.69 1426.74 3201.6C1485.99 3141.38 1446.71 3212.86 1436.73 3230.38C1435.68 3232.23 1436.77 3233.95 1438.58 3234.46C1455.07 3239.12 1432.35 3282.02 1432.35 3282.02C1414.09 3283.89 1415.9 3267.17 1403.46 3266.64Z" fill="#EBEBEB"/>
<path d="M2753.72 888.722C2765.32 889.819 2738.35 929.028 2729.88 951.219C2672.75 1007.21 2711.42 939.596 2721.42 922.74C2722.5 920.921 2721.43 919.138 2719.67 918.469C2704.86 912.834 2727.25 872.345 2727.25 872.345C2744.36 871.363 2742.13 887.626 2753.72 888.722Z" fill="#EBEBEB"/>
<path d="M823.724 2287.3C832.739 2273.44 803.994 2270.63 793.131 2261.45C740.467 2277.26 775.998 2290.24 789.518 2294.19C791.596 2294.79 792.525 2297.66 791.447 2299.69C779.876 2321.41 805.726 2330.59 805.726 2330.59C819.511 2312.32 814.708 2301.16 823.724 2287.3Z" fill="#EBEBEB"/>
<path d="M3498.44 1800.34C3489.18 1813.98 3517.35 1818.25 3527.76 1828.11C3580.04 1814.63 3545.35 1799.66 3532.21 1795.01C3530.21 1794.3 3529.4 1791.35 3530.52 1789.35C3542.53 1767.85 3517.39 1757.24 3517.39 1757.24C3503.31 1775.12 3507.71 1786.7 3498.44 1800.34Z" fill="#EBEBEB"/>
<path d="M1904.2 657.992C1894.6 671.279 1886.54 638.3 1876.82 627.459C1879.32 562.634 1897.22 601.986 1903.1 616.86C1903.99 619.106 1906.49 619.539 1907.94 617.873C1923.51 600.005 1936.23 628.347 1936.23 628.347C1923.95 648.079 1913.81 644.705 1904.2 657.992Z" fill="#EBEBEB"/>
<path d="M2184.79 3512.99C2194.61 3499.96 2201.57 3533.87 2210.81 3545.37C2206.46 3611.23 2189.96 3570.1 2184.65 3554.76C2183.85 3552.46 2181.43 3551.94 2179.96 3553.56C2164.13 3570.97 2152.45 3541.53 2152.45 3541.53C2165.09 3522.09 2174.96 3526.02 2184.79 3512.99Z" fill="#EBEBEB"/>
<path d="M1184.89 1437.4C1188.78 1448.05 1214.12 1408.54 1230.21 1392.66C1261.46 1318.83 1216.24 1378.71 1204.7 1394.47C1203.42 1396.22 1201.58 1395.87 1200.53 1394.41C1191.99 1382.57 1164.55 1417.99 1164.55 1417.99C1168.16 1434.61 1180.99 1426.75 1184.89 1437.4Z" fill="#EBEBEB"/>
<path d="M3156.9 2703.8C3153.38 2692.79 3127.33 2731.67 3111.05 2747.02C3078.24 2820.42 3124.29 2762.01 3136.14 2746.49C3137.47 2744.76 3139.28 2745.14 3140.24 2746.66C3148.25 2759.24 3176.32 2724.52 3176.32 2724.52C3173.25 2707.45 3160.42 2714.81 3156.9 2703.8Z" fill="#EBEBEB"/>
<path d="M1264.15 1267.76C1273.69 1270.18 1246.24 1307.63 1236.38 1329.58C1181.56 1381.07 1222.58 1315.31 1232.96 1299.17C1234.07 1297.45 1233.04 1295.49 1231.55 1294.35C1220.94 1286.18 1244.12 1247.91 1244.12 1247.91C1258.52 1248.8 1254.61 1265.33 1264.15 1267.76Z" fill="#EBEBEB"/>
<path d="M3074.07 2872.26C3064.77 2869.33 3092.83 2832.63 3103.16 2810.81C3158.55 2761.18 3116.29 2826.02 3105.63 2841.89C3104.49 2843.59 3105.47 2845.62 3106.9 2846.87C3117.04 2855.72 3093.19 2893.41 3093.19 2893.41C3079.06 2891.8 3083.38 2875.19 3074.07 2872.26Z" fill="#EBEBEB"/>
<path d="M1056.62 3207.47C1056.62 3207.47 1055.97 3209.29 1052.44 3219.15C1052.44 3219.15 1044.82 3232.43 1051.19 3232.7C1057.56 3232.97 1062.68 3217.74 1066.21 3207.88C1066.21 3207.88 1064.64 3202.68 1056.62 3207.47Z" fill="#EBEBEB"/>
<path d="M3093.61 963.914C3093.61 963.914 3094.34 962.013 3098.26 951.722C3098.26 951.722 3107.54 938.121 3098.63 937.279C3089.72 936.437 3084.13 952.356 3080.2 962.646C3080.2 962.646 3082.91 968.369 3093.61 963.914Z" fill="#EBEBEB"/>
<path d="M902.856 2840.19C902.856 2840.19 902.203 2842.01 898.673 2851.87C898.673 2851.87 891.057 2865.14 897.427 2865.42C903.797 2865.69 908.916 2850.46 912.446 2840.6C912.446 2840.6 910.877 2835.39 902.856 2840.19Z" fill="#EBEBEB"/>
<path d="M3233.89 1346.4C3233.89 1346.4 3234.61 1344.5 3238.54 1334.21C3238.54 1334.21 3247.81 1320.61 3238.91 1319.77C3230 1318.93 3224.4 1334.84 3220.48 1345.13C3220.48 1345.13 3223.19 1350.86 3233.89 1346.4Z" fill="#EBEBEB"/>
<path d="M2312 723.418C2312 723.418 2313.43 722.243 2321.18 715.88C2321.18 715.88 2330.75 702.583 2332.88 713.096C2335.01 723.609 2322.96 732.883 2315.21 739.246C2315.21 739.246 2310.11 736.931 2312 723.418Z" fill="#EBEBEB"/>
<path d="M1722.88 3509.96C1722.88 3509.96 1721.44 3511.08 1713.65 3517.16C1713.65 3517.16 1703.85 3530.2 1702.06 3519.41C1700.27 3508.63 1712.39 3499.8 1720.19 3493.72C1720.19 3493.72 1725.14 3496.32 1722.88 3509.96Z" fill="#EBEBEB"/>
<path d="M1065.22 1868.16C1065.22 1868.16 1066.15 1868.95 1071.18 1873.2C1071.18 1873.2 1080.36 1875.39 1075.08 1883.5C1069.81 1891.61 1062.31 1884.63 1057.27 1880.37C1057.27 1880.37 1057.49 1873.89 1065.22 1868.16Z" fill="#EBEBEB"/>
<path d="M3248.94 2214.32C3248.94 2214.32 3248.04 2213.47 3243.22 2208.9C3243.22 2208.9 3234.26 2206.22 3239.68 2198.24C3245.1 2190.26 3252.27 2197.72 3257.1 2202.3C3257.1 2202.3 3256.7 2208.88 3248.94 2214.32Z" fill="#EBEBEB"/>
<path d="M1647.9 1078.28C1647.9 1078.28 1648.73 1079.2 1653.24 1084.23C1653.24 1084.23 1656.87 1094.5 1662.49 1086.73C1668.11 1078.95 1660.87 1071.6 1656.36 1066.57C1656.36 1066.57 1651.07 1068.12 1647.9 1078.28Z" fill="#EBEBEB"/>
<path d="M2486.97 3156.27C2486.97 3156.27 2486.18 3155.29 2481.9 3149.96C2481.9 3149.96 2478.63 3139.34 2472.88 3146.97C2467.13 3154.59 2474.03 3162.42 2478.32 3167.75C2478.32 3167.75 2483.56 3166.44 2486.97 3156.27Z" fill="#EBEBEB"/>
<path d="M1287.57 1553.54C1287.57 1553.54 1288.5 1554.33 1293.53 1558.58C1293.53 1558.58 1302.71 1560.77 1297.43 1568.88C1292.16 1576.99 1284.66 1570.01 1279.62 1565.75C1279.62 1565.75 1279.84 1559.27 1287.57 1553.54Z" fill="#EBEBEB"/>
<path d="M3059.36 2580.73C3059.36 2580.73 3058.47 2579.89 3053.65 2575.31C3053.65 2575.31 3044.69 2572.64 3050.11 2564.66C3055.53 2556.67 3062.7 2564.14 3067.53 2568.71C3067.53 2568.71 3067.12 2575.29 3059.36 2580.73Z" fill="#EBEBEB"/>
<path d="M1410.51 3498.96C1410.51 3498.96 1411.45 3499.75 1416.48 3504C1416.48 3504 1425.66 3506.19 1420.38 3514.3C1415.11 3522.41 1407.61 3515.43 1402.57 3511.17C1402.57 3511.17 1402.79 3504.69 1410.51 3498.96Z" fill="#EBEBEB"/>
<path d="M2752.51 650.684C2752.51 650.684 2751.62 649.839 2746.79 645.266C2746.79 645.266 2737.84 642.592 2743.26 634.609C2748.68 626.626 2755.85 634.093 2760.67 638.665C2760.67 638.665 2760.27 645.245 2752.51 650.684Z" fill="#EBEBEB"/>
<path d="M1380.22 1364.37C1380.22 1364.37 1381.06 1365.3 1385.56 1370.33C1385.56 1370.33 1389.2 1380.6 1394.82 1372.82C1400.44 1365.05 1393.19 1357.69 1388.69 1352.66C1388.69 1352.66 1383.39 1354.21 1380.22 1364.37Z" fill="#EBEBEB"/>
<path d="M2962.81 2768.37C2962.81 2768.37 2962.02 2767.39 2957.73 2762.06C2957.73 2762.06 2954.46 2751.44 2948.71 2759.07C2942.96 2766.69 2949.86 2774.52 2954.15 2779.85C2954.15 2779.85 2959.4 2778.54 2962.81 2768.37Z" fill="#EBEBEB"/>
<path d="M1333.87 3349.17C1333.87 3349.17 1332.71 3348.8 1326.41 3346.8C1326.41 3346.8 1320.61 3338.27 1314.39 3351.38C1308.17 3364.48 1318.21 3366.9 1324.51 3368.9C1324.51 3368.9 1331.03 3362.98 1333.87 3349.17Z" fill="#EBEBEB"/>
<path d="M2823.49 806.655C2823.49 806.655 2824.62 807.089 2830.75 809.437C2830.75 809.437 2836.2 818.386 2842.69 805.376C2849.18 792.367 2839.39 789.417 2833.26 787.07C2833.26 787.07 2826.67 792.768 2823.49 806.655Z" fill="#EBEBEB"/>
<path d="M1189.31 3422.72C1189.31 3422.72 1188.15 3422.35 1181.85 3420.34C1181.85 3420.34 1176.05 3411.81 1169.83 3424.92C1163.61 3438.02 1173.65 3440.44 1179.94 3442.45C1179.94 3442.45 1186.47 3436.52 1189.31 3422.72Z" fill="#EBEBEB"/>
<path d="M2967.69 739.053C2967.69 739.053 2968.82 739.486 2974.95 741.834C2974.95 741.834 2980.4 750.783 2986.89 737.774C2993.39 724.764 2983.6 721.814 2977.47 719.467C2977.47 719.467 2970.88 725.165 2967.69 739.053Z" fill="#EBEBEB"/>
<path d="M893.959 2279.76C893.959 2279.76 894.73 2278.2 898.9 2269.8C898.9 2269.8 901.229 2256.73 908.756 2260.49C916.284 2264.25 909.462 2277.02 905.292 2285.42C905.292 2285.42 899.16 2287.73 893.959 2279.76Z" fill="#EBEBEB"/>
<path d="M3429.2 1804.54C3429.2 1804.54 3428.4 1806.08 3424.05 1814.41C3424.05 1814.41 3421.39 1827.59 3414.1 1823.39C3406.81 1819.2 3413.88 1806.56 3418.23 1798.23C3418.23 1798.23 3424.32 1796.18 3429.2 1804.54Z" fill="#EBEBEB"/>
<path d="M1912.02 741.447C1912.02 741.447 1910.9 742.656 1904.81 749.199C1904.81 749.199 1894.52 754.528 1899.12 762.559C1903.72 770.591 1912.86 760.082 1918.94 753.539C1918.94 753.539 1919.62 745.923 1912.02 741.447Z" fill="#EBEBEB"/>
<path d="M2179.53 3427.81C2179.53 3427.81 2180.67 3426.64 2186.83 3420.29C2186.83 3420.29 2197.11 3415.38 2192.82 3407C2188.53 3398.61 2179.24 3408.84 2173.08 3415.18C2173.08 3415.18 2172.19 3422.89 2179.53 3427.81Z" fill="#EBEBEB"/>
<path d="M1302.37 3247.26C1302.37 3247.26 1302.87 3245.36 1305.58 3235.11C1305.58 3235.11 1313.52 3220.56 1303.88 3221.98C1294.24 3223.41 1290.57 3239.15 1287.86 3249.4C1287.86 3249.4 1291.59 3253.9 1302.37 3247.26Z" fill="#EBEBEB"/>
<path d="M2851.48 911.761C2851.48 911.761 2850.93 913.661 2847.97 923.944C2847.97 923.944 2839.74 938.339 2849.26 937.367C2858.77 936.395 2862.85 920.581 2865.8 910.297C2865.8 910.297 2862.27 905.54 2851.48 911.761Z" fill="#EBEBEB"/>
<path d="M894.062 2164.26C894.062 2164.26 893.267 2163.29 888.963 2158.02C888.963 2158.02 879.842 2154.96 887.243 2145.69C894.643 2136.42 900.9 2145.03 905.203 2150.31C905.203 2150.31 903.483 2157.93 894.062 2164.26Z" fill="#EBEBEB"/>
<path d="M3425.74 1921.89C3425.74 1921.89 3426.5 1922.92 3430.57 1928.49C3430.57 1928.49 3439.45 1932.04 3431.91 1941.1C3424.36 1950.15 3418.46 1941.09 3414.39 1935.52C3414.39 1935.52 3416.3 1927.86 3425.74 1921.89Z" fill="#EBEBEB"/>
<path d="M1817 764.628C1817 764.628 1816.04 763.895 1810.84 759.927C1810.84 759.927 1806.51 749.895 1800.36 760.381C1794.2 770.867 1802.54 776.447 1807.74 780.415C1807.74 780.415 1813.67 776.885 1817 764.628Z" fill="#EBEBEB"/>
<path d="M2273.58 3408.94C2273.58 3408.94 2274.5 3409.73 2279.5 3414.02C2279.5 3414.02 2283.47 3424.42 2289.82 3414.07C2296.17 3403.72 2288.14 3397.64 2283.14 3393.35C2283.14 3393.35 2277.21 3396.65 2273.58 3408.94Z" fill="#EBEBEB"/>
<path d="M1227.27 1518.71C1227.27 1518.71 1228.69 1517.51 1236.38 1511.03C1236.38 1511.03 1246.16 1498.24 1247.67 1507.23C1249.17 1516.22 1237.23 1525.76 1229.54 1532.25C1229.54 1532.25 1224.79 1530.8 1227.27 1518.71Z" fill="#EBEBEB"/>
<path d="M3117.61 2619.09C3117.61 2619.09 3116.18 2620.24 3108.43 2626.45C3108.43 2626.45 3098.45 2638.96 3097.23 2629.75C3096.01 2620.55 3108.03 2611.44 3115.77 2605.23C3115.77 2605.23 3120.39 2606.93 3117.61 2619.09Z" fill="#EBEBEB"/>
<path d="M1339.52 1300.97C1339.52 1300.97 1338.82 1302.87 1335.02 1313.14C1335.02 1313.14 1326.45 1327.1 1334.15 1327.06C1341.84 1327.03 1347.31 1311.19 1351.11 1300.92C1351.11 1300.92 1348.98 1295.67 1339.52 1300.97Z" fill="#EBEBEB"/>
<path d="M3000.96 2834.8C3000.96 2834.8 3001.71 2832.91 3005.74 2822.66C3005.74 2822.66 3014.57 2808.9 3007.01 2808.55C2999.44 2808.21 2993.61 2824.04 2989.57 2834.28C2989.57 2834.28 2991.52 2839.72 3000.96 2834.8Z" fill="#EBEBEB"/>
<path d="M1152.91 3011.82C1152.91 3011.82 1152.25 3013.64 1148.72 3023.5C1148.72 3023.5 1139.7 3036.71 1149.25 3037.12C1158.81 3037.53 1163.76 3022.29 1167.29 3012.43C1167.29 3012.43 1164.03 3007.16 1152.91 3011.82Z" fill="#EBEBEB"/>
<path d="M2988.91 1160.79C2988.91 1160.79 2989.63 1158.89 2993.56 1148.6C2993.56 1148.6 3002.84 1134.99 2993.93 1134.15C2985.02 1133.31 2979.42 1149.23 2975.5 1159.52C2975.5 1159.52 2978.21 1165.24 2988.91 1160.79Z" fill="#EBEBEB"/>
<path d="M2564.58 900.917C2564.58 900.917 2566.01 899.742 2573.75 893.379C2573.75 893.379 2583.32 880.082 2585.46 890.595C2587.59 901.108 2575.53 910.382 2567.79 916.745C2567.79 916.745 2562.68 914.429 2564.58 900.917Z" fill="#EBEBEB"/>
<path d="M1542.85 3233.62C1542.85 3233.62 1541.41 3234.74 1533.61 3240.82C1533.61 3240.82 1523.82 3253.86 1522.03 3243.08C1520.24 3232.29 1532.36 3223.46 1540.15 3217.38C1540.15 3217.38 1545.1 3219.98 1542.85 3233.62Z" fill="#EBEBEB"/>
<path d="M946.367 1818.14C946.367 1818.14 947.298 1818.93 952.335 1823.19C952.335 1823.19 961.512 1825.37 956.236 1833.49C950.96 1841.6 943.461 1834.61 938.424 1830.36C938.424 1830.36 938.64 1823.87 946.367 1818.14Z" fill="#EBEBEB"/>
<path d="M3364.28 2270.99C3364.28 2270.99 3363.39 2270.15 3358.56 2265.58C3358.56 2265.58 3349.61 2262.9 3355.03 2254.92C3360.45 2246.94 3367.62 2254.4 3372.44 2258.98C3372.44 2258.98 3372.04 2265.56 3364.28 2270.99Z" fill="#EBEBEB"/>
<path d="M1583.01 949.596C1583.01 949.596 1583.84 950.525 1588.35 955.552C1588.35 955.552 1591.98 965.823 1597.6 958.047C1603.22 950.271 1595.98 942.916 1591.47 937.888C1591.47 937.888 1586.18 939.436 1583.01 949.596Z" fill="#EBEBEB"/>
<path d="M2547.01 3290.22C2547.01 3290.22 2546.22 3289.24 2541.93 3283.91C2541.93 3283.91 2538.66 3273.29 2532.91 3280.91C2527.16 3288.54 2534.07 3296.37 2538.35 3301.7C2538.35 3301.7 2543.6 3300.39 2547.01 3290.22Z" fill="#EBEBEB"/>
<path d="M1009.54 3320.08C1009.54 3320.08 1004.45 3324.23 1005.99 3319.93C1005.99 3319.93 1005.26 3313.97 1011.63 3314.24C1014.4 3314.36 1015.45 3315.68 1015.63 3317.48C1015.66 3317.75 1009.79 3320.19 1009.54 3320.08V3320.08Z" fill="#EBEBEB"/>
<path d="M3142.91 852.347C3142.91 852.347 3148.36 847.053 3146.22 852.659C3146.22 852.659 3145.95 860.521 3140.01 859.96C3136.91 859.667 3136.41 857.176 3136.94 854.065C3136.98 853.837 3142.74 852.22 3142.91 852.347V852.347Z" fill="#EBEBEB"/>
<path d="M856.685 2950.25C856.685 2950.25 850.827 2956.55 853.136 2950.1C853.136 2950.1 853.449 2941.22 859.819 2941.5C863.227 2941.64 863.699 2944.55 863.047 2948.21C863.005 2948.45 856.864 2950.38 856.685 2950.25V2950.25Z" fill="#EBEBEB"/>
<path d="M3283.19 1234.84C3283.19 1234.84 3288.63 1229.54 3286.5 1235.15C3286.5 1235.15 3286.22 1243.01 3280.28 1242.45C3277.18 1242.16 3276.68 1239.66 3277.22 1236.55C3277.26 1236.33 3283.01 1234.71 3283.19 1234.84V1234.84Z" fill="#EBEBEB"/>
<path d="M2394.87 646.375C2394.87 646.375 2398.3 639.004 2394.08 642.47C2394.08 642.47 2387.72 644.074 2389.14 651.083C2389.79 654.265 2391.47 654.825 2393.5 654.163C2393.77 654.078 2395.03 646.597 2394.87 646.375V646.375Z" fill="#EBEBEB"/>
<path d="M1639.2 3584.16C1639.2 3584.16 1635.62 3591.48 1639.87 3588.16C1639.87 3588.16 1646.16 3586.85 1644.97 3579.65C1644.44 3576.46 1642.86 3575.77 1640.9 3576.27C1640.63 3576.34 1639.05 3583.92 1639.2 3584.16V3584.16Z" fill="#EBEBEB"/>
<path d="M1125.65 1906.07C1125.65 1906.07 1131.34 1903.87 1128.59 1901.55C1128.59 1901.55 1127.2 1894.81 1121.93 1902.92C1120.85 1904.58 1120.18 1906.03 1119.82 1907.32C1119.62 1908.02 1125.38 1906.73 1125.65 1906.07V1906.07Z" fill="#EBEBEB"/>
<path d="M3190.64 2172.82C3190.64 2172.82 3184.99 2174.78 3187.62 2177.27C3187.62 2177.27 3188.79 2184.19 3194.21 2176.2C3195.34 2174.54 3196.04 2173.08 3196.43 2171.78C3196.64 2171.08 3190.93 2172.16 3190.64 2172.82V2172.82Z" fill="#EBEBEB"/>
<path d="M1691.16 1141.22C1691.16 1141.22 1690.48 1148.29 1688.03 1145.55C1688.03 1145.55 1682.2 1145.28 1687.82 1137.5C1689.03 1135.84 1690.13 1134.74 1691.15 1134.08C1691.68 1133.73 1691.64 1140.78 1691.16 1141.22V1141.22Z" fill="#EBEBEB"/>
<path d="M2446.29 3090.19C2446.29 3090.19 2447.16 3083.03 2449.49 3085.94C2449.49 3085.94 2455.21 3086.5 2449.46 3094.13C2448.2 3095.8 2447.06 3096.87 2446.02 3097.49C2445.49 3097.81 2445.81 3090.6 2446.29 3090.19V3090.19Z" fill="#EBEBEB"/>
<path d="M1348 1591.45C1348 1591.45 1353.69 1589.25 1350.94 1586.93C1350.94 1586.93 1349.55 1580.18 1344.28 1588.3C1343.2 1589.96 1342.53 1591.41 1342.17 1592.69C1341.97 1593.4 1347.73 1592.11 1348 1591.45V1591.45Z" fill="#EBEBEB"/>
<path d="M3001.07 2539.24C3001.07 2539.24 2995.42 2541.19 2998.05 2543.69C2998.05 2543.69 2999.22 2550.6 3004.64 2542.62C3005.77 2540.96 3006.47 2539.5 3006.86 2538.2C3007.07 2537.5 3001.36 2538.58 3001.07 2539.24V2539.24Z" fill="#EBEBEB"/>
<path d="M1470.95 3536.87C1470.95 3536.87 1476.64 3534.67 1473.89 3532.35C1473.89 3532.35 1472.5 3525.61 1467.23 3533.72C1466.14 3535.38 1465.47 3536.83 1465.12 3538.11C1464.92 3538.82 1470.68 3537.53 1470.95 3536.87V3536.87Z" fill="#EBEBEB"/>
<path d="M2694.22 609.188C2694.22 609.188 2688.57 611.144 2691.2 613.636C2691.2 613.636 2692.37 620.554 2697.79 612.571C2698.92 610.912 2699.62 609.449 2700.01 608.15C2700.22 607.45 2694.5 608.53 2694.22 609.188V609.188Z" fill="#EBEBEB"/>
<path d="M1423.48 1427.32C1423.48 1427.32 1422.81 1434.39 1420.35 1431.65C1420.35 1431.65 1414.53 1431.37 1420.15 1423.6C1421.35 1421.93 1422.46 1420.84 1423.48 1420.17C1424.01 1419.82 1423.97 1426.88 1423.48 1427.32V1427.32Z" fill="#EBEBEB"/>
<path d="M2922.12 2702.29C2922.12 2702.29 2922.99 2695.13 2925.32 2698.04C2925.32 2698.04 2931.04 2698.6 2925.29 2706.23C2924.03 2707.9 2922.89 2708.97 2921.85 2709.59C2921.32 2709.91 2921.64 2702.7 2922.12 2702.29V2702.29Z" fill="#EBEBEB"/>
<path d="M1546.43 3372.74C1546.43 3372.74 1545.76 3379.81 1543.3 3377.07C1543.3 3377.07 1537.48 3376.79 1543.1 3369.02C1544.3 3367.35 1545.41 3366.26 1546.43 3365.59C1546.96 3365.24 1546.92 3372.3 1546.43 3372.74V3372.74Z" fill="#EBEBEB"/>
<path d="M2615.27 772.237C2615.27 772.237 2616.14 765.085 2618.47 767.989C2618.47 767.989 2624.19 768.556 2618.44 776.18C2617.18 777.849 2616.04 778.919 2615 779.542C2614.47 779.857 2614.79 772.656 2615.27 772.237V772.237Z" fill="#EBEBEB"/>
<path d="M1240.08 3542.74C1240.08 3542.74 1238.96 3536.78 1242.39 3537.87C1242.39 3537.87 1248.89 3535.48 1244.74 3544.22C1243.89 3546.02 1243 3547.35 1242.09 3548.33C1241.59 3548.87 1239.66 3543.32 1240.08 3542.74V3542.74Z" fill="#EBEBEB"/>
<path d="M2921.28 614.602C2921.28 614.602 2922.21 620.713 2918.87 619.434C2918.87 619.434 2912.41 621.539 2916.74 612.866C2917.62 611.105 2918.53 609.801 2919.44 608.852C2919.94 608.326 2921.72 614.028 2921.28 614.602V614.602Z" fill="#EBEBEB"/>
<path d="M1006.55 2333.24C1006.55 2333.24 1006.02 2327.26 1003.75 2331.84C1003.75 2331.84 998.445 2336.94 1003.46 2339.45C1005.98 2340.71 1008.05 2339.53 1009.77 2337.47C1009.92 2337.29 1006.79 2333.24 1006.55 2333.24V2333.24Z" fill="#EBEBEB"/>
<path d="M3320.1 1744.66C3320.1 1744.66 3320.45 1750.75 3322.81 1746.21C3322.81 1746.21 3328.18 1741.29 3323.32 1738.49C3320.88 1737.09 3318.81 1738.19 3317.06 1740.2C3316.9 1740.38 3319.87 1744.64 3320.1 1744.66V1744.66Z" fill="#EBEBEB"/>
<path d="M1978.51 862.132C1978.51 862.132 1973.49 862.714 1976.8 859.149C1976.8 859.149 1979.94 851.937 1983.01 857.291C1984.43 859.773 1984.06 862.227 1982.92 864.501C1982.79 864.774 1978.57 862.436 1978.51 862.132V862.132Z" fill="#EBEBEB"/>
<path d="M2117.69 3301.91C2117.69 3301.91 2122.64 3301.56 2119.28 3305.02C2119.28 3305.02 2115.98 3312.2 2113.13 3306.6C2111.82 3304.06 2112.22 3301.62 2113.36 3299.4C2113.51 3299.11 2117.64 3301.59 2117.69 3301.91V3301.91Z" fill="#EBEBEB"/>
<path d="M1282.59 3066.17C1282.59 3066.17 1281.47 3060.21 1284.9 3061.31C1284.9 3061.31 1291.4 3058.92 1287.25 3067.66C1286.4 3069.45 1285.51 3070.79 1284.6 3071.77C1284.1 3072.31 1282.17 3066.76 1282.59 3066.17V3066.17Z" fill="#EBEBEB"/>
<path d="M2865.65 1096.73C2865.65 1096.73 2866.58 1102.84 2863.24 1101.56C2863.24 1101.56 2856.79 1103.67 2861.12 1094.99C2862 1093.23 2862.9 1091.93 2863.81 1090.98C2864.32 1090.45 2866.09 1096.15 2865.65 1096.73V1096.73Z" fill="#EBEBEB"/>
<path d="M867.676 1998.13C867.676 1998.13 867.152 1992.15 864.881 1996.73C864.881 1996.73 859.573 2001.84 864.591 2004.34C867.104 2005.6 869.173 2004.42 870.897 2002.36C871.05 2002.18 867.915 1998.13 867.676 1998.13V1998.13Z" fill="#EBEBEB"/>
<path d="M3446.85 2091.99C3446.85 2091.99 3447.19 2098.09 3449.55 2093.55C3449.55 2093.55 3454.92 2088.63 3450.06 2085.83C3447.62 2084.43 3445.55 2085.53 3443.8 2087.54C3443.64 2087.72 3446.61 2091.98 3446.85 2091.99V2091.99Z" fill="#EBEBEB"/>
<path d="M1675.02 767.018C1675.02 767.018 1670 767.599 1673.31 764.035C1673.31 764.035 1676.46 756.822 1679.52 762.177C1680.94 764.659 1680.57 767.113 1679.44 769.386C1679.3 769.659 1675.08 767.321 1675.02 767.018V767.018Z" fill="#EBEBEB"/>
<path d="M2413.18 3413.51C2413.18 3413.51 2418.14 3413.16 2414.78 3416.62C2414.78 3416.62 2411.48 3423.79 2408.62 3418.2C2407.32 3415.65 2407.72 3413.22 2408.86 3411C2409 3410.71 2413.14 3413.19 2413.18 3413.51V3413.51Z" fill="#EBEBEB"/>
<path d="M1194.56 3295.28C1194.56 3295.28 1163.01 3322.95 1179.94 3275.66C1179.94 3275.66 1188.88 3210.85 1220.6 3212.2C1248.52 3213.4 1230.35 3270.04 1214.05 3315.84C1212.91 3319.06 1208.83 3319.6 1207.91 3316.84C1206 3311.11 1202.07 3303.92 1194.56 3295.28Z" fill="#EBEBEB"/>
<path d="M2959.83 867.121C2959.83 867.121 2990.69 840.199 2972.51 887.852C2972.51 887.852 2960.92 953.803 2931.35 951.007C2905.53 948.567 2924.79 892.341 2942.19 846.394C2943.42 843.161 2947.93 842.792 2948.75 845.688C2950.39 851.438 2953.68 858.566 2959.83 867.121Z" fill="#EBEBEB"/>
<path d="M1513.92 3308.95C1513.92 3308.95 1484.5 3336.71 1501.43 3289.42C1501.43 3289.42 1511.78 3224.67 1540.32 3225.89C1565.11 3226.95 1547.57 3282.04 1531.44 3327.49C1530.28 3330.76 1525.55 3331.39 1524.66 3328.57C1522.95 3323.18 1519.71 3316.64 1513.92 3308.95Z" fill="#EBEBEB"/>
<path d="M2645.51 837.414C2645.51 837.414 2676.37 810.492 2658.19 858.145C2658.19 858.145 2646.6 924.095 2617.03 921.3C2591.21 918.86 2610.47 862.634 2627.87 816.686C2629.1 813.454 2633.61 813.085 2634.43 815.98C2636.07 821.731 2639.36 828.859 2645.51 837.414Z" fill="#EBEBEB"/>
<path d="M1070.5 2090.05C1070.5 2090.05 1089.65 2021.26 1049.85 1987.64C1049.85 1987.64 1050.84 2031.08 1014.06 2087.63C979.661 2140.52 1024.82 2131.62 1063.37 2157.75C1065.79 2159.39 1066.4 2158.8 1065.53 2155.78C1063.02 2147.04 1062.26 2128.66 1070.5 2090.05Z" fill="#EBEBEB"/>
<path d="M3250.18 1988.6C3250.18 1988.6 3229.37 2057.55 3267.5 2093.67C3267.5 2093.67 3267.8 2049.49 3305.59 1993.84C3340.93 1941.8 3296.3 1948.61 3259.18 1920.17C3256.85 1918.39 3256.23 1918.97 3256.99 1922.08C3259.19 1931.1 3259.4 1949.82 3250.18 1988.6Z" fill="#EBEBEB"/>
<path d="M1831.54 1040.14C1831.54 1040.14 1826.73 1100.57 1791.11 1060.86C1791.11 1060.86 1725.39 1030.93 1764.59 976.722C1801.35 925.875 1850.19 979.096 1885.5 1018.67C1887.49 1020.9 1887.22 1021.59 1884.57 1021.2C1876.85 1020.05 1861.57 1022.86 1831.54 1040.14Z" fill="#EBEBEB"/>
<path d="M2305.39 3185.98C2305.39 3185.98 2311.88 3124.81 2345.72 3166.92C2345.72 3166.92 2409.44 3200.56 2369.35 3253.71C2331.75 3303.56 2285.3 3247.09 2251.75 3205.15C2249.87 3202.8 2250.18 3202.09 2252.76 3202.62C2260.33 3204.15 2275.42 3202.02 2305.39 3185.98Z" fill="#EBEBEB"/>
<path d="M1478.04 1334.21C1478.04 1334.21 1455.24 1357.75 1467.12 1279.13C1467.12 1279.13 1551.06 1178.24 1504.25 1194.48C1461.08 1209.46 1444.2 1313.07 1432.51 1390.76C1432.01 1394.14 1434.04 1393.75 1435.86 1390.2C1442.02 1378.23 1454.16 1360.14 1478.04 1334.21Z" fill="#EBEBEB"/>
<path d="M2865.8 2794.2C2865.8 2794.2 2888.89 2771.41 2874.93 2850.7C2874.93 2850.7 2789.51 2949.07 2835.98 2934.88C2878.78 2921.81 2898.39 2817.66 2912.12 2739.33C2912.72 2735.95 2910.57 2736.28 2908.66 2739.78C2902.2 2751.64 2889.75 2769.31 2865.8 2794.2Z" fill="#EBEBEB"/>
<path d="M1049.84 3282.58C1049.84 3282.58 1043.8 3270.5 1046.15 3263.93C1046.15 3263.93 1057.43 3255.16 1063.8 3255.44C1070.17 3255.71 1066.21 3265.84 1063.85 3272.41C1063.85 3272.41 1057.47 3280.6 1049.84 3282.58Z" fill="#EBEBEB"/>
<path d="M3099.69 885.687C3099.69 885.687 3104.58 898.735 3101.96 905.595C3101.96 905.595 3090.86 914.392 3084.92 913.83C3078.98 913.269 3083.32 902.714 3085.94 895.854C3085.94 895.854 3092.43 887.463 3099.69 885.687Z" fill="#EBEBEB"/>
<path d="M896.079 2915.3C896.079 2915.3 890.031 2903.22 892.385 2896.65C892.385 2896.65 903.663 2887.88 910.033 2888.15C916.403 2888.43 912.443 2898.56 910.089 2905.13C910.089 2905.13 903.705 2913.32 896.079 2915.3Z" fill="#EBEBEB"/>
<path d="M3239.96 1268.17C3239.96 1268.17 3244.85 1281.22 3242.23 1288.08C3242.23 1288.08 3231.13 1296.88 3225.2 1296.32C3219.26 1295.76 3223.6 1285.2 3226.22 1278.34C3226.22 1278.34 3232.7 1269.95 3239.96 1268.17Z" fill="#EBEBEB"/>
<path d="M2374.73 703.46C2374.73 703.46 2363.31 699.731 2358.15 703.973C2358.15 703.973 2352.79 718.67 2354.21 725.678C2355.63 732.687 2363.52 725.781 2368.68 721.539C2368.68 721.539 2374.46 712.422 2374.73 703.46Z" fill="#EBEBEB"/>
<path d="M1660.65 3527.14C1660.65 3527.14 1671.77 3531.49 1676.97 3527.44C1676.97 3527.44 1682.66 3512.77 1681.47 3505.58C1680.28 3498.39 1672.32 3505.02 1667.12 3509.07C1667.12 3509.07 1661.18 3518.05 1660.65 3527.14Z" fill="#EBEBEB"/>
<path d="M1088.16 1921.59C1088.16 1921.59 1088.56 1906.81 1085.2 1903.97C1085.2 1903.97 1075.57 1907.7 1071.61 1913.79C1067.65 1919.87 1073.04 1923.93 1076.39 1926.77C1076.39 1926.77 1082.76 1927.12 1088.16 1921.59Z" fill="#EBEBEB"/>
<path d="M3227.94 2158.9C3227.94 2158.9 3227.12 2173.9 3230.34 2176.94C3230.34 2176.94 3239.91 2173.63 3243.98 2167.65C3248.04 2161.66 3242.87 2157.26 3239.65 2154.22C3239.65 2154.22 3233.4 2153.55 3227.94 2158.9Z" fill="#EBEBEB"/>
<path d="M1696.45 1094.37C1696.45 1094.37 1684.36 1097.79 1681.36 1094.44C1681.36 1094.44 1682.5 1082.46 1686.72 1076.62C1690.93 1070.79 1695.35 1076.26 1698.36 1079.61C1698.36 1079.61 1699.91 1086.98 1696.45 1094.37Z" fill="#EBEBEB"/>
<path d="M2439.73 3137.53C2439.73 3137.53 2451.7 3134.65 2454.56 3138.2C2454.56 3138.2 2453.09 3150.32 2448.78 3156.04C2444.46 3161.76 2440.28 3155.98 2437.42 3152.43C2437.42 3152.43 2436.11 3144.87 2439.73 3137.53Z" fill="#EBEBEB"/>
<path d="M1270.13 1552.15C1270.13 1552.15 1270.53 1537.37 1267.17 1534.53C1267.17 1534.53 1257.54 1538.26 1253.58 1544.34C1249.62 1550.43 1255.01 1554.49 1258.37 1557.33C1258.37 1557.33 1264.73 1557.67 1270.13 1552.15Z" fill="#EBEBEB"/>
<path d="M3038.37 2525.31C3038.37 2525.31 3037.55 2540.31 3040.77 2543.36C3040.77 2543.36 3050.34 2540.05 3054.41 2534.06C3058.47 2528.07 3053.3 2523.68 3050.08 2520.63C3050.08 2520.63 3043.83 2519.96 3038.37 2525.31Z" fill="#EBEBEB"/>
<path d="M1433.45 3552.39C1433.45 3552.39 1433.85 3537.61 1430.5 3534.77C1430.5 3534.77 1420.86 3538.5 1416.91 3544.58C1412.95 3550.67 1418.33 3554.73 1421.69 3557.57C1421.69 3557.57 1428.06 3557.91 1433.45 3552.39Z" fill="#EBEBEB"/>
<path d="M2731.52 595.262C2731.52 595.262 2730.7 610.262 2733.92 613.31C2733.92 613.31 2743.49 609.998 2747.56 604.011C2751.62 598.024 2746.45 593.629 2743.23 590.581C2743.23 590.581 2736.98 589.917 2731.52 595.262Z" fill="#EBEBEB"/>
<path d="M1428.77 1380.47C1428.77 1380.47 1416.69 1383.88 1413.68 1380.53C1413.68 1380.53 1414.83 1368.55 1419.04 1362.72C1423.26 1356.89 1427.68 1362.36 1430.68 1365.71C1430.68 1365.71 1432.24 1373.07 1428.77 1380.47Z" fill="#EBEBEB"/>
<path d="M2915.56 2749.63C2915.56 2749.63 2927.54 2746.75 2930.39 2750.3C2930.39 2750.3 2928.92 2762.42 2924.61 2768.14C2920.29 2773.86 2916.11 2768.08 2913.25 2764.53C2913.25 2764.53 2911.94 2756.97 2915.56 2749.63Z" fill="#EBEBEB"/>
<path d="M1289.29 3573.38C1289.29 3573.38 1303.37 3561.74 1307.57 3563.08C1307.57 3563.08 1308.16 3575.93 1304.02 3584.66C1299.87 3593.4 1293.61 3590.89 1289.42 3589.55C1289.42 3589.55 1286.32 3583.18 1289.29 3573.38Z" fill="#EBEBEB"/>
<path d="M2873.81 581.032C2873.81 581.032 2859.63 592.17 2855.54 590.605C2855.54 590.605 2855.33 577.522 2859.66 568.849C2863.99 560.176 2870.07 563.038 2874.16 564.603C2874.16 564.603 2877.02 571.218 2873.81 581.032Z" fill="#EBEBEB"/>
<path d="M977.34 2410.88C977.34 2410.88 964.37 2416.78 961.59 2422.38C961.59 2422.38 964.054 2433.3 969.073 2435.8C974.091 2438.31 978.121 2429.54 980.901 2423.94C980.901 2423.94 981.742 2415.5 977.34 2410.88Z" fill="#EBEBEB"/>
<path d="M3351.07 1667.2C3351.07 1667.2 3363.98 1661.85 3366.88 1656.29C3366.88 1656.29 3364.77 1645.08 3359.91 1642.29C3355.06 1639.49 3350.84 1648.2 3347.95 1653.76C3347.95 1653.76 3346.87 1662.29 3351.07 1667.2Z" fill="#EBEBEB"/>
<path d="M2036.57 812.547C2036.57 812.547 2038.83 796.237 2042.89 791.875C2042.89 791.875 2052.36 792.57 2055.43 797.925C2058.49 803.279 2052.08 809.732 2048.03 814.095C2048.03 814.095 2041.25 816.761 2036.57 812.547Z" fill="#EBEBEB"/>
<path d="M2059.19 3349.43C2059.19 3349.43 2056.49 3365.89 2052.38 3370.12C2052.38 3370.12 2043.09 3368.95 2040.23 3363.36C2037.37 3357.77 2043.86 3351.52 2047.97 3347.29C2047.97 3347.29 2054.71 3344.92 2059.19 3349.43Z" fill="#EBEBEB"/>
<path d="M1315.69 3075.75C1315.69 3075.75 1322.8 3086.33 1321 3093.16C1321 3093.16 1310.41 3103.82 1303.98 3104.77C1297.56 3105.72 1300.67 3095.13 1302.48 3088.3C1302.48 3088.3 1308.19 3079.13 1315.69 3075.75Z" fill="#EBEBEB"/>
<path d="M2833.41 1085.37C2833.41 1085.37 2826.72 1074.27 2828.69 1067.42C2828.69 1067.42 2839.41 1057.11 2845.75 1056.46C2852.1 1055.81 2848.73 1066.42 2846.76 1073.27C2846.76 1073.27 2840.87 1082.31 2833.41 1085.37Z" fill="#EBEBEB"/>
<path d="M845.538 2041.52C845.538 2041.52 842.706 2057.66 845.574 2061.17C845.574 2061.17 855.758 2058.26 860.691 2052.08C865.625 2045.9 860.944 2040.8 858.075 2037.28C858.075 2037.28 851.806 2036.13 845.538 2041.52Z" fill="#EBEBEB"/>
<path d="M3469.87 2049C3469.87 2049 3473.12 2032.74 3470.4 2029.02C3470.4 2029.02 3460.31 2031.48 3455.28 2037.51C3450.25 2043.55 3454.7 2048.97 3457.42 2052.68C3457.42 2052.68 3463.55 2054.16 3469.87 2049Z" fill="#EBEBEB"/>
<path d="M1706.31 732.522C1706.31 732.522 1719.02 725.995 1722.49 728.64C1722.49 728.64 1722.13 741.102 1718.03 748.093C1713.93 755.084 1708.79 750.642 1705.32 747.997C1705.32 747.997 1703.12 740.912 1706.31 732.522Z" fill="#EBEBEB"/>
<path d="M2381.44 3447.01C2381.44 3447.01 2368.75 3453.02 2365.42 3450.16C2365.42 3450.16 2366.14 3437.52 2370.37 3430.62C2374.6 3423.72 2379.52 3428.48 2382.85 3431.34C2382.85 3431.34 2384.81 3438.65 2381.44 3447.01Z" fill="#EBEBEB"/>
<path d="M1364.84 1438.09C1364.84 1438.09 1354.15 1436.14 1349.02 1440.47C1349.02 1440.47 1343.18 1454 1344.19 1459.99C1345.19 1465.98 1353.05 1459 1358.18 1454.68C1358.18 1454.68 1364.14 1446 1364.84 1438.09Z" fill="#EBEBEB"/>
<path d="M2980.07 2694.22C2980.07 2694.22 2990.52 2696.74 2995.68 2692.59C2995.68 2692.59 3001.81 2679.13 3001 2672.99C3000.19 2666.85 2992.26 2673.56 2987.09 2677.7C2987.09 2677.7 2980.98 2686.23 2980.07 2694.22Z" fill="#EBEBEB"/>
<path d="M1487.79 3383.52C1487.79 3383.52 1477.1 3381.56 1471.97 3385.89C1471.97 3385.89 1466.13 3399.42 1467.14 3405.41C1468.14 3411.4 1476 3404.42 1481.13 3400.1C1481.13 3400.1 1487.09 3391.42 1487.79 3383.52Z" fill="#EBEBEB"/>
<path d="M2673.21 764.176C2673.21 764.176 2683.67 766.688 2688.83 762.547C2688.83 762.547 2694.96 749.084 2694.15 742.945C2693.33 736.807 2685.41 743.513 2680.24 747.654C2680.24 747.654 2674.13 756.179 2673.21 764.176Z" fill="#EBEBEB"/>
<path d="M1300.66 1477.58C1300.66 1477.58 1296.91 1465.5 1299.45 1458.65C1299.45 1458.65 1309.42 1449.14 1314.55 1449.11C1319.68 1449.09 1315.51 1459.65 1312.97 1466.5C1312.97 1466.5 1307.02 1475.19 1300.66 1477.58Z" fill="#EBEBEB"/>
<path d="M3044.29 2657.26C3044.29 2657.26 3047.62 2669.73 3044.93 2676.56C3044.93 2676.56 3034.85 2685.73 3029.81 2685.5C3024.77 2685.28 3029.18 2674.75 3031.87 2667.92C3031.87 2667.92 3037.97 2659.38 3044.29 2657.26Z" fill="#EBEBEB"/>
<path d="M1423.61 3423.01C1423.61 3423.01 1419.86 3410.92 1422.4 3404.07C1422.4 3404.07 1432.37 3394.56 1437.5 3394.54C1442.63 3394.51 1438.46 3405.08 1435.92 3411.92C1435.92 3411.92 1429.97 3420.61 1423.61 3423.01Z" fill="#EBEBEB"/>
<path d="M2737.44 727.213C2737.44 727.213 2740.77 739.677 2738.08 746.509C2738.08 746.509 2728 755.685 2722.96 755.456C2717.91 755.227 2722.32 744.699 2725.01 737.867C2725.01 737.867 2731.12 729.334 2737.44 727.213Z" fill="#EBEBEB"/>
<path d="M739.032 2991.82C739.032 2991.82 733.818 2977.41 736.642 2969.52C736.642 2969.52 748.573 2958.93 754.943 2959.21C761.313 2959.48 756.627 2971.64 753.802 2979.53C753.802 2979.53 746.821 2989.38 739.032 2991.82Z" fill="#EBEBEB"/>
<path d="M3398.45 1201.93C3398.45 1201.93 3403.34 1214.97 3400.73 1221.83C3400.73 1221.83 3389.63 1230.63 3383.69 1230.07C3377.75 1229.51 3382.09 1218.95 3384.71 1212.09C3384.71 1212.09 3391.2 1203.7 3398.45 1201.93Z" fill="#EBEBEB"/>
</svg>
