<svg width="40" height="40" viewBox="0 0 40 40" fill="none" xmlns="http://www.w3.org/2000/svg">
<circle cx="20.065" cy="19.8197" r="19.2373" transform="rotate(-180 20.065 19.8197)" fill="url(#paint0_linear)"/>
<path d="M27.5546 22.1127C32.1539 18.2136 23.945 7.53561 29.8648 6.38984C35.4908 6.7528 37.6687 14.7381 38.4563 19.3532C38.4563 29.9776 30.7508 38.046 20.1264 38.046C21.7759 34.1656 17.7285 30.4427 27.5546 22.1127Z" fill="url(#paint1_linear)"/>
<path d="M1.19077 19.819C1.19077 9.19449 8.45012 3.66773 17.8871 3.12353C20.2553 3.19962 21.7714 3.32401 22.6587 3.52378C27.8342 4.68905 26.1639 12.6377 23.6765 17.3235C22.892 18.8014 20.3029 19.819 15.7093 19.819C5.08483 19.819 7.7242 25.6269 1.19077 19.819Z" fill="url(#paint2_linear)"/>
<path d="M14.4795 24.7204C14.4795 23.4174 14.1462 23.2679 15.7499 23.2679C15.9371 23.4839 16.0946 23.6794 16.2259 23.8562C17.0298 24.9386 13.7535 26.7161 13.7535 26.7161C13.5722 24.9013 14.4795 26.0234 14.4795 24.7204Z" fill="#006AB7"/>
<path d="M13.6508 27.5086C13.6508 27.5086 13.7476 27.5086 14.2717 27.5086C14.2717 27.5086 14.9833 27.2079 14.9833 27.8869C14.9833 28.5659 14.1748 28.5308 13.6508 28.5308C13.6508 28.5308 13.3821 28.1706 13.6508 27.5086Z" fill="#006AB7"/>
<path d="M12.0799 24.1753C12.0799 24.1753 13.0078 23.0864 13.5318 23.0864C13.5318 23.0864 14.2578 23.9409 14.2578 24.6199C14.2578 25.2989 13.4493 25.2639 12.9253 25.2639C12.9253 25.2639 12.2614 24.9012 12.0799 24.1753Z" fill="#006AB7"/>
<defs>
<linearGradient id="paint0_linear" x1="35.151" y1="0.724641" x2="-4.5753" y2="41.785" gradientUnits="userSpaceOnUse">
<stop stop-color="#C14E0D"/>
<stop offset="1" stop-color="#FF354D"/>
</linearGradient>
<linearGradient id="paint1_linear" x1="29.8957" y1="38.046" x2="40.7026" y2="21.2751" gradientUnits="userSpaceOnUse">
<stop stop-color="#0B4E7D"/>
<stop offset="1" stop-color="#4AB3FF"/>
</linearGradient>
<linearGradient id="paint2_linear" x1="1.12483" y1="20.2376" x2="23.9526" y2="3.04262" gradientUnits="userSpaceOnUse">
<stop stop-color="#0B4E7D"/>
<stop offset="1" stop-color="#4AB3FF"/>
</linearGradient>
</defs>
</svg>
