<svg width="39" height="41" viewBox="0 0 39 41" fill="none" xmlns="http://www.w3.org/2000/svg">
<circle cx="19.7747" cy="19.0559" r="19.0559" fill="#3DA2FF"/>
<path d="M7.60973 20.2546C6.26093 21.6017 8.16349 24.4468 6.29194 24.8091C-3.1709 24.1986 6.07699 5.54153 15.2057 2.97537C19.5102 1.76534 23.5056 2.27538 23.3083 5.30101C23.0469 9.30732 17.9812 10.7539 13.9669 10.8177C1.85582 11.0103 15.5783 12.2962 7.60973 20.2546Z" fill="#BBD51B"/>
<path d="M28.5074 30.2072C29.6235 30.1912 29.6303 28.0978 30.5311 28.757C31.0685 29.7199 30.1635 30.9661 28.7867 32.0514C25.7283 34.4623 21.6166 36.3583 17.7495 35.8969C14.7983 35.5447 12.5634 33.7145 13.4439 32.0986C15.0999 29.06 20.1263 36.1718 22.1384 33.3564C22.7471 32.5047 23.6145 30.2775 28.5074 30.2072Z" fill="#BBD51B"/>
<path d="M13.9086 16.1395C18.4105 12.0591 22.8776 10.4464 26.836 10.746C32.326 11.1617 37.2217 19.1053 32.9284 22.552C31.1422 23.986 27.8532 21.1605 23.0335 20.065C18.5975 19.0568 16.3687 23.674 16.0725 28.2135C15.9307 30.3863 14.8733 30.705 11.9182 27.4446C6.59568 21.5722 12.9189 23.6143 13.9086 16.1395Z" fill="#BBD51B"/>
<path d="M21.3531 27.3253C21.3531 28.616 20.9641 28.9896 19.3755 28.9896C18.4711 28.1704 17.9065 27.5828 17.586 27.1687C16.7196 26.0496 21.3531 25.5739 21.3531 25.5739C21.5326 27.3717 21.3531 26.0346 21.3531 27.3253Z" fill="#BBD51B"/>
<path d="M21.0947 22.5855C21.0947 22.5855 20.9988 22.5855 20.4797 22.5855C20.4797 22.5855 19.7748 22.8834 19.7748 22.2108C19.7748 21.5382 20.5756 21.5729 21.0947 21.5729C21.0947 21.5729 21.3608 21.9298 21.0947 22.5855Z" fill="#BBD51B"/>
<path d="M19.0414 24.0086C19.0414 24.0086 19.5604 24.3833 19.0414 24.3833C19.0414 24.3833 18.3365 24.6812 18.3365 24.0086C18.3365 23.701 18.5039 23.5414 18.7353 23.4586C18.7644 23.4482 19.053 23.9799 19.0414 24.0086Z" fill="#BBD51B"/>
<path d="M24.8081 24.449C24.8081 24.449 23.889 25.5276 23.37 25.5276C23.37 25.5276 22.6509 24.6812 22.6509 24.0086C22.6509 23.336 23.4517 23.3707 23.9708 23.3707C23.9708 23.3707 24.6284 23.7299 24.8081 24.449Z" fill="#BBD51B"/>
</svg>
