<svg width="523" height="511" viewBox="0 0 523 511" fill="none" xmlns="http://www.w3.org/2000/svg">
<path d="M31.3524 373.257C31.2653 373.14 31.1694 373.014 31.0908 372.89C30.771 372.384 29.8938 370.759 29.2402 367.286C29.2726 367.009 29.3343 366.746 29.4221 366.497C32.3732 358.142 47.4894 364.136 49.4682 371.616C51.9167 380.872 47.1023 379.103 37.5295 378.236C35.9693 378.095 33.9502 376.746 31.3524 373.257Z" fill="#C1C1C1"/>
<path d="M476.999 130.602C477.08 130.723 477.169 130.854 477.242 130.982C477.535 131.501 478.328 133.167 478.814 136.688C478.784 136.878 478.74 137.06 478.685 137.236C475.998 145.714 460.504 139.28 458.967 131.598C457.104 122.287 461.262 124.933 470.902 125.389C472.472 125.464 474.476 126.84 476.999 130.602Z" fill="#C1C1C1"/>
<path d="M71.7472 171.665C71.9003 171.625 72.0701 171.582 72.2213 171.535C72.8882 171.332 75.0372 170.587 78.9071 168.45C84.2566 164.142 70.7485 159.401 64.3486 162.046C62.2661 162.907 60.2416 163.994 58.6289 165.113C52.9104 169.08 70.4408 162.114 65.4466 166.914C62.6684 169.585 57.7752 175.327 71.7472 171.665Z" fill="#C1C1C1"/>
<path d="M444.281 329.792C444.13 329.828 443.962 329.867 443.812 329.909C443.147 330.095 440.986 330.787 437.053 332.842C431.604 337.013 444.718 342.189 451.129 339.717C453.271 338.891 455.366 337.825 457.034 336.717C462.789 332.892 445.079 339.482 450.2 334.85C453.05 332.272 458.438 326.437 444.281 329.792Z" fill="#C1C1C1"/>
<path d="M411.04 88.4286C410.864 88.4622 410.671 88.4999 410.494 88.5252C409.788 88.6261 407.641 88.8405 403.808 88.4658C396.766 86.0329 411.249 75.4742 419.294 75.5084C419.907 75.511 420.51 75.5353 421.093 75.5805C429.986 76.2695 416.934 76.6308 420.214 83.3106C420.989 84.888 419.508 86.8139 411.04 88.4286Z" fill="#C1C1C1"/>
<path d="M88.3003 407.351C88.4756 407.322 88.6667 407.289 88.842 407.269C89.5443 407.186 91.6789 407.028 95.4556 407.511C102.453 410.215 87.5424 420.456 79.4432 420.166C78.9545 420.148 78.4735 420.117 78.0051 420.072C68.9811 419.204 80.6852 419.317 78.8867 411.969C78.5083 410.424 80.3621 408.665 88.3003 407.351Z" fill="#C1C1C1"/>
<path d="M64.8405 197.903C63.6832 196.373 64.1996 195.441 67.6766 193.446C75.3377 192.982 75.4174 193.729 73.802 194.534C71.9087 195.477 70.3523 198.306 68.4542 199.242C67.4576 199.733 66.4109 199.979 66.4109 199.979C64.4059 198.073 65.9978 199.433 64.8405 197.903Z" fill="#C1C1C1"/>
<path d="M452.044 303.375C453.235 305.122 452.758 306.074 449.403 307.897C442.349 307.709 441.817 306.986 443.065 306.307C444.938 305.288 446.525 302.456 448.491 301.587C449.44 301.167 450.428 301.004 450.428 301.004C452.466 303.232 450.853 301.628 452.044 303.375Z" fill="#C1C1C1"/>
<path d="M418.191 111.661C419.428 109.395 418.971 108.642 415.642 108.247C410.812 110.432 409.015 111.572 408.751 112.123C407.805 114.101 412.464 115.053 414.839 114.976C415.696 114.949 416.512 114.735 416.512 114.735C418.612 111.624 416.954 113.926 418.191 111.661Z" fill="#C1C1C1"/>
<path d="M82.2929 383.702C80.9648 385.956 81.3823 386.728 84.6577 387.218C89.3315 385.231 91.2075 384.137 91.6087 383.565C92.9433 381.664 88.1214 380.419 85.7243 380.447C84.8882 380.456 84.095 380.645 84.095 380.645C81.8749 383.728 83.621 381.449 82.2929 383.702Z" fill="#C1C1C1"/>
<path d="M208.675 18.7551C211.216 18.1018 211.906 17.2609 211.722 14.5992C209.88 13.4191 208.608 12.7587 207.75 12.4566C205.72 11.7409 203.883 17.5221 205.035 19.3673C205.142 19.5397 205.227 19.6416 205.227 19.6416C208.787 19.0325 206.133 19.4085 208.675 18.7551Z" fill="#C1C1C1"/>
<path d="M337.213 493.262C334.669 493.853 333.948 494.683 334.008 497.375C335.809 498.64 337.051 499.344 337.886 499.665C339.866 500.424 341.886 494.668 340.861 492.777C340.754 492.58 340.666 492.462 340.666 492.462C337.115 492.979 339.758 492.672 337.213 493.262Z" fill="#C1C1C1"/>
<path d="M286.182 7.85353C283.639 8.34973 282.933 7.82459 283.056 5.0935C284.953 2.9873 286.237 1.73538 287.083 1.07051C289.099 -0.513065 290.894 4.4008 289.868 6.71096C289.742 6.99332 289.633 7.18023 289.633 7.18023C286.077 8.18007 288.725 7.35733 286.182 7.85353Z" fill="#C1C1C1"/>
<path d="M222.401 502.385C224.94 501.954 225.614 502.503 225.367 505.257C223.35 507.378 222.007 508.615 221.141 509.251C219.068 510.773 217.593 505.769 218.679 503.487C218.826 503.178 218.956 502.971 218.956 502.971C222.52 502.058 219.862 502.817 222.401 502.385Z" fill="#C1C1C1"/>
<path d="M58.8167 244.11C61.6473 242.886 60.7079 248.55 61.7491 250.995C58.497 256.853 57.0535 256.389 56.4205 254.511C55.6958 252.362 52.7698 250.77 51.4537 248.927C50.5764 247.698 50.4791 245.969 50.4791 245.969C54.3039 243.988 55.9861 245.334 58.8167 244.11Z" fill="#C1C1C1"/>
<path d="M460.409 257.009C457.552 258.168 458.742 252.475 457.824 249.979C461.315 244.147 462.721 244.663 463.259 246.581C463.874 248.769 466.696 250.452 467.913 252.345C468.726 253.61 468.743 255.361 468.743 255.361C464.867 257.256 463.265 255.851 460.409 257.009Z" fill="#C1C1C1"/>
<path d="M442.044 151.453C439.2 151.512 440.264 156.723 439.284 159.624C443.136 164.609 444.447 162.442 444.869 159.742C445.186 157.72 448.05 155.291 449.274 153.287C450.315 151.582 450.381 149.541 450.381 149.541C446.531 149.295 444.888 151.394 442.044 151.453Z" fill="#C1C1C1"/>
<path d="M77.016 340.079C79.8323 340.097 79.0193 334.807 80.1222 331.905C76.5046 326.714 75.1157 328.964 74.5858 331.715C74.2013 333.712 71.2582 336.049 69.9645 338.004C68.8412 339.701 68.6802 341.781 68.6802 341.781C72.4781 342.134 74.1997 340.06 77.016 340.079Z" fill="#C1C1C1"/>
<path d="M167.179 52.5752C166.628 50.5684 161.639 54.8387 158.588 56.0848C154.004 62.6422 157.056 61.5891 160.027 59.8499C161.836 58.7905 164.842 59.447 166.81 58.9658C168.626 58.522 170.523 57.2887 170.523 57.2887C170.099 54.3527 167.731 54.582 167.179 52.5752Z" fill="#C1C1C1"/>
<path d="M379.821 460.254C380.274 462.295 385.406 458.12 388.481 456.945C393.314 450.456 390.255 451.429 387.238 453.101C385.396 454.122 382.454 453.38 380.482 453.812C378.665 454.21 376.73 455.404 376.73 455.404C377.014 458.38 379.367 458.213 379.821 460.254Z" fill="#C1C1C1"/>
<path d="M328.237 22.7831C328.74 20.5379 333.8 22.5359 336.864 22.3998C341.367 26.6604 338.767 27.1478 335.912 26.841C333.903 26.6251 330.805 28.5774 328.656 28.9931C326.868 29.3389 325.019 28.9802 325.019 28.9802C325.373 25.8683 327.734 25.0284 328.237 22.7831Z" fill="#C1C1C1"/>
<path d="M181.483 486.164C180.882 488.417 175.967 486.262 172.931 486.315C168.7 481.921 171.231 481.476 174.018 481.85C176.024 482.119 179.196 480.242 181.367 479.881C183.147 479.585 184.952 479.996 184.952 479.996C184.458 483.128 182.084 483.911 181.483 486.164Z" fill="#C1C1C1"/>
<path d="M24.8782 220.846C27.7089 219.622 26.7694 225.286 27.8106 227.73C24.5586 233.588 23.115 233.124 22.482 231.246C21.7574 229.097 18.8313 227.505 17.5153 225.662C16.6379 224.434 16.5406 222.704 16.5406 222.704C20.3655 220.723 22.0476 222.07 24.8782 220.846Z" fill="#C1C1C1"/>
<path d="M492.914 281.423C490.058 282.581 491.247 276.889 490.33 274.393C493.821 268.561 495.227 269.077 495.765 270.995C496.379 273.183 499.201 274.866 500.418 276.759C501.231 278.024 501.248 279.775 501.248 279.775C497.373 281.67 495.771 280.265 492.914 281.423Z" fill="#C1C1C1"/>
<path d="M458.755 116.222C455.911 116.281 456.976 121.492 455.996 124.394C459.847 129.379 461.159 127.211 461.581 124.512C461.897 122.489 464.761 120.061 465.985 118.056C467.026 116.351 467.092 114.31 467.092 114.31C463.242 114.065 461.599 116.163 458.755 116.222Z" fill="#C1C1C1"/>
<path d="M42.372 377.989C45.1883 378.007 44.3752 372.717 45.4781 369.815C41.8605 364.625 40.4717 366.874 39.9418 369.626C39.5573 371.622 36.6142 373.959 35.3205 375.914C34.1972 377.612 34.0362 379.691 34.0362 379.691C37.8341 380.044 39.5557 377.971 42.372 377.989Z" fill="#C1C1C1"/>
<path d="M211.115 50.6275C210.563 48.6207 205.574 52.891 202.524 54.1372C197.94 60.6946 200.992 59.6414 203.962 57.9023C205.772 56.8429 208.778 57.4993 210.746 57.0182C212.561 56.5743 214.458 55.341 214.458 55.341C214.035 52.405 211.667 52.6344 211.115 50.6275Z" fill="#C1C1C1"/>
<path d="M336.265 461.019C336.719 463.06 341.851 458.886 344.926 457.711C349.759 451.221 346.699 452.195 343.683 453.867C341.841 454.888 338.899 454.145 336.927 454.577C335.109 454.975 333.174 456.17 333.174 456.17C333.458 459.145 335.812 458.978 336.265 461.019Z" fill="#C1C1C1"/>
<path d="M284.484 40.6617C284.987 38.4164 290.048 40.4145 293.111 40.2784C297.615 44.5389 295.014 45.0263 292.16 44.7196C290.15 44.5036 287.052 46.4559 284.903 46.8716C283.115 47.2175 281.266 46.8587 281.266 46.8587C281.62 43.7469 283.981 42.9069 284.484 40.6617Z" fill="#C1C1C1"/>
<path d="M225.59 469.311C224.99 471.564 220.075 469.408 217.038 469.462C212.807 465.068 215.338 464.623 218.126 464.997C220.131 465.266 223.304 463.389 225.474 463.028C227.255 462.732 229.059 463.142 229.059 463.142C228.566 466.274 226.191 467.058 225.59 469.311Z" fill="#C1C1C1"/>
<path d="M51.5625 320.641C50.2227 318.87 57.9713 316.964 61.4997 314.939C71.7556 314.838 66.9321 317.374 62.6951 319.039C60.7668 319.797 59.5562 322.521 58.0899 323.852C56.283 325.493 53.0818 326.687 53.0818 326.687C50.817 324.449 52.9022 322.412 51.5625 320.641Z" fill="#C1C1C1"/>
<path d="M471.037 180.311C472.218 182.044 464.772 183.715 461.323 185.589C451.69 185.472 456.195 183.18 460.267 181.665C462.197 180.947 463.594 178.235 465.137 176.972C466.949 175.49 469.9 174.458 469.9 174.458C471.936 176.661 469.855 178.577 471.037 180.311Z" fill="#C1C1C1"/>
<path d="M96.5238 107.742C99.0978 107.08 96.1795 102.771 95.99 100.035C90.986 96.7654 90.3024 98.415 90.7332 100.626C91.1428 102.728 89.3771 105.895 89.1794 108.14C89.0419 109.701 89.6278 111.196 89.6278 111.196C93.2344 110.584 93.9498 108.404 96.5238 107.742Z" fill="#C1C1C1"/>
<path d="M452.258 406.492C449.681 407.089 452.37 411.519 452.432 414.287C457.273 417.753 457.997 416.049 457.651 413.776C457.331 411.673 459.232 408.553 459.539 406.316C459.756 404.735 459.239 403.193 459.239 403.193C455.643 403.713 454.835 405.894 452.258 406.492Z" fill="#C1C1C1"/>
<path d="M401.414 32.7966C398.838 33.2992 401.643 27.6963 401.769 24.8883C406.78 19.2574 407.419 20.7739 406.985 23.2659C406.6 25.4765 408.451 27.7452 408.721 29.8157C408.918 31.3197 408.353 33.1224 408.353 33.1224C404.751 34.1398 403.99 32.294 401.414 32.7966Z" fill="#C1C1C1"/>
<path d="M111.755 460.976C114.326 460.539 111.294 466.119 111.04 468.95C105.772 474.552 105.25 472.919 105.821 470.372C106.312 468.181 104.573 465.879 104.39 463.814C104.255 462.285 104.904 460.458 104.904 460.458C108.515 459.529 109.183 461.413 111.755 460.976Z" fill="#C1C1C1"/>
<path d="M232.785 41.0024C232.026 42.9888 239.321 41.054 242.92 41.0825C251.607 36.8097 247.525 36.7571 243.531 37.2586C241.397 37.5266 239.33 35.8603 237.44 35.5124C235.457 35.1475 232.682 35.575 232.682 35.575C231.218 38.3386 233.545 39.0159 232.785 41.0024Z" fill="#C1C1C1"/>
<path d="M312.178 483.224C313.021 481.239 305.714 482.993 302.156 482.866C293.409 486.922 297.361 487.105 301.316 486.715C303.465 486.504 305.453 488.236 307.332 488.641C309.275 489.06 312.031 488.706 312.031 488.706C313.607 485.956 311.335 485.208 312.178 483.224Z" fill="#C1C1C1"/>
<path d="M260.791 28.6609C261.592 30.2946 254.29 31.6601 250.711 33.3114C241.629 32.9658 246.368 30.935 250.482 29.633C252.406 29.0243 254.304 26.421 255.986 25.3302C257.952 24.0553 260.77 23.2148 260.77 23.2148C262.29 25.3037 259.99 27.0271 260.791 28.6609Z" fill="#C1C1C1"/>
<path d="M283.904 494.918C283.187 493.246 290.473 492.067 294.09 490.498C303.06 491.095 298.277 493.016 294.146 494.218C292.216 494.78 290.219 497.356 288.504 498.411C286.501 499.645 283.674 500.416 283.674 500.416C282.267 498.266 284.621 496.589 283.904 494.918Z" fill="#C1C1C1"/>
<path d="M19.1958 265.199C19.1958 265.199 18.9173 265.359 17.4103 266.223C17.4103 266.223 15.0599 266.996 15.746 267.903C16.4321 268.81 18.7216 267.429 20.2287 266.564C20.2287 266.564 20.6374 265.64 19.1958 265.199Z" fill="#C1C1C1"/>
<path d="M500.819 236.992C500.819 236.992 501.114 236.831 502.714 235.962C502.714 235.962 505.288 235.371 504.38 234.04C503.473 232.708 501.052 234.118 499.452 234.987C499.452 234.987 499.114 236.139 500.819 236.992Z" fill="#C1C1C1"/>
<path d="M43.2192 194.047C43.2192 194.047 42.9408 194.207 41.4337 195.072C41.4337 195.072 39.0834 195.844 39.7694 196.751C40.4555 197.659 42.7451 196.278 44.2521 195.413C44.2521 195.413 44.6608 194.488 43.2192 194.047Z" fill="#C1C1C1"/>
<path d="M473.566 308.378C473.566 308.378 473.862 308.217 475.461 307.348C475.461 307.348 478.035 306.757 477.128 305.426C476.22 304.094 473.799 305.504 472.2 306.373C472.2 306.373 471.861 307.525 473.566 308.378Z" fill="#C1C1C1"/>
<path d="M439.936 97.4181C439.936 97.4181 440.229 97.4529 441.816 97.6416C441.816 97.6416 444.389 97.133 443.446 98.8597C442.504 100.586 440.103 100.206 438.516 100.018C438.516 100.018 438.203 99.0048 439.936 97.4181Z" fill="#C1C1C1"/>
<path d="M60.1255 397.486C60.1255 397.486 59.837 397.443 58.2754 397.209C58.2754 397.209 55.7064 397.652 56.7187 395.935C57.731 394.218 60.0879 394.667 61.6495 394.901C61.6495 394.901 61.9132 395.932 60.1255 397.486Z" fill="#C1C1C1"/>
<path d="M170.854 83.4835C170.854 83.4835 170.87 83.7179 170.958 84.987C170.958 84.987 171.745 86.5388 170.238 86.9261C168.732 87.3134 168.674 85.3356 168.586 84.0666C168.586 84.0666 169.34 83.2104 170.854 83.4835Z" fill="#C1C1C1"/>
<path d="M377.607 428.95C377.607 428.95 377.601 428.713 377.573 427.43C377.573 427.43 376.866 425.842 378.374 425.492C379.882 425.142 379.849 427.14 379.877 428.424C379.877 428.424 379.092 429.267 377.607 428.95Z" fill="#C1C1C1"/>
<path d="M325.287 55.1889C325.287 55.1889 325.277 55.4295 325.218 56.7316C325.218 56.7316 324.471 58.6301 325.979 58.336C327.486 58.0418 327.499 56.0482 327.557 54.7461C327.557 54.7461 326.787 54.2345 325.287 55.1889Z" fill="#C1C1C1"/>
<path d="M185.891 453.53C185.891 453.53 185.913 453.287 186.03 451.974C186.03 451.974 186.857 450.078 185.352 450.334C183.847 450.59 183.743 452.602 183.625 453.915C183.625 453.915 184.363 454.453 185.891 453.53Z" fill="#C1C1C1"/>
<path d="M231.271 70.8832C231.271 70.8832 231.287 71.1177 231.375 72.3867C231.375 72.3867 232.162 73.9386 230.655 74.3259C229.149 74.7132 229.091 72.7354 229.003 71.4663C229.003 71.4663 229.757 70.6102 231.271 70.8832Z" fill="#C1C1C1"/>
<path d="M315.05 453.099C315.05 453.099 315.045 452.862 315.016 451.579C315.016 451.579 314.309 449.991 315.818 449.641C317.326 449.291 317.292 451.289 317.321 452.573C317.321 452.573 316.535 453.416 315.05 453.099Z" fill="#C1C1C1"/>
<path d="M26.2165 353.329C26.2165 353.329 26.2328 353.564 26.3207 354.833C26.3207 354.833 27.1072 356.385 25.6008 356.772C24.0943 357.159 24.0365 355.181 23.9485 353.912C23.9485 353.912 24.7027 353.056 26.2165 353.329Z" fill="#C1C1C1"/>
<path d="M497.683 147.64C497.683 147.64 497.678 147.403 497.649 146.119C497.649 146.119 496.943 144.531 498.451 144.181C499.959 143.831 499.925 145.829 499.954 147.113C499.954 147.113 499.168 147.957 497.683 147.64Z" fill="#C1C1C1"/>
<path d="M262.981 57.7042C262.981 57.7042 262.97 57.9447 262.912 59.2469C262.912 59.2469 262.165 61.1454 263.672 60.8513C265.18 60.5571 265.192 58.5634 265.25 57.2613C265.25 57.2613 264.481 56.7497 262.981 57.7042Z" fill="#C1C1C1"/>
<path d="M283.074 465.538C283.074 465.538 283.095 465.295 283.213 463.982C283.213 463.982 284.039 462.086 282.534 462.342C281.029 462.597 280.926 464.61 280.808 465.923C280.808 465.923 281.546 466.46 283.074 465.538Z" fill="#C1C1C1"/>
<path d="M34.446 322.409C34.446 322.409 34.3568 322.2 33.874 321.066C33.874 321.066 34.1813 319.11 32.007 320.05C29.8326 320.991 30.6897 322.691 31.1725 323.825C31.1725 323.825 32.5737 323.907 34.446 322.409Z" fill="#C1C1C1"/>
<path d="M488.12 178.63C488.12 178.63 488.198 178.844 488.624 180.001C488.624 180.001 488.23 181.967 490.424 181.078C492.619 180.188 491.849 178.448 491.423 177.29C491.423 177.29 490.041 177.169 488.12 178.63Z" fill="#C1C1C1"/>
<path d="M9.90649 312.711C9.90649 312.711 9.81728 312.502 9.33446 311.368C9.33446 311.368 9.64173 309.412 7.46741 310.353C5.29309 311.293 6.15016 312.993 6.63299 314.127C6.63299 314.127 8.03415 314.209 9.90649 312.711Z" fill="#C1C1C1"/>
<path d="M511.951 189.091C511.951 189.091 512.03 189.305 512.455 190.462C512.455 190.462 512.061 192.428 514.256 191.538C516.45 190.649 515.68 188.909 515.255 187.751C515.255 187.751 513.872 187.63 511.951 189.091Z" fill="#C1C1C1"/>
<path d="M105.275 116.303C105.275 116.303 105.536 116.196 106.951 115.618C106.951 115.618 108.684 114.151 109.108 115.692C109.531 117.234 107.327 118.046 105.913 118.624C105.913 118.624 104.963 118.102 105.275 116.303Z" fill="#C1C1C1"/>
<path d="M443.994 397.61C443.994 397.61 443.731 397.71 442.305 398.255C442.305 398.255 440.523 399.689 440.174 398.122C439.826 396.554 442.044 395.794 443.47 395.249C443.47 395.249 444.386 395.802 443.994 397.61Z" fill="#C1C1C1"/>
<path d="M392.903 45.2604C392.903 45.2604 392.641 45.2721 391.221 45.3352C391.221 45.3352 389.463 44.6571 389.076 46.3817C388.69 48.1064 390.901 47.9201 392.322 47.857C392.322 47.857 393.255 46.9096 392.903 45.2604Z" fill="#C1C1C1"/>
<path d="M120.747 448.626C120.747 448.626 121.007 448.621 122.415 448.597C122.415 448.597 124.123 449.329 124.585 447.599C125.046 445.868 122.85 445.996 121.442 446.021C121.442 446.021 120.475 446.952 120.747 448.626Z" fill="#C1C1C1"/>
<path d="M42.3696 304.191C42.3696 304.191 42.639 304.001 44.097 302.97C44.097 302.97 46.6284 302.068 45.3834 300.946C44.1385 299.824 41.9533 301.471 40.4953 302.502C40.4953 302.502 40.4083 303.625 42.3696 304.191Z" fill="#C1C1C1"/>
<path d="M479.443 196.805C479.443 196.805 479.168 196.99 477.678 197.99C477.678 197.99 475.132 198.832 476.312 199.999C477.492 201.166 479.73 199.562 481.22 198.562C481.22 198.562 481.358 197.43 479.443 196.805Z" fill="#C1C1C1"/>
<path d="M118.281 100.546C118.281 100.546 118.301 100.304 118.41 98.9966C118.41 98.9966 117.728 97.3337 119.604 97.0782C121.48 96.8226 121.214 98.8534 121.105 100.161C121.105 100.161 120.054 100.967 118.281 100.546Z" fill="#C1C1C1"/>
<path d="M430.403 413.162C430.403 413.162 430.371 413.405 430.203 414.722C430.203 414.722 430.802 416.42 428.934 416.626C427.067 416.833 427.423 414.79 427.591 413.473C427.591 413.473 428.668 412.688 430.403 413.162Z" fill="#C1C1C1"/>
<path d="M379.605 35.451C379.605 35.451 379.579 35.2197 379.44 33.9679C379.44 33.9679 380.081 32.0059 378.209 32.5977C376.337 33.1896 376.648 35.0902 376.786 36.342C376.786 36.342 377.851 36.6698 379.605 35.451Z" fill="#C1C1C1"/>
<path d="M133.453 458.892C133.453 458.892 133.468 459.126 133.547 460.394C133.547 460.394 132.823 462.357 134.702 461.811C136.581 461.265 136.362 459.337 136.282 458.07C136.282 458.07 135.245 457.71 133.453 458.892Z" fill="#C1C1C1"/>
<path d="M228.405 57.8937C228.405 57.8937 228.7 57.9241 230.295 58.0887C230.295 58.0887 232.834 57.6774 231.993 59.1108C231.151 60.5443 228.733 60.2164 227.138 60.0518C227.138 60.0518 226.766 59.2069 228.405 57.8937Z" fill="#C1C1C1"/>
<path d="M317.288 466.291C317.288 466.291 316.998 466.252 315.427 466.043C315.427 466.043 312.896 466.388 313.795 464.964C314.693 463.54 317.07 463.937 318.641 464.147C318.641 464.147 318.97 465.01 317.288 466.291Z" fill="#C1C1C1"/>
<path d="M265.535 43.489C265.535 43.489 265.242 43.6522 263.659 44.5355C263.659 44.5355 261.124 45.2715 261.994 46.3179C262.864 47.3643 265.262 45.9476 266.845 45.0644C266.845 45.0644 267.195 44.0563 265.535 43.489Z" fill="#C1C1C1"/>
<path d="M279.893 479.819C279.893 479.819 280.189 479.662 281.797 478.813C281.797 478.813 284.339 478.14 283.526 477.059C282.713 475.979 280.276 477.344 278.669 478.192C278.669 478.192 278.276 479.2 279.893 479.819Z" fill="#C1C1C1"/>
<path d="M52.0429 251.63C52.0429 251.63 51.7645 251.79 50.2575 252.654C50.2575 252.654 47.7552 253.226 48.7843 254.587C49.8134 255.947 52.0852 254.543 53.5923 253.678C53.5923 253.678 53.819 252.513 52.0429 251.63Z" fill="#C1C1C1"/>
<path d="M466.887 249.578C466.887 249.578 467.183 249.417 468.782 248.548C468.782 248.548 471.356 247.958 470.448 246.626C469.541 245.294 467.12 246.704 465.521 247.573C465.521 247.573 465.182 248.725 466.887 249.578Z" fill="#C1C1C1"/>
<path d="M448.383 156.147C448.383 156.147 448.676 156.182 450.263 156.37C450.263 156.37 452.836 155.862 451.893 157.589C450.951 159.315 448.55 158.935 446.963 158.746C446.963 158.746 446.65 157.734 448.383 156.147Z" fill="#C1C1C1"/>
<path d="M70.961 335.166C70.961 335.166 70.6724 335.123 69.1108 334.889C69.1108 334.889 66.5419 335.332 67.5541 333.615C68.5664 331.898 70.9234 332.347 72.485 332.581C72.485 332.581 72.7486 333.612 70.961 335.166Z" fill="#C1C1C1"/>
<path d="M163.11 60.4241C163.11 60.4241 163.126 60.6586 163.214 61.9276C163.214 61.9276 164 63.4794 162.494 63.8668C160.987 64.2541 160.93 62.2763 160.842 61.0072C160.842 61.0072 161.596 60.1511 163.11 60.4241Z" fill="#C1C1C1"/>
<path d="M384.208 452.441C384.208 452.441 384.202 452.204 384.174 450.921C384.174 450.921 383.467 449.332 384.975 448.983C386.483 448.633 386.45 450.631 386.478 451.915C386.478 451.915 385.693 452.758 384.208 452.441Z" fill="#C1C1C1"/>
<path d="M332.465 28.7557C332.465 28.7557 332.454 28.9963 332.395 30.2984C332.395 30.2984 331.649 32.1969 333.156 31.9028C334.664 31.6086 334.676 29.6149 334.734 28.3128C334.734 28.3128 333.964 27.8013 332.465 28.7557Z" fill="#C1C1C1"/>
<path d="M177.575 480.019C177.575 480.019 177.597 479.777 177.714 478.464C177.714 478.464 178.541 476.567 177.036 476.823C175.531 477.079 175.427 479.091 175.309 480.404C175.309 480.404 176.047 480.942 177.575 480.019Z" fill="#C1C1C1"/>
<path d="M1.22755 274.147C1.22755 274.147 0.188487 274.019 0.845321 273.642C0.845321 273.642 1.43345 272.728 2.11953 273.636C2.40094 274.008 2.39047 274.317 2.2349 274.579C2.20755 274.625 1.24353 274.199 1.22755 274.147Z" fill="#C1C1C1"/>
<path d="M518.919 228.489C518.919 228.489 520.127 228.51 519.256 228.983C519.256 228.983 518.341 230.02 517.736 229.132C517.431 228.685 517.629 228.289 518.011 227.946C518.045 227.916 518.913 228.446 518.919 228.489Z" fill="#C1C1C1"/>
<path d="M25.6404 202.773C25.6404 202.773 24.273 202.833 25.2582 202.267C25.2582 202.267 26.2923 201.098 26.9784 202.005C27.3357 202.477 27.0851 202.928 26.6237 203.33C26.5895 203.36 25.6465 202.816 25.6404 202.773Z" fill="#C1C1C1"/>
<path d="M491.666 299.875C491.666 299.875 492.875 299.896 492.003 300.369C492.003 300.369 491.088 301.405 490.483 300.518C490.178 300.07 490.376 299.675 490.759 299.332C490.792 299.302 491.661 299.831 491.666 299.875Z" fill="#C1C1C1"/>
<path d="M457.928 98.2137C457.928 98.2137 459.143 97.6751 458.278 97.5723C458.278 97.5723 457.383 96.9229 456.754 98.0741C456.497 98.5452 456.574 98.8401 456.813 99.0311C456.856 99.065 457.92 98.2703 457.928 98.2137Z" fill="#C1C1C1"/>
<path d="M42.362 396.192C42.362 396.192 41.1353 396.702 41.986 396.829C41.986 396.829 42.8425 397.51 43.5174 396.365C43.7875 395.906 43.7336 395.609 43.5172 395.41C43.4766 395.373 42.3729 396.134 42.362 396.192Z" fill="#C1C1C1"/>
<path d="M173.389 96.9128C173.389 96.9128 174.276 97.3884 174.228 96.697C174.228 96.697 174.83 95.5866 173.324 95.9739C172.93 96.0753 172.649 96.2219 172.45 96.3955C172.37 96.4658 173.297 96.9596 173.389 96.9128Z" fill="#C1C1C1"/>
<path d="M375.716 415.324C375.716 415.324 374.86 414.819 374.876 415.519C374.876 415.519 374.229 416.623 375.737 416.273C376.14 416.18 376.427 416.036 376.633 415.862C376.714 415.793 375.809 415.279 375.716 415.324Z" fill="#C1C1C1"/>
<path d="M323.073 69.6922C323.073 69.6922 322.201 70.5655 322.233 69.8561C322.233 69.8561 321.608 69.023 323.116 68.7288C323.53 68.648 323.821 68.6731 324.024 68.7668C324.101 68.8024 323.163 69.697 323.073 69.6922Z" fill="#C1C1C1"/>
<path d="M188.749 438.949C188.749 438.949 189.652 438.091 189.588 438.807C189.588 438.807 190.167 439.665 188.662 439.92C188.24 439.992 187.95 439.956 187.752 439.85C187.68 439.812 188.661 438.942 188.749 438.949Z" fill="#C1C1C1"/>
<path d="M233.806 84.3126C233.806 84.3126 234.693 84.7882 234.645 84.0968C234.645 84.0968 235.247 82.9864 233.741 83.3737C233.347 83.4751 233.066 83.6217 232.867 83.7953C232.787 83.8656 233.714 84.3593 233.806 84.3126Z" fill="#C1C1C1"/>
<path d="M313.16 439.473C313.16 439.473 312.304 438.968 312.32 439.668C312.32 439.668 311.673 440.772 313.181 440.422C313.583 440.329 313.871 440.185 314.076 440.011C314.158 439.942 313.253 439.428 313.16 439.473Z" fill="#C1C1C1"/>
<path d="M28.7518 366.759C28.7518 366.759 29.6389 367.234 29.591 366.543C29.591 366.543 30.1932 365.432 28.6867 365.82C28.2923 365.921 28.0116 366.068 27.8129 366.241C27.7324 366.312 28.6596 366.805 28.7518 366.759Z" fill="#C1C1C1"/>
<path d="M495.793 134.013C495.793 134.013 494.937 133.509 494.953 134.208C494.953 134.208 494.306 135.312 495.814 134.963C496.216 134.869 496.504 134.725 496.709 134.551C496.791 134.483 495.886 133.969 495.793 134.013Z" fill="#C1C1C1"/>
<path d="M260.766 72.2074C260.766 72.2074 259.894 73.0807 259.926 72.3713C259.926 72.3713 259.302 71.5382 260.809 71.2441C261.224 71.1633 261.514 71.1884 261.718 71.2821C261.795 71.3177 260.856 72.2122 260.766 72.2074Z" fill="#C1C1C1"/>
<path d="M285.932 450.957C285.932 450.957 286.834 450.099 286.77 450.814C286.77 450.814 287.349 451.672 285.844 451.928C285.422 452 285.132 451.963 284.934 451.858C284.862 451.819 285.844 450.949 285.932 450.957Z" fill="#C1C1C1"/>
<path d="M55.7114 354.654C55.7114 354.654 54.8397 355.527 54.8715 354.817C54.8715 354.817 54.2471 353.984 55.7546 353.69C56.1688 353.609 56.4596 353.635 56.6629 353.728C56.7401 353.764 55.8017 354.658 55.7114 354.654Z" fill="#C1C1C1"/>
<path d="M468.565 145.497C468.565 145.497 469.467 144.639 469.403 145.354C469.403 145.354 469.982 146.212 468.478 146.468C468.055 146.54 467.765 146.504 467.568 146.398C467.495 146.359 468.477 145.49 468.565 145.497Z" fill="#C1C1C1"/>
<path d="M2.11536 336.034C2.11536 336.034 2.65989 335.067 2.92294 335.685C2.92294 335.685 3.92212 336.246 2.47258 336.873C2.11629 337.027 1.82758 337.083 1.59084 337.072C1.48687 337.067 2.013 336.053 2.11536 336.034Z" fill="#C1C1C1"/>
<path d="M520.732 165.759C520.732 165.759 520.149 166.72 519.917 166.089C519.917 166.089 518.954 165.495 520.417 164.902C520.777 164.756 521.066 164.707 521.3 164.725C521.402 164.733 520.834 165.742 520.732 165.759Z" fill="#C1C1C1"/>
<path d="M111.925 138.981C111.925 138.981 112.539 138.093 111.768 138.408C111.768 138.408 110.596 138.38 110.879 139.408C111.009 139.882 111.329 140.023 111.711 140.006C111.757 140.004 111.955 139.017 111.925 138.981Z" fill="#C1C1C1"/>
<path d="M438.458 374.534C438.458 374.534 437.81 375.413 438.587 375.117C438.587 375.117 439.745 375.177 439.513 374.131C439.406 373.652 439.098 373.5 438.721 373.505C438.675 373.506 438.431 374.497 438.458 374.534Z" fill="#C1C1C1"/>
<path d="M386.806 70.8202C386.806 70.8202 386.175 70.214 386.949 70.1797C386.949 70.1797 388.114 69.6238 387.857 70.7735C387.752 71.2401 387.496 71.5163 387.176 71.6821C387.118 71.7121 386.774 70.8755 386.806 70.8202Z" fill="#C1C1C1"/>
<path d="M127.955 422.989C127.955 422.989 128.551 423.618 127.784 423.632C127.784 423.632 126.606 424.161 126.914 423.008C127.036 422.549 127.294 422.278 127.61 422.118C127.67 422.088 127.99 422.933 127.955 422.989Z" fill="#C1C1C1"/>
<path d="M60.5182 276.762C60.5182 276.762 61.0627 275.795 61.3258 276.413C61.3258 276.413 62.325 276.974 60.8754 277.601C60.5191 277.755 60.2304 277.812 59.9937 277.8C59.8897 277.795 60.4158 276.782 60.5182 276.762Z" fill="#C1C1C1"/>
<path d="M460.227 223.999C460.227 223.999 459.644 224.961 459.412 224.33C459.412 224.33 458.449 223.736 459.912 223.143C460.272 222.997 460.561 222.948 460.795 222.966C460.897 222.974 460.329 223.983 460.227 223.999Z" fill="#C1C1C1"/>
<path d="M134.005 74.2563C134.005 74.2563 134.618 73.3689 133.848 73.6837C133.848 73.6837 132.676 73.6561 132.959 74.6838C133.089 75.1573 133.408 75.2983 133.79 75.2818C133.837 75.2798 134.034 74.2927 134.005 74.2563Z" fill="#C1C1C1"/>
<path d="M413.637 439.272C413.637 439.272 412.99 440.152 413.767 439.855C413.767 439.855 414.925 439.915 414.692 438.869C414.586 438.39 414.278 438.238 413.901 438.243C413.854 438.244 413.61 439.235 413.637 439.272Z" fill="#C1C1C1"/>
<path d="M363.36 16.3892C363.36 16.3892 362.73 15.783 363.504 15.7486C363.504 15.7486 364.669 15.1927 364.411 16.3425C364.307 16.8091 364.05 17.0853 363.731 17.2511C363.673 17.2811 363.329 16.4444 363.36 16.3892Z" fill="#C1C1C1"/>
<path d="M148.646 478.58C148.646 478.58 149.242 479.209 148.475 479.223C148.475 479.223 147.297 479.752 147.605 478.598C147.727 478.139 147.985 477.869 148.301 477.709C148.361 477.679 148.681 478.524 148.646 478.58Z" fill="#C1C1C1"/>
<path d="M24.8351 296.026C24.8351 296.026 18.1726 295.497 25.3978 291.351C25.3978 291.351 33.6966 283.72 37.1127 288.237C39.4864 291.376 34.7436 295.309 29.2041 298.808C27.8592 299.658 24.7494 297.522 24.8351 296.026Z" fill="#C1C1C1"/>
<path d="M496.657 205.505C496.657 205.505 503.158 206.043 495.751 210.068C495.751 210.068 487.027 217.492 484.014 213.072C481.899 209.969 486.977 206.096 492.754 202.671C494.035 201.912 496.847 204.099 496.657 205.505Z" fill="#C1C1C1"/>
<path d="M59.2297 341.503C59.2297 341.503 52.7968 341.277 60.0219 337.131C60.0219 337.131 68.4721 329.701 71.5465 333.766C73.7156 336.634 68.727 340.558 63.0635 344.076C61.8651 344.82 59.0768 342.82 59.2297 341.503Z" fill="#C1C1C1"/>
<path d="M464.634 158.527C464.634 158.527 471.135 159.065 463.728 163.09C463.728 163.09 455.004 170.513 451.991 166.093C449.876 162.99 454.954 159.117 460.731 155.693C462.012 154.933 464.824 157.12 464.634 158.527Z" fill="#C1C1C1"/>
<path d="M146.483 114.505C146.483 114.505 156.377 107.726 155.682 97.7014C155.682 97.7014 150.906 103.768 140.405 106.468C134.58 107.965 134.349 110.316 135.417 113.824C136.284 116.671 143.088 117.242 145.668 115.155C145.931 114.943 146.203 114.726 146.483 114.505Z" fill="#C1C1C1"/>
<path d="M403.143 398.299C403.143 398.299 393.044 404.872 393.27 415.011C393.27 415.011 398.275 409.018 408.788 406.579C414.598 405.231 414.953 402.876 414.07 399.328C413.352 396.443 406.54 395.704 403.875 397.745C403.638 397.926 403.394 398.111 403.143 398.299Z" fill="#C1C1C1"/>
<path d="M350.241 75.0583C350.241 75.0583 342.9 82.6532 343.362 72.3668C343.362 72.3668 339.334 59.306 349.843 57.2555C356.653 55.9267 358.523 62.1685 358.87 69.5262C359.014 72.5788 353.443 76.1465 350.786 75.24C350.608 75.1795 350.427 75.1189 350.241 75.0583Z" fill="#C1C1C1"/>
<path d="M162.118 432.789C162.118 432.789 169.73 425.323 168.801 435.694C168.801 435.694 172.184 448.99 161.693 450.773C154.91 451.926 153.339 445.604 153.327 438.188C153.322 435.126 159.118 431.658 161.725 432.643C161.854 432.692 161.985 432.74 162.118 432.789Z" fill="#C1C1C1"/>
<path d="M277.38 66.9441C277.38 66.9441 272.166 67.0441 282.348 57.9304C282.348 57.9304 303.144 55.6161 296.05 51.4419C291.035 48.4909 281.898 54.7612 273.376 61.9096C271.608 63.3922 274.778 67.0734 277.38 66.9441Z" fill="#C1C1C1"/>
<path d="M269.253 455.816C269.253 455.816 274.416 455.858 263.924 464.78C263.924 464.78 243.244 466.548 250.069 470.956C254.908 474.08 264.272 467.96 273.052 460.953C274.826 459.538 271.803 455.757 269.253 455.816Z" fill="#C1C1C1"/>
<path d="M9.98166 274.531C9.98166 274.531 10.6603 272.055 11.665 271.479C11.665 271.479 13.9203 271.822 14.6063 272.729C15.2924 273.636 13.707 274.479 12.7023 275.055C12.7023 275.055 11.0631 275.301 9.98166 274.531Z" fill="#C1C1C1"/>
<path d="M510.304 227.139C510.304 227.139 509.386 229.588 508.32 230.168C508.32 230.168 506.081 229.853 505.476 228.965C504.871 228.078 506.547 227.23 507.614 226.65C507.614 226.65 509.288 226.39 510.304 227.139Z" fill="#C1C1C1"/>
<path d="M34.0051 203.379C34.0051 203.379 34.6838 200.904 35.6885 200.327C35.6885 200.327 37.9437 200.67 38.6298 201.578C39.3159 202.485 37.7305 203.327 36.7258 203.904C36.7258 203.904 35.0865 204.15 34.0051 203.379Z" fill="#C1C1C1"/>
<path d="M483.051 298.525C483.051 298.525 482.134 300.974 481.067 301.554C481.067 301.554 478.829 301.239 478.224 300.351C477.618 299.464 479.295 298.615 480.361 298.036C480.361 298.036 482.035 297.776 483.051 298.525Z" fill="#C1C1C1"/>
<path d="M449.24 103.259C449.24 103.259 448.374 101.19 447.316 101.064C447.316 101.064 445.059 102.339 444.43 103.49C443.802 104.641 445.467 104.776 446.525 104.902C446.525 104.902 448.201 104.446 449.24 103.259Z" fill="#C1C1C1"/>
<path d="M51.1897 391.336C51.1897 391.336 51.9508 393.448 52.9919 393.604C52.9919 393.604 55.2834 392.379 55.9583 391.234C56.6331 390.089 54.9922 389.907 53.9511 389.751C53.9511 389.751 52.2718 390.165 51.1897 391.336Z" fill="#C1C1C1"/>
<path d="M167.423 93.9124C167.423 93.9124 169.131 91.9485 169.073 91.1025C169.073 91.1025 167.57 90.2961 166.44 90.5866C165.31 90.877 165.459 92.1673 165.517 93.0133C165.517 93.0133 166.195 93.9299 167.423 93.9124Z" fill="#C1C1C1"/>
<path d="M381.48 418.516C381.48 418.516 379.7 420.452 379.719 421.307C379.719 421.307 381.169 422.162 382.3 421.9C383.431 421.638 383.344 420.331 383.325 419.475C383.325 419.475 382.696 418.532 381.48 418.516Z" fill="#C1C1C1"/>
<path d="M328.939 64.0165C328.939 64.0165 327.195 62.8333 327.234 61.9652C327.234 61.9652 328.711 60.485 329.842 60.2644C330.972 60.0438 330.854 61.3944 330.815 62.2625C330.815 62.2625 330.162 63.48 328.939 64.0165Z" fill="#C1C1C1"/>
<path d="M182.685 444.518C182.685 444.518 184.356 445.761 184.277 446.636C184.277 446.636 182.748 448.09 181.619 448.282C180.491 448.474 180.67 447.113 180.748 446.238C180.748 446.238 181.451 445.027 182.685 444.518Z" fill="#C1C1C1"/>
<path d="M229.466 68.3121C229.466 68.3121 231.174 66.3483 231.115 65.5023C231.115 65.5023 229.612 64.6959 228.482 64.9863C227.352 65.2768 227.501 66.567 227.56 67.4131C227.56 67.4131 228.237 68.3297 229.466 68.3121Z" fill="#C1C1C1"/>
<path d="M318.924 442.665C318.924 442.665 317.144 444.601 317.163 445.456C317.163 445.456 318.613 446.312 319.744 446.049C320.875 445.787 320.787 444.48 320.768 443.624C320.768 443.624 320.14 442.681 318.924 442.665Z" fill="#C1C1C1"/>
<path d="M22.7859 363.758C22.7859 363.758 24.4941 361.794 24.4355 360.948C24.4355 360.948 22.9324 360.142 21.8025 360.433C20.6727 360.723 20.8214 362.013 20.88 362.859C20.88 362.859 21.5577 363.776 22.7859 363.758Z" fill="#C1C1C1"/>
<path d="M501.557 137.205C501.557 137.205 499.777 139.141 499.796 139.997C499.796 139.997 501.246 140.852 502.377 140.589C503.508 140.327 503.42 139.02 503.401 138.165C503.401 138.165 502.773 137.221 501.557 137.205Z" fill="#C1C1C1"/>
<path d="M266.632 66.5318C266.632 66.5318 264.888 65.3486 264.927 64.4805C264.927 64.4805 266.404 63.0003 267.535 62.7796C268.665 62.559 268.547 63.9096 268.508 64.7777C268.508 64.7777 267.855 65.9953 266.632 66.5318Z" fill="#C1C1C1"/>
<path d="M279.867 456.526C279.867 456.526 281.538 457.768 281.459 458.644C281.459 458.644 279.93 460.097 278.801 460.289C277.673 460.481 277.852 459.121 277.93 458.246C277.93 458.246 278.633 457.034 279.867 456.526Z" fill="#C1C1C1"/>
<path d="M4.20436 346.939C4.20436 346.939 7.09808 347.271 7.41963 348.027C7.41963 348.027 6.04097 349.863 4.59158 350.49C3.14218 351.117 2.7209 349.919 2.39935 349.163C2.39935 349.163 2.76613 347.871 4.20436 346.939Z" fill="#C1C1C1"/>
<path d="M519.167 154.692C519.167 154.692 516.319 154.277 516.035 153.505C516.035 153.505 517.484 151.69 518.946 151.096C520.409 150.503 520.771 151.724 521.055 152.496C521.055 152.496 520.633 153.791 519.167 154.692Z" fill="#C1C1C1"/>
<path d="M99.9026 145.595C99.9026 145.595 97.7799 144.629 96.8368 145.014C96.8368 145.014 95.886 146.841 96.1685 147.869C96.451 148.897 97.8912 148.249 98.8342 147.864C98.8342 147.864 99.878 146.827 99.9026 145.595Z" fill="#C1C1C1"/>
<path d="M450.656 368.185C450.656 368.185 452.712 369.219 453.662 368.855C453.662 368.855 454.687 367.037 454.455 365.992C454.223 364.947 452.768 365.561 451.817 365.924C451.817 365.924 450.737 366.942 450.656 368.185Z" fill="#C1C1C1"/>
<path d="M398.918 71.9778C398.918 71.9778 401.007 70.0594 401.954 70.0174C401.954 70.0174 402.942 71.4061 402.685 72.5559C402.427 73.7057 400.979 73.7112 400.032 73.7533C400.032 73.7533 398.97 73.1925 398.918 71.9778Z" fill="#C1C1C1"/>
<path d="M116.026 421.489C116.026 421.489 113.871 423.369 112.932 423.386C112.932 423.386 112.019 421.957 112.326 420.803C112.634 419.649 114.066 419.683 115.005 419.667C115.005 419.667 116.03 420.262 116.026 421.489Z" fill="#C1C1C1"/>
<path d="M63.1656 282.589C63.1656 282.589 62.7755 285.005 61.8035 285.692C61.8035 285.692 59.4124 285.702 58.5824 284.954C57.7525 284.206 59.2949 283.185 60.2669 282.498C60.2669 282.498 61.9416 282.027 63.1656 282.589Z" fill="#C1C1C1"/>
<path d="M457.876 218.045C457.876 218.045 458.373 215.617 459.366 214.95C459.366 214.95 461.732 215.005 462.519 215.783C463.306 216.561 461.733 217.549 460.74 218.216C460.74 218.216 459.061 218.646 457.876 218.045Z" fill="#C1C1C1"/>
<path d="M126.632 77.1584C126.632 77.1584 124.497 78.9754 124.424 79.8473C124.424 79.8473 125.897 80.8407 127.148 80.6703C128.398 80.5 128.446 79.1637 128.519 78.2918C128.519 78.2918 127.943 77.2782 126.632 77.1584Z" fill="#C1C1C1"/>
<path d="M421.065 436.544C421.065 436.544 423.261 434.768 423.373 433.89C423.373 433.89 421.961 432.847 420.716 432.985C419.471 433.122 419.362 434.47 419.25 435.348C419.25 435.348 419.773 436.387 421.065 436.544Z" fill="#C1C1C1"/>
<path d="M370.762 15.9509C370.762 15.9509 372.927 16.7958 373.019 17.6303C373.019 17.6303 371.577 19.2829 370.329 19.6775C369.081 20.0721 369.003 18.7642 368.91 17.9297C368.91 17.9297 369.46 16.6618 370.762 15.9509Z" fill="#C1C1C1"/>
<path d="M141.304 478.82C141.304 478.82 139.201 477.908 139.148 477.063C139.148 477.063 140.651 475.434 141.904 475.07C143.157 474.705 143.174 476.028 143.227 476.873C143.227 476.873 142.625 478.138 141.304 478.82Z" fill="#C1C1C1"/>
<path d="M252.955 65.671C252.955 65.671 251.972 63.9442 250.908 63.8345C250.908 63.8345 248.729 64.8852 248.168 65.8408C247.607 66.7964 249.276 66.9164 250.34 67.0261C250.34 67.0261 251.987 66.6547 252.955 65.671Z" fill="#C1C1C1"/>
<path d="M293.358 457.769C293.358 457.769 294.252 459.539 295.299 459.679C295.299 459.679 297.503 458.678 298.102 457.728C298.702 456.779 297.055 456.612 296.008 456.472C296.008 456.472 294.361 456.802 293.358 457.769Z" fill="#C1C1C1"/>
<path d="M47.9005 348.117C47.9005 348.117 46.9173 346.39 45.8537 346.281C45.8537 346.281 43.6742 347.331 43.113 348.287C42.5519 349.242 44.2216 349.362 45.2852 349.472C45.2852 349.472 46.9323 349.101 47.9005 348.117Z" fill="#C1C1C1"/>
<path d="M475.991 152.309C475.991 152.309 476.885 154.079 477.932 154.219C477.932 154.219 480.136 153.218 480.735 152.269C481.335 151.319 479.688 151.152 478.641 151.013C478.641 151.013 476.995 151.343 475.991 152.309Z" fill="#C1C1C1"/>
<path d="M241.29 62.299C241.29 62.299 242.229 60.1376 243.284 59.5487C243.284 59.5487 245.476 59.6109 246.057 60.3085C246.637 61.0061 244.978 61.8786 243.923 62.4674C243.923 62.4674 242.276 62.8408 241.29 62.299Z" fill="#C1C1C1"/>
<path d="M304.744 461.492C304.744 461.492 303.716 463.648 302.644 464.214C302.644 464.214 300.478 464.091 299.936 463.371C299.395 462.651 301.075 461.815 302.147 461.25C302.147 461.25 303.793 460.918 304.744 461.492Z" fill="#C1C1C1"/>
<path d="M36.2357 344.745C36.2357 344.745 37.1743 342.584 38.2299 341.995C38.2299 341.995 40.4222 342.057 41.0023 342.755C41.5824 343.452 39.924 344.325 38.8685 344.914C38.8685 344.914 37.2214 345.287 36.2357 344.745Z" fill="#C1C1C1"/>
<path d="M487.377 156.032C487.377 156.032 486.349 158.188 485.277 158.754C485.277 158.754 483.111 158.631 482.57 157.911C482.028 157.191 483.708 156.355 484.78 155.79C484.78 155.79 486.426 155.458 487.377 156.032Z" fill="#C1C1C1"/>
<path d="M7.72568 192.383C7.72568 192.383 8.76015 189.703 9.96577 189.011C9.96577 189.011 12.4994 189.195 13.1854 190.102C13.8715 191.009 11.9761 192.029 10.7705 192.721C10.7705 192.721 8.87672 193.113 7.72568 192.383Z" fill="#C1C1C1"/>
<path d="M508.338 311.121C508.338 311.121 507.421 313.57 506.354 314.15C506.354 314.15 504.116 313.835 503.51 312.948C502.905 312.06 504.582 311.212 505.648 310.632C505.648 310.632 507.322 310.372 508.338 311.121Z" fill="#C1C1C1"/>
</svg>
