<svg width="138" height="138" viewBox="0 0 138 138" fill="none" xmlns="http://www.w3.org/2000/svg">
<path d="M8.28253 100.96C8.25938 100.928 8.23389 100.894 8.21304 100.86C8.12842 100.723 7.89689 100.283 7.72432 99.3447C7.72931 99.301 7.73693 99.2586 7.74701 99.2176C8.31001 96.9241 12.5852 98.523 13.0824 100.574V100.574C13.6813 103.044 12.5827 102.295 9.99129 102.31C9.56922 102.312 9.01233 101.964 8.28253 100.96Z" fill="white"/>
<path d="M126.008 35.3254C126.029 35.3583 126.053 35.3939 126.072 35.4287C126.15 35.5695 126.359 36.02 126.488 36.972C126.484 36.9931 126.48 37.0138 126.476 37.0343C125.972 39.3446 121.612 37.6402 121.234 35.5358V35.5358C120.787 33.0537 121.698 34.0889 124.315 33.9164C124.741 33.8883 125.296 34.239 126.008 35.3254Z" fill="white"/>
<path d="M18.9409 46.4363C18.9892 46.4234 19.0422 46.4094 19.0898 46.3943C19.2781 46.3345 19.8433 46.1296 20.8448 45.5632V45.5632C22.2639 44.3931 18.691 43.1138 16.9943 43.833C16.4503 44.0636 15.9215 44.3541 15.4984 44.6533C13.9754 45.73 18.5994 43.8517 17.2748 45.1618C16.5396 45.8891 15.2889 47.4136 18.9409 46.4363Z" fill="white"/>
<path d="M117.378 89.2005C117.33 89.2122 117.277 89.2248 117.229 89.2388C117.04 89.2939 116.472 89.4849 115.456 90.0287V90.0287C114.009 91.1628 117.479 92.559 119.18 91.886C119.738 91.6652 120.284 91.3811 120.721 91.0856C122.256 90.0467 117.586 91.8224 118.947 90.5551C119.703 89.8507 121.072 88.3071 117.378 89.2005Z" fill="white"/>
<path d="M108.583 23.9188C108.537 23.9279 108.486 23.9381 108.44 23.9449C108.253 23.9721 107.686 24.0302 106.673 23.9288V23.9288C104.789 23.2624 108.631 20.4098 110.78 20.4241C110.923 20.4251 111.063 20.4306 111.2 20.4405C113.591 20.6142 110.331 20.6842 111.027 22.5819C111.181 22.9993 110.738 23.4981 108.583 23.9188Z" fill="white"/>
<path d="M23.3264 110.182C23.3726 110.174 23.4229 110.165 23.4691 110.16C23.6545 110.137 24.2184 110.095 25.2164 110.225V110.225C27.0872 110.966 23.1333 113.732 20.9718 113.648C20.8607 113.643 20.7512 113.636 20.644 113.626C18.221 113.403 21.0933 113.437 20.8306 111.384C20.7787 110.977 21.3083 110.524 23.3264 110.182Z" fill="white"/>
<path d="M17.1289 53.5297C16.8231 53.1158 16.9595 52.8638 17.878 52.3242C18.7303 52.2713 19.2274 52.2765 19.4854 52.3165C20.3504 52.4507 17.5437 54.0913 17.5437 54.0913V54.0913C17.014 53.5758 17.4346 53.9436 17.1289 53.5297Z" fill="white"/>
<path d="M119.416 82.0581C119.73 82.5306 119.604 82.7882 118.718 83.2813C117.922 83.2595 117.44 83.2114 117.175 83.149C116.345 82.9537 118.989 81.4169 118.989 81.4169V81.4169C119.527 82.0193 119.101 81.5855 119.416 82.0581Z" fill="white"/>
<path d="M110.473 30.2027C110.8 29.5899 110.679 29.3863 109.799 29.2793C109.083 29.6112 108.619 29.854 108.338 30.0295C107.567 30.5103 110.029 31.0342 110.029 31.0342V31.0342C110.584 30.1927 110.146 30.8154 110.473 30.2027Z" fill="white"/>
<path d="M21.7392 103.785C21.3884 104.395 21.4987 104.604 22.3639 104.736C23.0819 104.424 23.55 104.193 23.8368 104.024C24.6155 103.566 22.2153 102.958 22.2153 102.958V102.958C21.6288 103.792 22.0901 103.176 21.7392 103.785Z" fill="white"/>
<path d="M55.1251 5.07315C55.7964 4.89643 55.9788 4.66898 55.9301 3.94903C55.4969 3.66486 55.183 3.4921 54.9595 3.39995C54.3932 3.16641 54.2142 5.31294 54.2142 5.31294V5.31294C55.1548 5.14818 54.4538 5.24987 55.1251 5.07315Z" fill="white"/>
<path d="M89.081 133.42C88.409 133.579 88.2183 133.804 88.2341 134.532C88.6515 134.832 88.9551 135.016 89.1722 135.115C89.7255 135.367 89.993 133.203 89.993 133.203V133.203C89.0551 133.343 89.7531 133.26 89.081 133.42Z" fill="white"/>
<path d="M75.6 2.12352C74.9282 2.25728 74.7417 2.11511 74.7741 1.3764C75.2032 0.888982 75.5137 0.570829 75.7344 0.376612C76.3021 -0.122841 76.5116 1.94202 76.5116 1.94202V1.94202C75.5722 2.21183 76.2719 1.98976 75.6 2.12352Z" fill="white"/>
<path d="M58.7513 135.887C59.422 135.771 59.6001 135.919 59.5349 136.664C59.0865 137.147 58.7642 137.46 58.5369 137.65C57.9486 138.141 57.8414 136.046 57.8414 136.046V136.046C58.7828 135.799 58.0807 136.004 58.7513 135.887Z" fill="white"/>
<path d="M15.5375 66.0275C16.2852 65.6964 16.037 67.2285 16.3121 67.8897C15.9798 68.5025 15.719 68.8596 15.5144 69.0376C14.7618 69.6925 13.3349 66.5302 13.3349 66.5302V66.5302C14.3453 65.9943 14.7897 66.3586 15.5375 66.0275Z" fill="white"/>
<path d="M121.625 69.5169C120.871 69.8302 121.185 68.2905 120.943 67.6153C121.299 67.0052 121.574 66.6519 121.784 66.4781C122.56 65.8375 123.827 69.071 123.827 69.071V69.071C122.803 69.5837 122.38 69.2035 121.625 69.5169Z" fill="white"/>
<path d="M116.774 40.9652C116.023 40.9812 116.304 42.3907 116.045 43.1755C116.429 43.684 116.717 43.9173 116.933 43.9716C117.898 44.2138 118.976 40.4481 118.976 40.4481V40.4481C117.959 40.3816 117.525 40.9493 116.774 40.9652Z" fill="white"/>
<path d="M20.3452 91.9856C21.0891 91.9905 20.8743 90.5597 21.1657 89.7747C20.8039 89.2432 20.5265 89.0001 20.3138 88.9437C19.342 88.6856 18.1431 92.446 18.1431 92.446V92.446C19.1464 92.5416 19.6012 91.9807 20.3452 91.9856Z" fill="white"/>
<path d="M44.1635 14.2212C44.0178 13.6784 42.6999 14.8334 41.8941 15.1705C41.3547 15.9605 41.2155 16.3421 41.2963 16.4808C41.8209 17.3813 45.0467 15.4961 45.0467 15.4961V15.4961C44.9348 14.702 44.3092 14.764 44.1635 14.2212Z" fill="white"/>
<path d="M100.337 124.491C100.456 125.043 101.812 123.914 102.624 123.596C103.191 122.817 103.347 122.436 103.276 122.292C102.816 121.361 99.5201 123.179 99.5201 123.179V123.179C99.5951 123.984 100.217 123.939 100.337 124.491Z" fill="white"/>
<path d="M86.7097 6.16293C86.8426 5.55563 88.1794 6.09607 88.9886 6.05927C89.4752 6.5306 89.6479 6.83121 89.6305 7.01623C89.5366 8.01137 85.8596 7.83914 85.8596 7.83914V7.83914C85.9531 6.99744 86.5769 6.77024 86.7097 6.16293Z" fill="white"/>
<path d="M47.942 131.499C47.7833 132.109 46.485 131.526 45.6828 131.54C45.229 131.058 45.0697 130.751 45.0898 130.564C45.1954 129.584 48.8584 129.831 48.8584 129.831V129.831C48.728 130.678 48.1007 130.89 47.942 131.499Z" fill="white"/>
<path d="M6.572 59.7351C7.31976 59.404 7.07159 60.936 7.34664 61.5972C7.01436 62.21 6.75354 62.5671 6.54895 62.7451C5.79634 63.4001 4.36946 60.2377 4.36946 60.2377V60.2377C5.37987 59.7019 5.82423 60.0661 6.572 59.7351Z" fill="white"/>
<path d="M130.212 76.1204C129.458 76.4337 129.772 74.894 129.53 74.2188C129.886 73.6087 130.161 73.2554 130.371 73.0816C131.147 72.4411 132.414 75.6745 132.414 75.6745V75.6745C131.39 76.1873 130.967 75.8071 130.212 76.1204Z" fill="white"/>
<path d="M121.189 31.4359C120.437 31.4519 120.718 32.8614 120.46 33.6462C120.843 34.1547 121.132 34.388 121.348 34.4423C122.313 34.6845 123.391 30.9188 123.391 30.9188V30.9188C122.374 30.8523 121.94 31.42 121.189 31.4359Z" fill="white"/>
<path d="M11.1933 102.24C11.9373 102.245 11.7225 100.814 12.0138 100.029C11.652 99.4976 11.3746 99.2545 11.162 99.198C10.1902 98.94 8.99124 102.7 8.99124 102.7V102.7C9.99453 102.796 10.4493 102.235 11.1933 102.24Z" fill="white"/>
<path d="M55.7698 13.6939C55.6241 13.151 54.3062 14.3061 53.5004 14.6432C52.961 15.4331 52.8218 15.8148 52.9027 15.9535C53.4272 16.854 56.653 14.9688 56.653 14.9688V14.9688C56.5412 14.1746 55.9156 14.2367 55.7698 13.6939Z" fill="white"/>
<path d="M88.8306 124.698C88.9504 125.25 90.3061 124.121 91.1184 123.803C91.6846 123.025 91.8408 122.644 91.7697 122.5C91.3104 121.569 88.0141 123.387 88.0141 123.387V123.387C88.0891 124.191 88.7108 124.146 88.8306 124.698Z" fill="white"/>
<path d="M75.1517 10.9984C75.2846 10.3911 76.6215 10.9315 77.4306 10.8947C77.9173 11.366 78.0899 11.6667 78.0725 11.8517C77.9787 12.8468 74.3016 12.6746 74.3016 12.6746V12.6746C74.3951 11.8329 75.0189 11.6057 75.1517 10.9984Z" fill="white"/>
<path d="M59.5939 126.941C59.4351 127.551 58.1368 126.968 57.3347 126.982C56.8808 126.499 56.7215 126.193 56.7417 126.006C56.8473 125.026 60.5102 125.273 60.5102 125.273V125.273C60.3798 126.12 59.7526 126.332 59.5939 126.941Z" fill="white"/>
<path d="M13.6211 86.7283C13.2671 86.2492 15.3141 85.7336 16.2462 85.186C17.5045 85.1733 17.9035 85.3144 17.8579 85.5144C17.5839 86.7148 14.0224 88.3637 14.0224 88.3637V88.3637C13.4241 87.7583 13.975 87.2074 13.6211 86.7283Z" fill="white"/>
<path d="M124.433 48.7714C124.745 49.2403 122.778 49.6923 121.867 50.1992C120.657 50.1841 120.291 50.0359 120.356 49.8406C120.736 48.7012 124.133 47.1885 124.133 47.1885V47.1885C124.67 47.7842 124.121 48.3025 124.433 48.7714Z" fill="white"/>
<path d="M25.4985 29.1428C26.1785 28.9638 25.4076 27.7983 25.3575 27.0581C24.8324 26.7068 24.4874 26.5655 24.2694 26.5602C23.3331 26.5376 23.6768 30.077 23.6768 30.077V30.077C24.6296 29.9114 24.8185 29.3218 25.4985 29.1428Z" fill="white"/>
<path d="M119.472 109.95C118.792 110.111 119.502 111.309 119.518 112.058C120.025 112.43 120.362 112.582 120.577 112.591C121.514 112.633 121.317 109.057 121.317 109.057V109.057C120.367 109.198 120.153 109.788 119.472 109.95Z" fill="white"/>
<path d="M106.041 8.8711C105.36 9.00705 106.101 7.49156 106.135 6.73204C106.659 6.12913 107.002 5.82916 107.218 5.72857C108.179 5.28119 107.874 8.95921 107.874 8.95921V8.95921C106.922 9.23442 106.721 8.73515 106.041 8.8711Z" fill="white"/>
<path d="M29.522 124.687C30.2013 124.568 29.4002 126.078 29.3332 126.843C28.7821 127.443 28.4276 127.737 28.2098 127.829C27.224 128.247 27.7124 124.546 27.7124 124.546V124.546C28.6662 124.295 28.8427 124.805 29.522 124.687Z" fill="white"/>
<path d="M61.4946 11.0901C61.294 11.6274 63.2211 11.1041 64.1717 11.1118C65.2085 10.5896 65.5568 10.3005 65.5298 10.1529C65.3524 9.18439 61.4672 9.62209 61.4672 9.62209V9.62209C61.0803 10.3696 61.6951 10.5528 61.4946 11.0901Z" fill="white"/>
<path d="M82.4674 130.704C82.69 130.167 80.76 130.642 79.8199 130.607C78.7907 131.096 78.427 131.377 78.4325 131.529C78.4686 132.528 82.4286 132.187 82.4286 132.187V132.187C82.8449 131.443 82.2449 131.241 82.4674 130.704Z" fill="white"/>
<path d="M68.8927 7.75216C69.1043 8.19406 67.1754 8.56342 66.2299 9.01007C64.9946 8.96193 64.7272 8.79296 64.9068 8.59228C65.7249 7.67834 68.8871 6.2791 68.8871 6.2791V6.2791C69.2887 6.84409 68.6811 7.31026 68.8927 7.75216Z" fill="white"/>
<path d="M74.9984 133.867C74.809 133.415 76.7338 133.096 77.6892 132.672C78.9089 132.755 79.166 132.933 78.9796 133.131C78.1297 134.031 74.9377 135.355 74.9377 135.355V135.355C74.5659 134.773 75.1878 134.319 74.9984 133.867Z" fill="white"/>
<path d="M5.07089 71.732C5.07089 71.732 4.99734 71.7753 4.59923 72.0092C4.59923 72.0092 3.97834 72.2181 4.15957 72.4635C4.34081 72.7088 4.94565 72.3353 5.34375 72.1014C5.34375 72.1014 5.45172 71.8513 5.07089 71.732Z" fill="white"/>
<path d="M132.301 64.1021C132.301 64.1021 132.379 64.0587 132.801 63.8236C132.801 63.8236 133.481 63.6638 133.241 63.3037C133.002 62.9435 132.362 63.3248 131.94 63.5599C131.94 63.5599 131.85 63.8715 132.301 64.1021Z" fill="white"/>
<path d="M11.4172 52.4869C11.4172 52.4869 11.3437 52.5301 10.9455 52.764C10.9455 52.764 10.3246 52.973 10.5059 53.2184C10.6871 53.4637 11.292 53.0902 11.6901 52.8563C11.6901 52.8563 11.798 52.6062 11.4172 52.4869Z" fill="white"/>
<path d="M125.101 83.4112C125.101 83.4112 125.179 83.3677 125.602 83.1327C125.602 83.1327 126.282 82.9729 126.042 82.6127C125.802 82.2526 125.163 82.6339 124.74 82.8689C124.74 82.8689 124.651 83.1806 125.101 83.4112Z" fill="white"/>
<path d="M116.217 26.35C116.217 26.35 116.295 26.3594 116.714 26.4104C116.714 26.4104 117.394 26.2729 117.144 26.7399C116.895 27.207 116.261 27.1042 115.842 27.0531C115.842 27.0531 115.759 26.7792 116.217 26.35Z" fill="white"/>
<path d="M15.8833 107.514C15.8833 107.514 15.8071 107.502 15.3946 107.439C15.3946 107.439 14.7159 107.559 14.9833 107.094C15.2507 106.63 15.8734 106.751 16.2859 106.814C16.2859 106.814 16.3555 107.093 15.8833 107.514Z" fill="white"/>
<path d="M45.1343 22.5808C45.1343 22.5808 45.1386 22.6442 45.1618 22.9874C45.1618 22.9874 45.3696 23.4072 44.9716 23.5119C44.5736 23.6167 44.5583 23.0817 44.5351 22.7385C44.5351 22.7385 44.7344 22.5069 45.1343 22.5808Z" fill="white"/>
<path d="M99.7517 116.024C99.7517 116.024 99.7503 115.96 99.7428 115.613C99.7428 115.613 99.5561 115.183 99.9545 115.089C100.353 114.994 100.344 115.535 100.352 115.882C100.352 115.882 100.144 116.11 99.7517 116.024Z" fill="white"/>
<path d="M85.9307 14.9279C85.9307 14.9279 85.9279 14.9929 85.9124 15.3451C85.9124 15.3451 85.7151 15.8587 86.1133 15.7791C86.5116 15.6995 86.5148 15.1603 86.5303 14.8081C86.5303 14.8081 86.3269 14.6697 85.9307 14.9279Z" fill="white"/>
<path d="M49.1066 122.672C49.1066 122.672 49.1123 122.607 49.1434 122.252C49.1434 122.252 49.3617 121.739 48.9641 121.808C48.5666 121.877 48.5391 122.421 48.508 122.777C48.508 122.777 48.703 122.922 49.1066 122.672Z" fill="white"/>
<path d="M61.0945 19.1726C61.0945 19.1726 61.0988 19.236 61.122 19.5792C61.122 19.5792 61.3298 19.999 60.9318 20.1037C60.5338 20.2085 60.5186 19.6735 60.4953 19.3303C60.4953 19.3303 60.6946 19.0987 61.0945 19.1726Z" fill="white"/>
<path d="M83.2262 122.556C83.2262 122.556 83.2248 122.492 83.2173 122.145C83.2173 122.145 83.0306 121.715 83.429 121.621C83.8274 121.526 83.8185 122.066 83.826 122.414C83.826 122.414 83.6185 122.642 83.2262 122.556Z" fill="white"/>
<path d="M6.92564 95.57C6.92564 95.57 6.92993 95.6334 6.95315 95.9767C6.95315 95.9767 7.16093 96.3964 6.76298 96.5012C6.36502 96.6059 6.34973 96.071 6.32651 95.7277C6.32651 95.7277 6.52574 95.4962 6.92564 95.57Z" fill="white"/>
<path d="M131.472 39.9345C131.472 39.9345 131.471 39.8703 131.463 39.5231C131.463 39.5231 131.277 39.0936 131.675 38.999C132.073 38.9043 132.064 39.4448 132.072 39.792C132.072 39.792 131.865 40.0202 131.472 39.9345Z" fill="white"/>
<path d="M69.4711 15.608C69.4711 15.608 69.4683 15.6731 69.4528 16.0253C69.4528 16.0253 69.2555 16.5388 69.6537 16.4593C70.052 16.3797 70.0553 15.8405 70.0707 15.4883C70.0707 15.4883 69.8673 15.3499 69.4711 15.608Z" fill="white"/>
<path d="M74.7789 125.92C74.7789 125.92 74.7847 125.855 74.8158 125.5C74.8158 125.5 75.0341 124.987 74.6365 125.056C74.2389 125.125 74.2115 125.669 74.1804 126.025C74.1804 126.025 74.3754 126.17 74.7789 125.92Z" fill="white"/>
<path d="M9.09949 87.2067C9.09949 87.2067 9.07593 87.15 8.94838 86.8434C8.94838 86.8434 9.02955 86.3144 8.45517 86.5687C7.88078 86.8231 8.10719 87.283 8.23474 87.5896C8.23474 87.5896 8.60488 87.6118 9.09949 87.2067Z" fill="white"/>
<path d="M128.946 48.3163C128.946 48.3163 128.966 48.3742 129.079 48.6873C129.079 48.6873 128.975 49.219 129.554 48.9784C130.134 48.7377 129.931 48.2671 129.818 47.954C129.818 47.954 129.453 47.9211 128.946 48.3163Z" fill="white"/>
<path d="M2.61695 84.5836C2.61695 84.5836 2.59338 84.527 2.46584 84.2204C2.46584 84.2204 2.54701 83.6914 1.97262 83.9457C1.39824 84.2 1.62465 84.6599 1.75219 84.9665C1.75219 84.9665 2.12234 84.9888 2.61695 84.5836Z" fill="white"/>
<path d="M135.241 51.1459C135.241 51.1459 135.262 51.2038 135.375 51.5169C135.375 51.5169 135.27 52.0486 135.85 51.808C136.43 51.5673 136.226 51.0967 136.114 50.7836C136.114 50.7836 135.749 50.7507 135.241 51.1459Z" fill="white"/>
<path d="M27.8102 31.458C27.8102 31.458 27.8793 31.4291 28.2529 31.2728C28.2529 31.2728 28.7108 30.8759 28.8227 31.2928C28.9347 31.7098 28.3524 31.9294 27.9788 32.0857C27.9788 32.0857 27.7278 31.9447 27.8102 31.458Z" fill="white"/>
<path d="M117.289 107.547C117.289 107.547 117.22 107.574 116.843 107.722C116.843 107.722 116.372 108.11 116.28 107.686C116.188 107.262 116.774 107.056 117.151 106.909C117.151 106.909 117.393 107.058 117.289 107.547Z" fill="white"/>
<path d="M103.793 12.2419C103.793 12.2419 103.723 12.245 103.348 12.2621C103.348 12.2621 102.884 12.0787 102.782 12.5452C102.68 13.0117 103.264 12.9612 103.639 12.9442C103.639 12.9442 103.886 12.6879 103.793 12.2419Z" fill="white"/>
<path d="M31.8975 121.346C31.8975 121.346 31.9663 121.345 32.3382 121.338C32.3382 121.338 32.7894 121.536 32.9113 121.068C33.0332 120.6 32.453 120.635 32.0811 120.641C32.0811 120.641 31.8257 120.893 31.8975 121.346Z" fill="white"/>
<path d="M11.1927 82.2785C11.1927 82.2785 11.2638 82.227 11.649 81.9483C11.649 81.9483 12.3177 81.7042 11.9888 81.4008C11.6599 81.0973 11.0827 81.5429 10.6975 81.8216C10.6975 81.8216 10.6745 82.1255 11.1927 82.2785Z" fill="white"/>
<path d="M126.654 53.2327C126.654 53.2327 126.581 53.2827 126.187 53.5533C126.187 53.5533 125.515 53.781 125.827 54.0966C126.138 54.4121 126.729 53.9784 127.123 53.7078C127.123 53.7078 127.159 53.4017 126.654 53.2327Z" fill="white"/>
<path d="M31.246 27.196C31.246 27.196 31.2514 27.1306 31.2802 26.7769C31.2802 26.7769 31.0999 26.3271 31.5955 26.258C32.091 26.1888 32.0209 26.7381 31.9921 27.0919C31.9921 27.0919 31.7144 27.3099 31.246 27.196Z" fill="white"/>
<path d="M113.699 111.754C113.699 111.754 113.691 111.82 113.646 112.176C113.646 112.176 113.804 112.635 113.311 112.691C112.818 112.747 112.912 112.194 112.956 111.838C112.956 111.838 113.241 111.626 113.699 111.754Z" fill="white"/>
<path d="M100.28 9.58861C100.28 9.58861 100.273 9.52605 100.236 9.18747C100.236 9.18747 100.406 8.65677 99.911 8.81685C99.4165 8.97694 99.4985 9.49103 99.5351 9.82962C99.5351 9.82962 99.8162 9.91829 100.28 9.58861Z" fill="white"/>
<path d="M35.254 124.123C35.254 124.123 35.2579 124.187 35.2789 124.529C35.2789 124.529 35.0876 125.06 35.584 124.913C36.0804 124.765 36.0224 124.244 36.0014 123.901C36.0014 123.901 35.7273 123.803 35.254 124.123Z" fill="white"/>
<path d="M60.3374 15.6593C60.3374 15.6593 60.4152 15.6676 60.8367 15.7121C60.8367 15.7121 61.5074 15.6008 61.2851 15.9886C61.0627 16.3763 60.424 16.2876 60.0026 16.2431C60.0026 16.2431 59.9045 16.0145 60.3374 15.6593Z" fill="white"/>
<path d="M83.8174 126.124C83.8174 126.124 83.7408 126.114 83.3258 126.057C83.3258 126.057 82.6572 126.151 82.8946 125.765C83.132 125.38 83.7599 125.488 84.1748 125.544C84.1748 125.544 84.2616 125.778 83.8174 126.124Z" fill="white"/>
<path d="M70.1458 11.7631C70.1458 11.7631 70.0686 11.8073 69.6503 12.0462C69.6503 12.0462 68.9805 12.2453 69.2104 12.5283C69.4402 12.8114 70.0736 12.4282 70.4919 12.1893C70.4919 12.1893 70.5844 11.9166 70.1458 11.7631Z" fill="white"/>
<path d="M73.9387 129.783C73.9387 129.783 74.0171 129.741 74.4416 129.511C74.4416 129.511 75.1132 129.329 74.8985 129.037C74.6838 128.745 74.04 129.114 73.6155 129.343C73.6155 129.343 73.5117 129.616 73.9387 129.783Z" fill="white"/>
<path d="M13.748 68.0614C13.748 68.0614 13.6745 68.1047 13.2764 68.3386C13.2764 68.3386 12.6153 68.4932 12.8872 68.8612C13.159 69.2293 13.7592 68.8494 14.1573 68.6155C14.1573 68.6155 14.2172 68.3004 13.748 68.0614Z" fill="white"/>
<path d="M123.337 67.5069C123.337 67.5069 123.415 67.4634 123.837 67.2284C123.837 67.2284 124.517 67.0686 124.278 66.7084C124.038 66.3483 123.398 66.7296 122.976 66.9646C122.976 66.9646 122.886 67.2763 123.337 67.5069Z" fill="white"/>
<path d="M118.448 42.2347C118.448 42.2347 118.526 42.2442 118.945 42.2952C118.945 42.2952 119.625 42.1576 119.376 42.6247C119.127 43.0918 118.493 42.9889 118.073 42.9379C118.073 42.9379 117.991 42.664 118.448 42.2347Z" fill="white"/>
<path d="M18.7457 90.6573C18.7457 90.6573 18.6695 90.6456 18.257 90.5823C18.257 90.5823 17.5783 90.7022 17.8458 90.2377C18.1132 89.7731 18.7358 89.8947 19.1483 89.9579C19.1483 89.9579 19.218 90.2368 18.7457 90.6573Z" fill="white"/>
<path d="M43.0884 16.3439C43.0884 16.3439 43.0927 16.4074 43.1159 16.7506C43.1159 16.7506 43.3237 17.1703 42.9257 17.2751C42.5277 17.3799 42.5125 16.8449 42.4892 16.5017C42.4892 16.5017 42.6885 16.2701 43.0884 16.3439Z" fill="white"/>
<path d="M101.496 122.378C101.496 122.378 101.494 122.314 101.487 121.967C101.487 121.967 101.3 121.537 101.698 121.443C102.097 121.348 102.088 121.889 102.095 122.236C102.095 122.236 101.888 122.464 101.496 122.378Z" fill="white"/>
<path d="M87.8266 7.77797C87.8266 7.77797 87.8237 7.84304 87.8083 8.19524C87.8083 8.19524 87.611 8.70877 88.0092 8.62921C88.4075 8.54964 88.4107 8.01039 88.4262 7.65818C88.4262 7.65818 88.2228 7.51981 87.8266 7.77797Z" fill="white"/>
<path d="M46.9097 129.837C46.9097 129.837 46.9154 129.772 46.9465 129.417C46.9465 129.417 47.1648 128.904 46.7672 128.973C46.3697 129.042 46.3422 129.586 46.3111 129.942C46.3111 129.942 46.5061 130.087 46.9097 129.837Z" fill="white"/>
<path d="M0.323684 74.1522C0.323684 74.1522 0.0488298 74.1175 0.222628 74.0154C0.222628 74.0154 0.378314 73.768 0.559701 74.0136C0.633579 74.1136 0.631335 74.1969 0.590979 74.2674C0.583748 74.2801 0.327929 74.1664 0.323684 74.1522V74.1522Z" fill="white"/>
<path d="M137.082 61.8024C137.082 61.8024 137.401 61.8081 137.171 61.9362C137.171 61.9362 136.929 62.2165 136.769 61.9764C136.689 61.856 136.741 61.7494 136.841 61.6569C136.85 61.6487 137.08 61.7906 137.082 61.8024V61.8024Z" fill="white"/>
<path d="M6.77329 54.8469C6.77329 54.8469 6.41204 54.8631 6.67232 54.7102C6.67232 54.7102 6.9455 54.3939 7.12674 54.6393C7.22078 54.7666 7.1554 54.8879 7.03436 54.9966C7.02522 55.0048 6.77491 54.8588 6.77329 54.8469V54.8469Z" fill="white"/>
<path d="M129.883 81.1115C129.883 81.1115 130.202 81.1172 129.972 81.2453C129.972 81.2453 129.73 81.5256 129.57 81.2854C129.49 81.1651 129.541 81.0585 129.641 80.966C129.65 80.9578 129.881 81.0997 129.883 81.1115V81.1115Z" fill="white"/>
<path d="M120.97 26.5655C120.97 26.5655 121.291 26.4199 121.063 26.3921C121.063 26.3921 120.826 26.2164 120.66 26.5278C120.593 26.6533 120.612 26.7325 120.673 26.7843C120.684 26.7938 120.968 26.5811 120.97 26.5655V26.5655Z" fill="white"/>
<path d="M11.1907 107.164C11.1907 107.164 10.8666 107.302 11.0914 107.336C11.0914 107.336 11.3176 107.52 11.4959 107.21C11.5662 107.088 11.5534 107.009 11.4984 106.955C11.4877 106.944 11.1936 107.148 11.1907 107.164V107.164Z" fill="white"/>
<path d="M45.8038 26.2131C45.8038 26.2131 46.0382 26.3418 46.0256 26.1548C46.0256 26.1548 46.1846 25.8544 45.7867 25.9592C45.6794 25.9874 45.604 26.0286 45.5512 26.0774C45.5307 26.0964 45.7799 26.2256 45.8038 26.2131V26.2131Z" fill="white"/>
<path d="M99.2524 112.338C99.2524 112.338 99.0263 112.202 99.0304 112.391C99.0304 112.391 98.8595 112.69 99.258 112.595C99.3673 112.569 99.4446 112.529 99.4992 112.48C99.5199 112.461 99.2764 112.327 99.2524 112.338V112.338Z" fill="white"/>
<path d="M85.3456 18.8507C85.3456 18.8507 85.1153 19.0869 85.1237 18.895C85.1237 18.895 84.9588 18.6697 85.357 18.5901C85.4696 18.5676 85.5477 18.5755 85.6016 18.6027C85.6213 18.6126 85.369 18.852 85.3456 18.8507V18.8507Z" fill="white"/>
<path d="M49.8615 118.728C49.8615 118.728 50.1 118.496 50.083 118.69C50.083 118.69 50.2361 118.922 49.8385 118.991C49.7235 119.011 49.6457 119 49.5935 118.969C49.5751 118.959 49.8387 118.726 49.8615 118.728V118.728Z" fill="white"/>
<path d="M61.7642 22.8049C61.7642 22.8049 61.9985 22.9336 61.9859 22.7466C61.9859 22.7466 62.1449 22.4462 61.747 22.551C61.6397 22.5792 61.5643 22.6204 61.5116 22.6692C61.491 22.6882 61.7402 22.8174 61.7642 22.8049V22.8049Z" fill="white"/>
<path d="M82.7269 118.871C82.7269 118.871 82.5008 118.734 82.5049 118.923C82.5049 118.923 82.334 119.222 82.7324 119.127C82.8418 119.101 82.9191 119.061 82.9737 119.012C82.9944 118.993 82.7509 118.859 82.7269 118.871V118.871Z" fill="white"/>
<path d="M7.59534 99.2024C7.59534 99.2024 7.82971 99.331 7.81705 99.144C7.81705 99.144 7.97612 98.8437 7.57816 98.9484C7.47092 98.9767 7.39549 99.0179 7.34275 99.0666C7.3222 99.0856 7.57138 99.2148 7.59534 99.2024V99.2024Z" fill="white"/>
<path d="M130.973 36.2485C130.973 36.2485 130.747 36.112 130.751 36.3012C130.751 36.3012 130.58 36.5999 130.978 36.5053C131.088 36.4793 131.165 36.4389 131.22 36.3899C131.24 36.3713 130.997 36.2367 130.973 36.2485V36.2485Z" fill="white"/>
<path d="M68.8861 19.5314C68.8861 19.5314 68.6558 19.7676 68.6642 19.5757C68.6642 19.5757 68.4993 19.3504 68.8975 19.2708C69.0102 19.2483 69.0883 19.2562 69.1422 19.2834C69.1618 19.2933 68.9096 19.5327 68.8861 19.5314V19.5314Z" fill="white"/>
<path d="M75.534 121.976C75.534 121.976 75.7724 121.744 75.7555 121.938C75.7555 121.938 75.9086 122.17 75.511 122.239C75.396 122.259 75.3181 122.248 75.266 122.217C75.2476 122.207 75.5112 121.974 75.534 121.976V121.976Z" fill="white"/>
<path d="M14.7173 95.9284C14.7173 95.9284 14.487 96.1646 14.4954 95.9727C14.4954 95.9727 14.3305 95.7473 14.7287 95.6678C14.8413 95.6453 14.9194 95.6531 14.9733 95.6804C14.993 95.6903 14.7407 95.9296 14.7173 95.9284V95.9284Z" fill="white"/>
<path d="M123.78 39.3542C123.78 39.3542 124.018 39.1222 124.001 39.3157C124.001 39.3157 124.155 39.5478 123.757 39.617C123.642 39.637 123.564 39.6259 123.512 39.5954C123.494 39.5847 123.757 39.3523 123.78 39.3542V39.3542Z" fill="white"/>
<path d="M0.559324 90.8924C0.559324 90.8924 0.703115 90.6312 0.772727 90.7982C0.772727 90.7982 1.0369 90.95 0.653857 91.1192C0.557664 91.1617 0.480101 91.1767 0.416775 91.1728C0.389716 91.1711 0.532601 90.8976 0.559324 90.8924V90.8924Z" fill="white"/>
<path d="M137.561 44.8351C137.561 44.8351 137.407 45.095 137.346 44.9245C137.346 44.9245 137.091 44.7639 137.478 44.6034C137.575 44.563 137.653 44.55 137.715 44.5559C137.742 44.5584 137.587 44.8306 137.561 44.8351V44.8351Z" fill="white"/>
<path d="M29.5671 37.5923C29.5671 37.5923 29.7291 37.3523 29.5255 37.4374C29.5255 37.4374 29.216 37.43 29.2906 37.7079C29.3246 37.8345 29.4074 37.8732 29.5068 37.8698C29.5195 37.8694 29.5749 37.6023 29.5671 37.5923V37.5923Z" fill="white"/>
<path d="M115.827 101.306C115.827 101.306 115.656 101.544 115.861 101.463C115.861 101.463 116.167 101.48 116.105 101.197C116.078 101.069 115.998 101.027 115.9 101.027C115.887 101.028 115.819 101.296 115.827 101.306V101.306Z" fill="white"/>
<path d="M102.182 19.156C102.182 19.156 102.015 18.9921 102.22 18.9828C102.22 18.9828 102.527 18.8324 102.459 19.1434C102.432 19.2671 102.367 19.3414 102.285 19.3865C102.269 19.3951 102.173 19.1712 102.182 19.156V19.156Z" fill="white"/>
<path d="M33.8017 114.412C33.8017 114.412 33.9591 114.582 33.7565 114.586C33.7565 114.586 33.4452 114.729 33.5265 114.417C33.5582 114.295 33.6244 114.222 33.7054 114.179C33.7217 114.17 33.8109 114.396 33.8017 114.412V114.412Z" fill="white"/>
<path d="M15.987 74.8598C15.987 74.8598 16.1308 74.5983 16.2003 74.7654C16.2003 74.7654 16.4643 74.9171 16.0814 75.0867C15.9852 75.1293 15.9077 75.1443 15.8444 75.1404C15.8173 75.1387 15.9603 74.865 15.987 74.8598V74.8598Z" fill="white"/>
<path d="M121.577 60.5885C121.577 60.5885 121.423 60.8484 121.362 60.6779C121.362 60.6779 121.108 60.5173 121.494 60.3568C121.592 60.3164 121.669 60.3034 121.732 60.3093C121.758 60.3118 121.604 60.584 121.577 60.5885V60.5885Z" fill="white"/>
<path d="M35.3999 20.0854C35.3999 20.0854 35.5619 19.8454 35.3583 19.9306C35.3583 19.9306 35.0488 19.9231 35.1234 20.2011C35.1574 20.3277 35.2402 20.3664 35.3396 20.363C35.3523 20.3626 35.4076 20.0954 35.3999 20.0854V20.0854Z" fill="white"/>
<path d="M109.27 118.816C109.27 118.816 109.099 119.054 109.304 118.974C109.304 118.974 109.61 118.99 109.549 118.707C109.521 118.579 109.441 118.537 109.343 118.538C109.331 118.538 109.263 118.806 109.27 118.816V118.816Z" fill="white"/>
<path d="M95.9884 4.43287C95.9884 4.43287 95.8218 4.26891 96.0263 4.25961C96.0263 4.25961 96.334 4.10925 96.266 4.42024C96.2389 4.54397 96.1732 4.61821 96.0911 4.66333C96.0754 4.67193 95.9799 4.44804 95.9884 4.43287V4.43287Z" fill="white"/>
<path d="M39.2676 129.448C39.2676 129.448 39.4249 129.618 39.2223 129.622C39.2223 129.622 38.9111 129.765 38.9923 129.453C39.024 129.331 39.0902 129.259 39.1712 129.215C39.1875 129.206 39.2767 129.433 39.2676 129.448V129.448Z" fill="white"/>
<path d="M6.56059 80.0703C6.56059 80.0703 4.80057 79.927 6.70923 78.8056C6.70923 78.8056 8.90153 76.7417 9.80394 77.9634C10.4301 78.8111 9.18176 79.8731 7.72116 80.8186C7.36217 81.0509 6.53784 80.4769 6.56059 80.0703V80.0703Z" fill="white"/>
<path d="M131.201 55.5856C131.201 55.5856 132.918 55.7311 130.962 56.8198C130.962 56.8198 128.657 58.8277 127.861 57.6322C127.303 56.7941 128.64 55.7486 130.163 54.8232C130.506 54.6151 131.251 55.2029 131.201 55.5856V55.5856Z" fill="white"/>
<path d="M15.6466 92.3708C15.6466 92.3708 13.9472 92.3095 15.8559 91.1882C15.8559 91.1882 18.0881 89.1784 18.9003 90.2779C19.4726 91.0527 18.1587 92.1124 16.6649 93.0631C16.345 93.2667 15.606 92.7288 15.6466 92.3708V92.3708Z" fill="white"/>
<path d="M122.742 42.879C122.742 42.879 124.459 43.0246 122.502 44.1133C122.502 44.1133 120.198 46.1212 119.402 44.9256C118.844 44.0876 120.18 43.042 121.704 42.1167C122.046 41.9086 122.792 42.4963 122.742 42.879V42.879Z" fill="white"/>
<path d="M38.6964 30.9718C38.6964 30.9718 41.3098 29.1383 41.1264 26.4267C41.1264 26.4267 39.8646 28.0675 37.0905 28.7978C35.6666 29.1726 35.5082 29.7451 35.7161 30.5803C35.9226 31.4101 37.9579 31.5666 38.6964 30.9718V30.9718Z" fill="white"/>
<path d="M106.498 107.733C106.498 107.733 103.83 109.511 103.89 112.254C103.89 112.254 105.212 110.632 107.989 109.973C109.428 109.631 109.6 109.05 109.424 108.188C109.255 107.361 107.25 107.157 106.498 107.733V107.733Z" fill="white"/>
<path d="M92.5227 20.3024C92.5227 20.3024 90.5834 22.3567 90.7053 19.5744C90.7053 19.5744 89.6415 16.0416 92.4175 15.487C94.1789 15.1351 94.6893 16.7461 94.7959 18.6815C94.8424 19.5245 93.2586 20.5489 92.5227 20.3024V20.3024Z" fill="white"/>
<path d="M42.8265 117.063C42.8265 117.063 44.8374 115.043 44.5918 117.848C44.5918 117.848 45.4856 121.445 42.7143 121.927C40.9465 122.235 40.5187 120.575 40.5045 118.604C40.4985 117.769 42.1151 116.795 42.8265 117.063V117.063Z" fill="white"/>
<path d="M73.275 18.1074C73.275 18.1074 71.8977 18.1345 74.5874 15.6694C74.5874 15.6694 80.081 15.0434 78.2071 13.9143C76.8816 13.1157 74.4657 14.8141 72.2133 16.749C71.7488 17.148 72.5895 18.1423 73.275 18.1074V18.1074Z" fill="white"/>
<path d="M71.1282 123.291C71.1282 123.291 72.492 123.302 69.7203 125.716C69.7203 125.716 64.2573 126.194 66.0604 127.386C67.339 128.232 69.8142 126.575 72.1343 124.678C72.6013 124.297 71.8005 123.275 71.1282 123.291V123.291Z" fill="white"/>
<path d="M2.63685 74.256C2.63685 74.256 2.81614 73.5864 3.08155 73.4305C3.08155 73.4305 3.67731 73.5233 3.85855 73.7687C4.03979 74.014 3.62098 74.2419 3.35557 74.3978C3.35557 74.3978 2.92254 74.4643 2.63685 74.256Z" fill="white"/>
<path d="M134.806 61.4373C134.806 61.4373 134.564 62.0999 134.282 62.2566C134.282 62.2566 133.691 62.1716 133.531 61.9314C133.371 61.6913 133.814 61.4619 134.095 61.3052C134.095 61.3052 134.538 61.2349 134.806 61.4373Z" fill="white"/>
<path d="M8.98305 55.0109C8.98305 55.0109 9.16233 54.3413 9.42774 54.1854C9.42774 54.1854 10.0235 54.2782 10.2047 54.5235C10.386 54.7689 9.96717 54.9968 9.70177 55.1527C9.70177 55.1527 9.26873 55.2192 8.98305 55.0109Z" fill="white"/>
<path d="M127.607 80.7459C127.607 80.7459 127.365 81.4085 127.083 81.5652C127.083 81.5652 126.491 81.4801 126.332 81.24C126.172 80.9999 126.615 80.7705 126.896 80.6138C126.896 80.6138 127.338 80.5435 127.607 80.7459Z" fill="white"/>
<path d="M118.675 27.9296C118.675 27.9296 118.446 27.3701 118.167 27.336C118.167 27.336 117.57 27.6808 117.404 27.9922C117.238 28.3035 117.678 28.3399 117.958 28.374C117.958 28.374 118.4 28.2507 118.675 27.9296Z" fill="white"/>
<path d="M13.5228 105.85C13.5228 105.85 13.7239 106.422 13.9989 106.464C13.9989 106.464 14.6042 106.132 14.7825 105.823C14.9608 105.513 14.5273 105.464 14.2523 105.422C14.2523 105.422 13.8086 105.534 13.5228 105.85Z" fill="white"/>
<path d="M44.2279 25.4017C44.2279 25.4017 44.6792 24.8705 44.6637 24.6417C44.6637 24.6417 44.2666 24.4235 43.9681 24.5021C43.6697 24.5807 43.709 24.9297 43.7244 25.1585C43.7244 25.1585 43.9035 25.4064 44.2279 25.4017Z" fill="white"/>
<path d="M100.775 113.202C100.775 113.202 100.305 113.726 100.31 113.957C100.31 113.957 100.693 114.189 100.992 114.118C101.29 114.047 101.267 113.693 101.262 113.462C101.262 113.462 101.096 113.206 100.775 113.202Z" fill="white"/>
<path d="M86.8952 17.3152C86.8952 17.3152 86.4345 16.9951 86.4448 16.7603C86.4448 16.7603 86.8349 16.3599 87.1336 16.3003C87.4323 16.2406 87.401 16.6059 87.3907 16.8407C87.3907 16.8407 87.2181 17.1701 86.8952 17.3152Z" fill="white"/>
<path d="M48.2595 120.236C48.2595 120.236 48.701 120.572 48.6802 120.808C48.6802 120.808 48.2763 121.202 47.9781 121.254C47.6799 121.305 47.7273 120.937 47.748 120.701C47.748 120.701 47.9335 120.373 48.2595 120.236Z" fill="white"/>
<path d="M60.6174 18.4774C60.6174 18.4774 61.0687 17.9462 61.0532 17.7173C61.0532 17.7173 60.6561 17.4992 60.3577 17.5778C60.0592 17.6564 60.0985 18.0053 60.114 18.2342C60.114 18.2342 60.293 18.4821 60.6174 18.4774Z" fill="white"/>
<path d="M84.2496 119.734C84.2496 119.734 83.7794 120.258 83.7844 120.489C83.7844 120.489 84.1674 120.72 84.4662 120.649C84.765 120.578 84.7419 120.225 84.7368 119.994C84.7368 119.994 84.5708 119.738 84.2496 119.734Z" fill="white"/>
<path d="M6.0193 98.3909C6.0193 98.3909 6.47054 97.8598 6.45506 97.6309C6.45506 97.6309 6.05799 97.4128 5.75952 97.4914C5.46105 97.5699 5.50034 97.9189 5.51582 98.1478C5.51582 98.1478 5.69484 98.3957 6.0193 98.3909Z" fill="white"/>
<path d="M132.495 37.1114C132.495 37.1114 132.025 37.635 132.03 37.8665C132.03 37.8665 132.413 38.0978 132.712 38.0268C133.011 37.9558 132.988 37.6024 132.983 37.371C132.983 37.371 132.817 37.1157 132.495 37.1114Z" fill="white"/>
<path d="M70.4358 17.9958C70.4358 17.9958 69.975 17.6758 69.9853 17.441C69.9853 17.441 70.3754 17.0406 70.6741 16.9809C70.9728 16.9213 70.9415 17.2866 70.9312 17.5214C70.9312 17.5214 70.7587 17.8507 70.4358 17.9958Z" fill="white"/>
<path d="M73.932 123.483C73.932 123.483 74.3734 123.819 74.3527 124.056C74.3527 124.056 73.9488 124.449 73.6506 124.501C73.3524 124.553 73.3998 124.185 73.4205 123.948C73.4205 123.948 73.606 123.621 73.932 123.483Z" fill="white"/>
<path d="M1.11062 93.8412C1.11062 93.8412 1.87505 93.9312 1.95999 94.1356C1.95999 94.1356 1.5958 94.6323 1.21291 94.8019C0.830027 94.9716 0.718737 94.6474 0.633794 94.443C0.633794 94.443 0.730687 94.0934 1.11062 93.8412Z" fill="white"/>
<path d="M137.148 41.8421C137.148 41.8421 136.395 41.7298 136.32 41.5211C136.32 41.5211 136.703 41.03 137.089 40.8695C137.476 40.7091 137.571 41.0394 137.646 41.2481C137.646 41.2481 137.535 41.5982 137.148 41.8421Z" fill="white"/>
<path d="M26.3911 39.3814C26.3911 39.3814 25.8303 39.1201 25.5812 39.2243C25.5812 39.2243 25.33 39.7185 25.4047 39.9965C25.4793 40.2745 25.8597 40.0994 26.1089 39.9952C26.1089 39.9952 26.3846 39.7147 26.3911 39.3814Z" fill="white"/>
<path d="M119.049 99.5887C119.049 99.5887 119.592 99.8681 119.843 99.7699C119.843 99.7699 120.114 99.278 120.053 98.9953C119.991 98.7126 119.607 98.8787 119.356 98.9769C119.356 98.9769 119.071 99.2524 119.049 99.5887Z" fill="white"/>
<path d="M105.381 19.469C105.381 19.469 105.933 18.9501 106.184 18.9387C106.184 18.9387 106.444 19.3143 106.376 19.6253C106.308 19.9363 105.926 19.9378 105.676 19.9492C105.676 19.9492 105.395 19.7975 105.381 19.469Z" fill="white"/>
<path d="M30.6504 114.006C30.6504 114.006 30.081 114.515 29.833 114.519C29.833 114.519 29.5917 114.133 29.673 113.821C29.7543 113.508 30.1327 113.518 30.3807 113.513C30.3807 113.513 30.6514 113.674 30.6504 114.006Z" fill="white"/>
<path d="M16.6862 76.4361C16.6862 76.4361 16.5832 77.0895 16.3264 77.2753C16.3264 77.2753 15.6947 77.2781 15.4755 77.0758C15.2562 76.8734 15.6637 76.5972 15.9205 76.4114C15.9205 76.4114 16.3629 76.2841 16.6862 76.4361Z" fill="white"/>
<path d="M120.956 58.9772C120.956 58.9772 121.088 58.3204 121.35 58.1401C121.35 58.1401 121.975 58.1549 122.183 58.3653C122.391 58.5757 121.975 58.8431 121.713 59.0235C121.713 59.0235 121.269 59.1397 120.956 58.9772Z" fill="white"/>
<path d="M33.4521 20.8697C33.4521 20.8697 32.8883 21.3612 32.869 21.597C32.869 21.597 33.2582 21.8657 33.5885 21.8196C33.9189 21.7735 33.9315 21.4121 33.9507 21.1762C33.9507 21.1762 33.7987 20.9021 33.4521 20.8697Z" fill="white"/>
<path d="M111.232 118.078C111.232 118.078 111.812 117.598 111.842 117.36C111.842 117.36 111.469 117.078 111.14 117.116C110.811 117.153 110.782 117.517 110.753 117.755C110.753 117.755 110.891 118.036 111.232 118.078Z" fill="white"/>
<path d="M97.9435 4.31458C97.9435 4.31458 98.5154 4.54311 98.5398 4.76883C98.5398 4.76883 98.1587 5.21584 97.8291 5.32256C97.4994 5.42929 97.4787 5.07554 97.4543 4.84982C97.4543 4.84982 97.5995 4.50685 97.9435 4.31458Z" fill="white"/>
<path d="M37.328 129.513C37.328 129.513 36.7724 129.266 36.7584 129.038C36.7584 129.038 37.1556 128.597 37.4865 128.499C37.8175 128.4 37.822 128.758 37.836 128.986C37.836 128.986 37.677 129.329 37.328 129.513Z" fill="white"/>
<path d="M66.8226 17.763C66.8226 17.763 66.5629 17.2959 66.2819 17.2663C66.2819 17.2663 65.7061 17.5505 65.5579 17.8089C65.4097 18.0674 65.8508 18.0999 66.1317 18.1295C66.1317 18.1295 66.5668 18.0291 66.8226 17.763Z" fill="white"/>
<path d="M77.496 123.819C77.496 123.819 77.732 124.298 78.0086 124.336C78.0086 124.336 78.591 124.065 78.7492 123.808C78.9075 123.551 78.4726 123.506 78.196 123.468C78.196 123.468 77.761 123.558 77.496 123.819Z" fill="white"/>
<path d="M12.6538 94.1605C12.6538 94.1605 12.394 93.6934 12.1131 93.6637C12.1131 93.6637 11.5373 93.9479 11.3891 94.2064C11.2408 94.4649 11.6819 94.4973 11.9629 94.527C11.9629 94.527 12.398 94.4265 12.6538 94.1605Z" fill="white"/>
<path d="M125.742 41.197C125.742 41.197 125.978 41.6758 126.254 41.7136C126.254 41.7136 126.837 41.4428 126.995 41.186C127.153 40.9292 126.718 40.8841 126.442 40.8463C126.442 40.8463 126.007 40.9356 125.742 41.197Z" fill="white"/>
<path d="M63.7411 16.851C63.7411 16.851 63.9891 16.2664 64.268 16.1071C64.268 16.1071 64.8471 16.124 65.0003 16.3127C65.1536 16.5013 64.7155 16.7373 64.4367 16.8966C64.4367 16.8966 64.0016 16.9976 63.7411 16.851Z" fill="white"/>
<path d="M80.5036 124.826C80.5036 124.826 80.2321 125.41 79.949 125.563C79.949 125.563 79.3768 125.529 79.2337 125.335C79.0906 125.14 79.5346 124.914 79.8176 124.761C79.8176 124.761 80.2526 124.671 80.5036 124.826Z" fill="white"/>
<path d="M9.5722 93.248C9.5722 93.248 9.82017 92.6634 10.099 92.5041C10.099 92.5041 10.6782 92.5209 10.8314 92.7096C10.9846 92.8983 10.5466 93.1343 10.2677 93.2936C10.2677 93.2936 9.83261 93.3946 9.5722 93.248Z" fill="white"/>
<path d="M128.749 42.2044C128.749 42.2044 128.478 42.7876 128.195 42.9406C128.195 42.9406 127.623 42.9074 127.48 42.7126C127.336 42.5179 127.78 42.2919 128.063 42.1389C128.063 42.1389 128.498 42.0491 128.749 42.2044Z" fill="white"/>
<path d="M2.04089 52.0365C2.04089 52.0365 2.31416 51.3117 2.63265 51.1246C2.63265 51.1246 3.30194 51.1742 3.48318 51.4195C3.66442 51.6649 3.16372 51.9409 2.84524 52.128C2.84524 52.128 2.34495 52.234 2.04089 52.0365Z" fill="white"/>
<path d="M134.287 84.1531C134.287 84.1531 134.044 84.8157 133.763 84.9724C133.763 84.9724 133.171 84.8874 133.011 84.6473C132.852 84.4072 133.294 84.1777 133.576 84.021C133.576 84.021 134.018 83.9507 134.287 84.1531Z" fill="white"/>
</svg>
