<svg width="41" height="40" viewBox="0 0 41 40" fill="none" xmlns="http://www.w3.org/2000/svg">
<circle cx="20" cy="20" r="20" transform="rotate(-180 20 20)" fill="white"/>
<path d="M27.7869 22.3839C32.5686 18.3302 24.0343 7.22893 30.1888 6.03773C36.0378 6.41509 38.302 14.717 39.1208 19.515C39.1208 30.5607 31.1099 38.949 20.0642 38.949C21.7792 34.9147 17.5713 31.0443 27.7869 22.3839Z" fill="#6D91D6"/>
<path d="M0.377491 19.9992C0.377491 8.95352 7.92465 3.20764 17.7358 2.64186C20.5739 2.73306 22.2348 2.89097 23.0742 3.15872C28.1283 4.77092 25.5727 12.0077 23.9087 17.045C23.3377 18.7737 20.6117 19.9992 15.4716 19.9992C4.42594 19.9992 7.16994 26.0374 0.377491 19.9992Z" fill="#6D91D6"/>
<path d="M14.1933 25.0949C14.1933 23.7402 13.8468 23.5848 15.5141 23.5848C15.7087 23.8094 15.8725 24.0126 16.009 24.1964C16.8447 25.3217 13.4385 27.1697 13.4385 27.1697C13.2501 25.2829 14.1933 26.4495 14.1933 25.0949Z" fill="#6D91D6"/>
<path d="M13.3317 27.9934C13.3317 27.9934 13.4323 27.9934 13.9771 27.9934C13.9771 27.9934 14.717 27.6808 14.717 28.3867C14.717 29.0926 13.8765 29.0562 13.3317 29.0562C13.3317 29.0562 13.0524 28.6817 13.3317 27.9934Z" fill="#6D91D6"/>
<path d="M11.6985 24.5283C11.6985 24.5283 12.6631 23.3963 13.2079 23.3963C13.2079 23.3963 13.9626 24.2847 13.9626 24.9906C13.9626 25.6965 13.1222 25.6601 12.5774 25.6601C12.5774 25.6601 11.8872 25.283 11.6985 24.5283Z" fill="#6D91D6"/>
</svg>
