<svg width="74" height="42" viewBox="0 0 74 42" fill="none" xmlns="http://www.w3.org/2000/svg">
<path d="M55.0546 20.3606C61.4255 23.6632 66.1861 26.9827 68.5487 29.7699C70.9113 32.5572 70.7344 34.6452 68.0472 35.6884C65.3599 36.7316 60.3235 36.6676 53.771 35.5069C47.2186 34.3462 39.5429 32.1584 32.0138 29.3055C24.4848 26.4525 17.5536 23.1054 12.367 19.8179C7.18038 16.5304 4.04924 13.4996 3.49158 11.2268C2.93392 8.95399 4.98317 7.57547 9.30028 7.31932C13.6174 7.06316 19.9436 7.94471 27.2324 9.81811L28.7804 11.7648C22.6708 10.1945 17.368 9.45557 13.7493 9.67028C10.1306 9.885 8.4129 11.0405 8.88034 12.9456C9.34778 14.8507 11.9724 17.3912 16.3199 20.1469C20.6674 22.9025 26.4773 25.7082 32.7883 28.0995C39.0993 30.4909 45.5332 32.3248 51.0256 33.2977C56.518 34.2706 60.7397 34.3243 62.9922 33.4498C65.2447 32.5754 65.393 30.8252 63.4126 28.4889C61.4322 26.1525 57.4418 23.37 52.1016 20.6018L55.0546 20.3606Z" fill="#C87E3A"/>
<path d="M54.1469 22.9251C58.5284 25.4586 61.6491 27.8497 63.0546 29.7504C64.4602 31.6512 64.0774 32.9623 61.9619 33.4932C59.8464 34.024 56.1086 33.7468 51.2925 32.7019C46.4763 31.657 40.8331 29.8989 35.184 27.6834C29.535 25.468 24.1748 22.9108 19.8836 20.384C15.5924 17.8572 12.5941 15.4926 11.3249 13.6344C10.0557 11.7761 10.5819 10.5212 12.8269 10.0521C15.072 9.5831 18.9187 9.92445 23.8073 11.0265L25.9849 12.7697C21.8872 11.8459 18.6628 11.5598 16.7809 11.953C14.8991 12.3461 14.458 13.3981 15.5219 14.9557C16.5857 16.5133 19.099 18.4953 22.696 20.6134C26.293 22.7314 30.786 24.8749 35.5211 26.7319C40.2563 28.589 44.9865 30.0626 49.0235 30.9385C53.0605 31.8144 56.1936 32.0467 57.9669 31.6018C59.7401 31.1568 60.061 30.0577 58.8828 28.4645C57.7047 26.8713 55.0889 24.867 51.4162 22.7433L54.1469 22.9251Z" fill="#C87E3A"/>
<ellipse cx="36.762" cy="19.5296" rx="19.1467" ry="19.5297" transform="rotate(-180 36.762 19.5296)" fill="url(#paint0_linear)"/>
<path d="M33.3062 23.0883C29.9215 26.7286 25.4733 23.981 27.0346 19.2618C27.9335 16.5448 28.0089 14.721 26.388 15.0582C20.3813 14.6417 26.9652 4.59342 32.5195 6.91807C34.1349 7.59421 35.8732 8.46306 37.5947 9.46932C45.2748 13.9584 39.3634 16.5733 33.3062 23.0883Z" fill="#E9A116"/>
<path d="M51.3777 26.712C52.1321 31.4492 46.8048 37.3093 42.0123 37.5166C39.6199 37.0007 36.3249 31.681 36.282 29.649C36.962 25.0871 55.3497 23.844 47.8269 21.3457C47.0665 22.5862 51.0098 24.4025 51.3777 26.712Z" fill="#E9A116"/>
<path d="M69.1838 30.5883C70.4612 32.4108 70.5356 33.8883 69.401 34.9021C68.2664 35.916 65.9544 36.438 62.6504 36.4265C59.3464 36.415 55.1422 35.8701 50.3749 34.8356C45.6076 33.8012 40.4097 32.3059 35.1981 30.4696C29.9865 28.6333 24.906 26.5071 20.3639 24.2615C15.8219 22.0158 11.9446 19.7132 9.04292 17.5382C6.14125 15.3632 4.2959 13.3763 3.65481 11.7368C3.01371 10.0973 3.5947 8.8508 5.35121 8.09723L10.4391 10.3223C8.96678 10.954 8.47978 11.9988 9.01716 13.3731C9.55454 14.7474 11.1013 16.4128 13.5336 18.236C15.9658 20.0591 19.2158 21.9892 23.0231 23.8715C26.8303 25.7539 31.0889 27.5361 35.4574 29.0753C39.8259 30.6145 44.1828 31.8679 48.1789 32.735C52.175 33.6022 55.699 34.0589 58.4685 34.0685C61.238 34.0782 63.176 33.6406 64.127 32.7908C65.078 31.9409 65.0156 30.7025 63.9449 29.1748L69.1838 30.5883Z" fill="#C87E3A"/>
<path d="M62.3012 28.856C63.7149 30.3637 64.1926 31.5923 63.6962 32.4432C63.1998 33.2941 61.7429 33.7437 59.4425 33.7559C57.142 33.7682 54.0619 33.3427 50.4492 32.5136C46.8364 31.6845 42.7914 30.4749 38.6385 28.9818C34.4856 27.4886 30.3402 25.7534 26.5348 23.9153C22.7293 22.0772 19.3697 20.1873 16.7251 18.3971C14.0805 16.6069 12.2245 14.9663 11.306 13.6066C10.3875 12.247 10.432 11.2062 11.4359 10.5677L15.6149 12.3851C14.7734 12.9203 14.7361 13.7927 15.506 14.9324C16.276 16.0721 17.8317 17.4474 20.0484 18.9479C22.2652 20.4485 25.0813 22.0327 28.2711 23.5734C31.4609 25.1141 34.9356 26.5686 38.4167 27.8202C41.8978 29.0718 45.2883 30.0857 48.3167 30.7807C51.345 31.4756 53.9267 31.8322 55.855 31.822C57.7833 31.8117 59.0045 31.4349 59.4206 30.7216C59.8367 30.0084 59.4363 28.9786 58.2513 27.7148L62.3012 28.856Z" fill="#C87E3A"/>
<defs>
<linearGradient id="paint0_linear" x1="36.762" y1="-4.19617e-05" x2="22.7618" y2="38.8196" gradientUnits="userSpaceOnUse">
<stop stop-color="#3E8A66"/>
<stop offset="1" stop-color="#80FF00"/>
</linearGradient>
</defs>
</svg>
