<svg width="73" height="76" viewBox="0 0 73 76" fill="none" xmlns="http://www.w3.org/2000/svg">
<path d="M59 38C59 50.7025 48.9264 61 36.5 61C24.0736 61 14 50.7025 14 38C14 25.2975 24.0736 15 36.5 15C48.9264 15 59 25.2975 59 38ZM14.5695 38C14.5695 50.381 24.3881 60.4178 36.5 60.4178C48.6119 60.4178 58.4305 50.381 58.4305 38C58.4305 25.619 48.6119 15.5822 36.5 15.5822C24.3881 15.5822 14.5695 25.619 14.5695 38Z" fill="#C4C4C4"/>
<path d="M73 38C73 58.9868 56.6584 76 36.5 76C16.3416 76 0 58.9868 0 38C0 17.0132 16.3416 0 36.5 0C56.6584 0 73 17.0132 73 38ZM0.923889 38C0.923889 58.4556 16.8519 75.0381 36.5 75.0381C56.1481 75.0381 72.0761 58.4556 72.0761 38C72.0761 17.5444 56.1481 0.961857 36.5 0.961857C16.8519 0.961857 0.923889 17.5444 0.923889 38Z" fill="#C4C4C4" fill-opacity="0.35"/>
</svg>
